<?xml version="1.0" encoding="UTF-8"?> <!-- Generator: Adobe Illustrator 23.0.5, SVG Export Plug-In . SVG Version: 6.00 Build 0) --> <svg xmlns="http://www.w3.org/2000/svg" xmlns:xlink="http://www.w3.org/1999/xlink" id="Слой_1" x="0px" y="0px" viewBox="0 0 114.2 784.1" style="enable-background:new 0 0 114.2 784.1;" xml:space="preserve"> <style type="text/css"> .st0{fill:none;stroke:#FFFFFF;stroke-width:1.5;stroke-miterlimit:10;} </style> <g> <polygon class="st0" points="22.5,722.6 22.5,736.6 49.1,751.7 49.1,758.9 22.5,758.9 22.5,771 86.9,771 86.9,758.9 60.8,758.9 60.8,751.7 86.9,735.1 86.9,719.9 54.9,741.4 "></polygon> <path class="st0" d="M25,675.5c-1.6,3.1-2.5,6.6-2.5,10.6v13.7v6.6v5.5h64.4v-12.1h-25v-13.7c0-4-0.8-7.6-2.4-10.6 c-1.6-3.1-3.9-5.4-6.9-7.1c-3-1.7-6.4-2.5-10.3-2.5s-7.4,0.8-10.4,2.5C28.9,670.1,26.6,672.4,25,675.5z M46.4,679.4 c1.2,0.6,2.1,1.5,2.8,2.6c0.7,1.1,1,2.4,1,3.8v14h-16v-14c0-1.5,0.3-2.8,1-3.9c0.7-1.1,1.6-2,2.8-2.6c1.2-0.6,2.6-0.9,4.2-0.9 C43.8,678.4,45.2,678.8,46.4,679.4z"></path> <path class="st0" d="M22.5,640.6l64.4,24.6v-13.1l-10.3-3.6v-23.6l10.3-3.6v-13.1l-64.4,24.6V640.6z M64.9,644.4l-22-7.7l22-7.7 V644.4z"></path> <polygon class="st0" points="22.5,531.2 22.5,543.3 75.2,543.3 75.2,559.5 22.5,559.5 22.5,571.6 75.2,571.6 75.2,587.9 22.5,587.9 22.5,600 86.9,600 86.9,594.1 86.9,587.9 86.9,571.6 86.9,559.5 86.9,543.3 86.9,535.6 86.9,534.7 101.6,534.7 101.6,522.6 75.2,522.6 75.2,531.2 "></polygon> <polygon class="st0" points="22.5,507.7 22.5,512.1 86.9,512.1 86.9,507.7 86.9,500 86.9,469 75.2,469 75.2,500 60.8,500 60.8,473.8 49.1,473.8 49.1,500 34.2,500 34.2,469 22.5,469 22.5,500 "></polygon> <path class="st0" d="M39.4,421c-1.8-0.8-3.1-2.1-4.1-3.7c-0.9-1.6-1.4-3.5-1.4-5.8c0-1.7,0.4-3.3,1.2-4.7c0.8-1.4,1.9-2.6,3.5-3.6 c1.5-1,3.3-1.7,5.4-2.2v-12.6c-4.7,0.8-8.7,2.2-12,4.3c-3.3,2.1-5.9,4.7-7.6,7.9c-1.7,3.2-2.6,6.8-2.6,10.9c0,4.9,0.9,9.1,2.8,12.6 c1.9,3.5,4.6,6.1,8.2,8c3.6,1.8,7.9,2.7,13,2.7h17.7c5.1,0,9.4-0.9,13-2.7c3.6-1.8,6.3-4.5,8.2-8c1.9-3.5,2.8-5.2,2.8-5.2 s0-2.5,0-7.4c0-4-0.9-7.7-2.6-10.8c-1.7-3.2-4.3-5.8-7.6-7.9c-3.3-2.1-7.3-3.5-12-4.4V401c2.2,0.4,4,1.2,5.5,2.1 c1.5,1,2.7,2.2,3.4,3.6c0.8,1.4,1.2,3,1.2,4.8c0,2.3-0.5,4.2-1.4,5.8c-0.9,1.6-2.3,2.8-4.1,3.7c-1.8,0.8-3.9,1.3-6.4,1.3H45.9 C43.4,422.3,41.2,421.8,39.4,421z"></path> <polygon class="st0" points="22.5,373.9 22.5,378.3 86.9,378.3 86.9,373.9 86.9,366.1 86.9,335.1 75.2,335.1 75.2,366.1 60.8,366.1 60.8,340 49.1,340 49.1,366.1 34.2,366.1 34.2,335.1 22.5,335.1 22.5,366.1 "></polygon> <path class="st0" d="M22.5,285.3v19.1v5.6v6.5h38.6c3,0,5.5,0.4,7.6,1.2c2.1,0.8,3.7,2,4.8,3.5c1.1,1.5,1.7,3.3,1.7,5.5h11.7v-0.9 c0-4.5-1-8.4-2.9-11.6c-1.9-3.2-4.7-5.6-8.4-7.3c-3.7-1.7-8.1-2.5-13.3-2.5H34.2v-19.1h52.7v-12.1H22.5v7.4V285.3z"></path> <path class="st0" d="M24.8,224.5c-2,3.6-2.9,7.7-2.9,12.3s1,8.8,2.9,12.3c2,3.6,4.7,6.3,8.3,8.3c3.6,1.9,7.7,2.9,12.5,2.9h18.3 c4.7,0,8.9-1,12.5-2.9c3.6-1.9,6.4-4.7,8.3-8.3c2-3.6,2.9-7.7,2.9-12.3s-1-8.8-2.9-12.3c-2-3.6-4.7-6.3-8.3-8.3 c-3.6-1.9-7.7-2.9-12.5-2.9H45.6c-4.7,0-8.9,1-12.5,2.9C29.5,218.1,26.7,220.9,24.8,224.5z M64.1,225.8c2.2,0,4.2,0.5,5.9,1.4 c1.7,0.9,3,2.2,4,3.8c0.9,1.7,1.4,3.6,1.4,5.8c0,2.2-0.5,4.1-1.4,5.8c-0.9,1.7-2.3,2.9-4,3.8c-1.7,0.9-3.7,1.4-5.9,1.4H45.3 c-2.2,0-4.2-0.5-5.9-1.4c-1.7-0.9-3-2.2-4-3.8c-0.9-1.7-1.4-3.6-1.4-5.8c0-2.2,0.5-4.1,1.4-5.8c0.9-1.7,2.3-2.9,4-3.8 c1.7-0.9,3.7-1.4,5.9-1.4H64.1z"></path> <path class="st0" d="M55.2,146.4c-2.3-1.8-4.9-3.3-7.8-4.3c-2.9-1-5.8-1.5-8.7-1.5h0c-3.5,0-6.6,0.7-9.1,2.2 c-2.5,1.5-4.4,3.7-5.7,6.5c-1.3,2.9-2,6.3-2,10.3c0,3.7,0.8,7,2.3,9.8c1.5,2.8,3.7,5.1,6.6,6.8c2.9,1.7,6.3,2.6,10.4,2.9h0v-12.4h0 c-2.4-0.3-4.3-1-5.6-2.3c-1.3-1.2-2-2.9-2-4.9c0-2.1,0.5-3.7,1.4-4.8c0.9-1.1,2.3-1.7,4-1.7h0.1c1.2,0,2.5,0.3,3.8,0.8 c1.4,0.5,2.7,1.3,4,2.3L76,178.4h10.9v-38.1H75.2v22L55.2,146.4z"></path> <path class="st0" d="M21.7,111.2c0,6.3,1.6,11,4.8,14.3c3.2,3.3,7.7,4.9,13.5,4.9h29.3c5.7,0,10.2-1.6,13.4-4.9 c3.2-3.3,4.9-8.1,4.9-14.4c0-6.3-1.6-11-4.8-14.3c-3.2-3.3-7.7-4.9-13.5-4.9H40c-5.8,0-10.3,1.6-13.5,4.9 C23.3,100.2,21.7,105,21.7,111.2z M66.2,104.1c3.1,0,5.5,0.6,7.2,1.7c1.7,1.2,2.5,3,2.5,5.4c0,2.5-0.8,4.3-2.5,5.4 c-1.7,1.2-4.1,1.7-7.2,1.7H43.1c-3.1,0-5.5-0.6-7.2-1.7c-1.7-1.2-2.5-3-2.5-5.4c0-2.5,0.8-4.3,2.5-5.4c1.7-1.2,4.1-1.7,7.2-1.7 H66.2z"></path> <path class="st0" d="M55.2,49.5c-2.3-1.8-4.9-3.3-7.8-4.3c-2.9-1-5.8-1.5-8.7-1.5h0c-3.5,0-6.6,0.7-9.1,2.2 c-2.5,1.5-4.4,3.7-5.7,6.5c-1.3,2.9-2,6.3-2,10.3c0,3.7,0.8,7,2.3,9.8c1.5,2.8,3.7,5.1,6.6,6.8c2.9,1.7,6.3,2.6,10.4,2.9h0V69.8h0 c-2.4-0.3-4.3-1-5.6-2.3c-1.3-1.2-2-2.9-2-4.9c0-2.1,0.5-3.7,1.4-4.8c0.9-1.1,2.3-1.7,4-1.7h0.1c1.2,0,2.5,0.3,3.8,0.8 c1.4,0.5,2.7,1.3,4,2.3L76,81.4h10.9V43.3H75.2v22L55.2,49.5z"></path> <polygon class="st0" points="22.5,26.6 26.8,36.2 39.7,36.2 36.8,28.4 86.9,28.4 86.9,16.3 22.5,16.3 "></polygon> </g> </svg> 