<?xml version="1.0" encoding="UTF-8"?> <!-- Generator: Adobe Illustrator 23.0.2, SVG Export Plug-In . SVG Version: 6.00 Build 0) --> <svg xmlns="http://www.w3.org/2000/svg" xmlns:xlink="http://www.w3.org/1999/xlink" id="Layer_1" x="0px" y="0px" viewBox="0 0 251 101" style="enable-background:new 0 0 251 101;" xml:space="preserve"> <style type="text/css"> .st0{fill:#FFFFFF;} .st1{fill:#FF6400;} </style> <rect x="8.8" y="75" class="st0" width="236.6" height="19.6"></rect> <path d="M41.1,46.3c0,2.1,0,4.3,0.1,6.4c0,2.1,0.3,4.5,0.7,7.1h-7.1l-1.4-5h-0.3c-1,1.8-2.5,3.2-4.4,4.3c-1.9,1.1-4.2,1.6-6.8,1.6 c-4.8,0-8.5-1.6-11.1-4.7c-2.6-3.2-4-8.1-4-14.8c0-6.5,1.5-11.6,4.4-15.2c3-3.6,7.3-5.4,13-5.4c1.6,0,2.9,0.1,3.9,0.3 c1,0.2,2,0.5,3.1,0.9V6.3h9.9V46.3z M24.3,52.4c1.9,0,3.5-0.5,4.6-1.4c1.1-0.9,1.9-2.3,2.4-4.1V30.7c-0.7-0.6-1.5-1-2.4-1.3 c-0.9-0.3-2-0.4-3.4-0.4c-2.8,0-4.9,0.9-6.3,2.8c-1.4,1.9-2.1,5.1-2.1,9.7c0,3.3,0.6,5.9,1.7,7.9C20,51.4,21.8,52.4,24.3,52.4z"></path> <path d="M80.4,56.5c-1.5,1.2-3.6,2.3-6.2,3.1c-2.6,0.8-5.4,1.3-8.4,1.3c-6.2,0-10.7-1.8-13.5-5.4c-2.8-3.6-4.3-8.5-4.3-14.8 c0-6.7,1.6-11.7,4.8-15.1c3.2-3.4,7.7-5,13.5-5c1.9,0,3.8,0.3,5.6,0.8c1.8,0.5,3.5,1.4,4.9,2.5c1.4,1.2,2.6,2.7,3.4,4.7 c0.9,2,1.3,4.5,1.3,7.4c0,1.1-0.1,2.2-0.2,3.4c-0.1,1.2-0.3,2.5-0.6,3.8H58c0.1,3.2,1,5.6,2.5,7.3c1.5,1.6,3.9,2.4,7.3,2.4 c2.1,0,3.9-0.3,5.6-1c1.6-0.6,2.9-1.3,3.8-1.9L80.4,56.5z M66.2,28.5c-2.6,0-4.5,0.8-5.7,2.3c-1.2,1.6-2,3.6-2.2,6.2h14.1 c0.2-2.7-0.2-4.9-1.3-6.3C70.1,29.2,68.4,28.5,66.2,28.5z"></path> <path d="M88.6,21.6h7.2l1.1,4.6h0.3c1.3-1.9,2.9-3.4,4.7-4.3c1.8-0.9,4-1.4,6.6-1.4c4.8,0,8.4,1.5,10.8,4.5c2.4,3,3.6,7.9,3.6,14.6 c0,3.3-0.4,6.2-1.1,8.8c-0.8,2.6-1.9,4.8-3.4,6.7c-1.5,1.8-3.3,3.2-5.5,4.2c-2.2,1-4.6,1.5-7.4,1.5c-1.6,0-2.9-0.1-3.9-0.3 c-1-0.2-2-0.6-3.1-1.1V75h-9.9V21.6z M105.6,28.9c-1.9,0-3.4,0.5-4.5,1.4c-1.1,1-1.9,2.4-2.6,4.3v15.9c0.7,0.6,1.5,1,2.3,1.3 c0.8,0.3,1.9,0.5,3.3,0.5c2.8,0,5-1,6.4-3c1.4-2,2.1-5.3,2.1-10c0-3.4-0.6-6-1.7-7.8C109.9,29.8,108.1,28.9,105.6,28.9z"></path> <path d="M128,40.7c0-6.5,1.6-11.4,4.7-14.9c3.2-3.5,7.6-5.2,13.3-5.2c3.1,0,5.7,0.5,7.9,1.4c2.2,1,4.1,2.3,5.6,4.1 c1.5,1.8,2.6,3.9,3.3,6.4c0.7,2.5,1.1,5.2,1.1,8.2c0,6.5-1.6,11.4-4.7,14.9c-3.1,3.5-7.5,5.2-13.2,5.2c-3.1,0-5.7-0.5-7.9-1.5 c-2.2-1-4.1-2.3-5.6-4.1c-1.5-1.8-2.6-3.9-3.4-6.4C128.3,46.4,128,43.7,128,40.7z M138.2,40.7c0,1.7,0.2,3.2,0.5,4.7 c0.3,1.4,0.8,2.7,1.4,3.7c0.6,1.1,1.4,1.9,2.4,2.5c1,0.6,2.2,0.9,3.5,0.9c2.6,0,4.5-0.9,5.8-2.8c1.3-1.9,1.9-4.9,1.9-8.9 c0-3.5-0.6-6.3-1.8-8.5c-1.2-2.2-3.2-3.2-6-3.2c-2.4,0-4.3,0.9-5.7,2.7C138.9,33.5,138.2,36.5,138.2,40.7z"></path> <path d="M181.5,21.6v21.7c0,2,0.1,3.7,0.3,5.2c0.2,1.5,0.6,2.7,1.2,3.7c0.6,1,1.3,1.7,2.3,2.2c1,0.5,2.2,0.8,3.7,0.8 c1.4,0,2.6-0.2,3.7-0.6c1.1-0.4,2-1,2.9-1.8c0.8-0.8,1.6-1.6,2.2-2.6c0.6-1,1.2-2,1.6-3.2V21.6h6.1v27.3c0,1.8,0.1,3.7,0.2,5.7 c0.1,2,0.3,3.7,0.6,5.1H202l-1.5-6h-0.4c-1.2,2-2.7,3.6-4.7,5c-2,1.3-4.5,2-7.6,2c-2,0-3.8-0.2-5.4-0.7c-1.6-0.5-2.8-1.3-3.9-2.6 c-1-1.2-1.8-2.9-2.4-4.9c-0.5-2.1-0.8-4.7-0.8-7.8v-23H181.5z"></path> <path d="M214.5,24.4c1.9-1.2,4.2-2,6.8-2.6c2.6-0.6,5.3-0.8,8-0.8c2.6,0,4.8,0.4,6.4,1.1c1.6,0.7,2.8,1.6,3.7,2.8 c0.8,1.1,1.4,2.4,1.7,3.8c0.3,1.4,0.4,2.7,0.4,4.1c0,3.1-0.1,6-0.2,8.9c-0.2,2.9-0.2,5.6-0.2,8.2c0,1.9,0.1,3.7,0.2,5.3 c0.2,1.7,0.4,3.2,0.8,4.7h-4.5l-1.6-5.3h-0.4c-0.5,0.7-1,1.4-1.7,2.1c-0.7,0.7-1.5,1.3-2.5,1.8c-1,0.5-2.1,1-3.4,1.3 c-1.3,0.4-2.7,0.5-4.3,0.5c-1.6,0-3.1-0.3-4.5-0.8c-1.4-0.5-2.6-1.2-3.6-2.2c-1-0.9-1.8-2.1-2.4-3.4c-0.6-1.3-0.9-2.8-0.9-4.5 c0-2.2,0.5-4.1,1.4-5.6c0.9-1.5,2.2-2.7,3.9-3.6c1.7-0.9,3.6-1.5,6-1.9c2.3-0.4,4.9-0.6,7.7-0.6c0.7,0,1.4,0,2.1,0 c0.7,0,1.4,0.1,2.1,0.2c0.2-1.5,0.2-2.9,0.2-4.1c0-2.8-0.6-4.8-1.7-5.9c-1.1-1.1-3.2-1.7-6.1-1.7c-0.9,0-1.8,0.1-2.8,0.2 c-1,0.1-2,0.3-3.1,0.6c-1,0.2-2,0.5-3,0.9c-0.9,0.3-1.8,0.7-2.5,1.1L214.5,24.4z M225.4,55c1.4,0,2.7-0.2,3.8-0.6 c1.1-0.4,2.1-0.9,2.9-1.4c0.8-0.6,1.5-1.2,2-1.9c0.5-0.7,0.9-1.4,1.2-2.1v-6.3c-0.7-0.1-1.4-0.1-2.2-0.1c-0.7,0-1.5,0-2.2,0 c-1.6,0-3.1,0.1-4.6,0.3c-1.5,0.2-2.8,0.5-4,1c-1.1,0.5-2.1,1.1-2.7,2c-0.7,0.8-1,1.9-1,3.2c0,1.8,0.6,3.2,1.9,4.4 C221.8,54.4,223.4,55,225.4,55z"></path> <rect x="8.8" y="75" class="st1" width="236.6" height="19.6"></rect> <polygon class="st1" points="163.1,75 170.6,47.7 145.5,75 "></polygon> <g> <g> <path class="st0" d="M45.2,79.9V83h-3.5v9.2h-3.8V83h-3.5v-3.2H45.2z"></path> <path class="st0" d="M52.2,79.9v12.4h-3.8V79.9H52.2z"></path> <path class="st0" d="M57.5,79.9h9.8v12.4h-3.8V83h-2.3v0.7c0,2.2-0.1,3.8-0.3,4.8c-0.6,2.5-2,3.8-4,3.8c-0.6,0-1.1-0.1-1.5-0.3 v-2.9c0.2,0.1,0.4,0.2,0.7,0.2c0.2,0,0.4-0.1,0.5-0.2c0.2-0.1,0.3-0.3,0.4-0.5c0.1-0.2,0.2-0.5,0.2-0.7c0.1-0.2,0.1-0.5,0.1-0.9 c0-0.4,0-0.7,0.1-1c0-0.3,0-0.6,0-1V79.9z"></path> <path class="st0" d="M75.1,79.9v3.9h2.1c1.6,0,2.9,0.4,3.7,1.1s1.2,1.8,1.2,3.1c0,1.4-0.4,2.4-1.3,3.2s-2.1,1.1-3.8,1.1h-5.7V79.9 H75.1z M75.1,86.5v2.7h1.7c1,0,1.6-0.5,1.6-1.4c0-0.9-0.5-1.4-1.5-1.4H75.1z"></path> <path class="st0" d="M97.3,79.9l-4.5,4.8l5.2,7.6h-4.7l-3-4.8l-1.1,1.2v3.6h-3.7V79.9h3.8l0,2.5c0,0.2,0,0.8-0.1,1.9l3.5-4.4H97.3 z"></path> <path class="st0" d="M111.8,79.9v12.4h-3.6v-4.7c0-1.3,0-2.3,0.1-3l-3.6,7.7h-4.1V79.9h3.6v4.7c0,0.9,0,1.9-0.1,2.9l3.6-7.6H111.8 z"></path> <path class="st0" d="M133.5,88l-4-8.1h4.2l1.3,3.6c0.3,0.7,0.5,1.4,0.6,2.1c0.2-0.9,0.4-1.6,0.6-2.1l1.3-3.6h4.2L136.9,90 c-0.3,0.8-0.8,1.4-1.5,1.8c-0.6,0.5-1.3,0.7-1.9,0.7c-0.4,0-0.8,0-1.4-0.1c-0.5-0.1-0.9-0.2-1-0.3v-3c0.1,0.1,0.3,0.1,0.6,0.2 s0.6,0.1,0.8,0.1c0.3,0,0.5-0.1,0.7-0.2c0.2-0.2,0.3-0.4,0.3-0.7C133.6,88.4,133.6,88.2,133.5,88z"></path> <path class="st0" d="M156.1,79.9l-4.5,4.8l5.2,7.6h-4.7l-3-4.8l-1.1,1.2v3.6h-3.7V79.9h3.8l0,2.5c0,0.2,0,0.8-0.1,1.9l3.5-4.4 H156.1z"></path> <path class="st0" d="M159.5,79.9h5.4c3.6,0,5.4,1.5,5.4,4.4c0,1.4-0.4,2.4-1.3,3.1c-0.9,0.7-2,1.1-3.4,1.1h-2.4v3.8h-3.8V79.9z M163.2,82.9v2.6h1.8c1,0,1.6-0.4,1.6-1.3c0-0.9-0.5-1.3-1.6-1.3H163.2z"></path> <path class="st0" d="M179.3,79.9l4.5,12.4H180l-0.6-1.8h-4l-0.6,1.8H171l4.6-12.4H179.3z M178.6,87.8l-0.7-2.1 c-0.2-0.5-0.3-1.1-0.5-1.9c-0.2,0.7-0.4,1.4-0.5,1.9c-0.2,0.6-0.4,1.3-0.7,2.1H178.6z"></path> <path class="st0" d="M187.9,76.5v2.4h-3.1v-2.4H187.9z M190.3,79.9v12.4h-3.8V79.9H190.3z M191.9,76.5v2.4h-3v-2.4H191.9z"></path> <path class="st0" d="M205.3,79.9v12.4h-3.8v-4.9h-3.6v4.9h-3.8V79.9h3.8V84h3.6v-4.2H205.3z"></path> <path class="st0" d="M216.2,79.9l4.5,12.4h-3.8l-0.6-1.8h-4l-0.6,1.8h-3.8l4.6-12.4H216.2z M215.5,87.8l-0.7-2.1 c-0.2-0.5-0.3-1.1-0.5-1.9c-0.2,0.7-0.4,1.4-0.5,1.9c-0.2,0.6-0.4,1.3-0.7,2.1H215.5z"></path> </g> </g> </svg> 