<?xml version="1.0" encoding="UTF-8"?> <!-- Generator: Adobe Illustrator 23.0.2, SVG Export Plug-In . SVG Version: 6.00 Build 0) --> <svg xmlns="http://www.w3.org/2000/svg" xmlns:xlink="http://www.w3.org/1999/xlink" id="Слой_1" x="0px" y="0px" viewBox="0 0 144.9 94.9" style="enable-background:new 0 0 144.9 94.9;" xml:space="preserve"> <style type="text/css"> .st0{fill:#FFFFFF;} </style> <g> <path class="st0" d="M40.5,36.4L40,36.7v-0.2h-0.1l-0.1,0.3l-0.2,0.1v-0.2l0.2-0.2l0,0l-0.2,0.1l0,0c0,0,0,0,0,0.1v-0.6h-0.1v0.6 c0,0,0,0,0-0.1l0,0l-0.1-0.1l0,0l0.2,0.2v0.2l-0.2-0.1l-0.1-0.2h-0.1v0.2l0,0l0,0c0,0,0,0,0,0.1l-0.5-0.3l0,0l0.5,0.3h-0.1 c0,0,0,0-0.1,0L38.8,37v0.1h0.3l0.2,0.1l-0.2,0.1h-0.3v0.1H39l0,0h0.1l-0.4,0.3v0.1l0.4-0.2l0.1-0.1c0,0,0,0,0,0.1h-0.1v0.2h0.1 l0.1-0.3l0.2-0.1v0.2l-0.2,0.2v0.1l0.1-0.1v-0.1v0.6h0.1v-0.6v0.1l0.2,0.1v-0.1l-0.2-0.2v-0.2l0.2,0.1l0.1,0.2h0.1l0.1-0.4l0,0l0,0 v-0.1l0.5,0.2l0,0L40,37.1h0.1l0.2-0.1v-0.1L40,37.1L39.8,37l0.2-0.1h0.3v-0.1l-0.2-0.1l0,0H40L40.5,36.4L40.5,36.4z"></path> <path class="st0" d="M41.4,17.4c0.1,0,0-0.1-0.1-0.4c-0.2-0.2-0.3-0.3-0.3-0.3s0,0.2,0.1,0.4l-0.4,0.2l-0.1,0.1v-0.1h0.1v-0.4l0,0 l0,0L40.2,17l0,0l0,0c0,0.1,0,0.1-0.1,0.1V17v-0.5c0.1,0,0.2,0,0.3,0s0.1,0,0.1-0.1s-0.1-0.1-0.4-0.1c-0.3,0-0.4,0-0.4,0.1 c0,0,0.1,0.1,0.3,0.1v0.6c0,0-0.1,0-0.1-0.1v-0.1l-0.4-0.2l0,0h-0.1v0.4c0,0,0,0,0.1,0c0,0,0.1,0,0.1,0.1l-0.1-0.1l-0.4-0.2 c0.1-0.2,0.2-0.3,0.1-0.4c0,0-0.1,0-0.1,0.1c0,0.2-0.1,0.3-0.1,0.4c-0.1,0.1-0.1,0.2-0.1,0.3c0,0.1,0,0.1,0,0.1H39 c0,0,0.1-0.1,0.1-0.2l0.4,0.2h0.1h-0.1c0,0,0,0-0.1,0l-0.3,0.2v0.1l0.6-0.2l0.3,0.2l-0.3,0.2l-0.6-0.2v0.1l0.4,0.2c0,0,0,0,0.1,0 c0,0,0,0,0.1,0l-0.4,0.3C39,18.1,39,18,38.9,18c0,0.1,0,0.2,0.2,0.4c0.1,0.2,0.2,0.3,0.3,0.3s0-0.2-0.1-0.3l0.4-0.3v0.1l0,0v0.5 h0.1l0,0l0.4-0.2l0,0c0,0,0-0.1,0.1-0.1v0.5c-0.2,0-0.3,0-0.3,0.1s0.1,0.1,0.4,0.1c0.3,0,0.4,0,0.4-0.1c0,0,0-0.1-0.1-0.1 s-0.2,0-0.3,0v-0.5c0,0,0,0,0,0.1l0,0l0.4,0.2l0.1-0.1v-0.5l0,0c0,0,0,0,0-0.1l0.4,0.2C41,18.4,41,18.5,41,18.5c0,0.1,0,0.1,0,0.1 s0.1,0,0.1-0.1s0.1-0.1,0.2-0.2c0.1-0.2,0.2-0.4,0.1-0.4c0,0-0.1,0.1-0.2,0.3L40.7,18h0.1h0.1l0.4-0.2v-0.1l-0.6,0.2l-0.3-0.2 l0.3-0.2l0.5,0.2l0.1-0.1l-0.4-0.2l0.3-0.3C41.3,17.3,41.4,17.4,41.4,17.4z M39.7,18.5l0.1-0.5l0.3-0.2v0.3L39.7,18.5z M40,17.5 l-0.3-0.1l-0.1-0.5l0.4,0.3L40,17.5z M40.5,18.1l0.1,0.5l-0.4-0.3V18L40.5,18.1z M40.5,17.4l-0.3,0.2v-0.3l0.4-0.3L40.5,17.4z M40.8,17.4L40.8,17.4L40.8,17.4L40.8,17.4L40.8,17.4z"></path> <path class="st0" d="M46.7,16.8l0.7,0.4v0.1c0,0,0,0,0-0.1l-0.7-0.1v0.1l0.7,0.1v0.1v0.1c0,0,0,0.1,0.1,0.3L46.6,18v0.1l0.7-0.1 c0,0,0-0.1,0.1-0.1V18l-0.6,0.4c-0.1-0.1-0.2-0.1-0.3-0.1c-0.2,0.1-0.2,0.3-0.1,0.4c0.1,0.1,0.2,0.2,0.4,0.1 c0.1-0.1,0.2-0.2,0.1-0.3l0.6-0.3c0,0,0.1,0,0.1,0.1h-0.1L47,18.8h0.2l0.4-0.6c0.2,0.1,0.3,0.2,0.4,0.2l-0.3,0.7l0.1,0.1l0.3-0.6 v-0.1l0,0h0.1v0.7c-0.1,0-0.2,0.1-0.2,0.2c0,0.2,0.1,0.3,0.2,0.3c0.2,0,0.2-0.1,0.2-0.3c0-0.2-0.1-0.2-0.2-0.2v-0.7h0.1l0,0v0.1 l0.3,0.6l0.1-0.1l-0.3-0.7c0.2,0,0.3-0.1,0.4-0.2l0.4,0.6h0.2L49,18.2c0,0-0.1,0-0.1-0.1H49l0.6,0.3c0,0,0,0.1,0,0.2 s0.1,0.1,0.1,0.1c0.2,0.1,0.3,0.1,0.4-0.1c0-0.1,0-0.1,0-0.2S50,18.3,50,18.2c-0.1-0.1-0.3-0.1-0.3,0.1L49,17.9v-0.1c0,0,0,0,0,0.1 l0.7,0.1l-0.1-0.2H49v-0.1v-0.1c0-0.1,0-0.2,0-0.2l0.7-0.1v-0.1L49,17.3l0,0l0,0l0.6-0.4c0.1,0.1,0.2,0.1,0.3,0 c0.2-0.1,0.2-0.2,0.1-0.4c-0.1-0.1-0.2-0.2-0.4-0.1c-0.1,0.1-0.1,0.2-0.1,0.3L48.9,17l-0.1-0.1h0.1l0.4-0.6h-0.1l-0.4,0.5 c0,0-0.1-0.1-0.2-0.1c-0.1,0-0.1-0.1-0.2-0.1l0.2-0.6l0,0l-0.2,0.7l0,0l0,0l0,0V16c0.1,0,0.2-0.1,0.2-0.2c0-0.2-0.1-0.3-0.2-0.3 c-0.2,0-0.2,0.1-0.2,0.3c0,0.1,0.1,0.2,0.2,0.2v0.7c0,0,0,0-0.1,0l0,0L47.8,16l-0.1,0.1l0.2,0.6c-0.2,0.1-0.3,0.2-0.4,0.3l-0.4-0.6 H47l0.5,0.5V17L46.7,16.8c0.1-0.2,0.1-0.3-0.1-0.4c-0.1-0.1-0.3-0.1-0.3,0.1c-0.1,0.1-0.1,0.3,0.1,0.3 C46.5,16.9,46.6,16.9,46.7,16.8z M48.6,18.3c-0.1,0-0.1,0.1-0.2,0.1l-0.1-0.2v-0.4l0.4,0.2l0.1,0.1C48.7,18.2,48.6,18.2,48.6,18.3z M48.8,18.1L48.8,18.1L48.8,18.1L48.8,18.1z M48.9,17.9L48.9,17.9L48.9,17.9L48.9,17.9z M49,17.3c0,0,0,0.1,0,0.2v0.1v0.1h-0.2 l-0.3-0.2l0.3-0.2H49z M48.9,17.2L48.9,17.2L48.9,17.2L48.9,17.2z M48.8,17.1L48.8,17.1C48.7,17.1,48.8,17,48.8,17.1L48.8,17.1z M48.4,16.7c0.1,0,0.2,0,0.2,0.1s0.1,0.1,0.2,0.1l-0.1,0.2l-0.3,0.2v-0.4L48.4,16.7z M48.2,16.7L48.2,16.7c0.1,0,0.1,0.1,0,0.1 V16.7z M47.6,18.1L47.6,18.1L47.6,18.1L47.6,18.1z M48,18.4c-0.1,0-0.1-0.1-0.2-0.1c-0.1,0-0.1-0.1-0.2-0.1l0.1-0.2l0.3-0.2v0.4 L48,18.4z M48.1,16.7v0.1C48,16.8,48,16.8,48.1,16.7L48.1,16.7z M48,16.7l0.1,0.2v0.4l-0.3-0.2L47.6,17 C47.7,16.8,47.9,16.7,48,16.7z M47.6,17L47.6,17C47.6,17.1,47.6,17.1,47.6,17L47.6,17L47.6,17z M47.4,17.2L47.4,17.2 C47.5,17.3,47.4,17.3,47.4,17.2C47.4,17.3,47.4,17.2,47.4,17.2z M47.6,17.3l0.3,0.2l-0.3,0.2l-0.2,0.1c0-0.1,0-0.2,0-0.3 c0-0.1,0-0.2,0-0.2S47.6,17.3,47.6,17.3z"></path> <path class="st0" d="M65.2,18.1L65.2,18.1H65v0.1L65.2,18.1l0.2,0.2l-0.2,0.1H65v0.1h0.2l0,0h0.1l-0.4,0.3v0.1l0.4-0.2l0.1-0.1 c0,0,0,0,0,0.1h-0.1v0.2h0.1l0.1-0.3l0.2-0.1v0.2l-0.2,0.2V19l0.1-0.1v-0.1v0.6h0.1v-0.5l0.2,0.1v-0.1l-0.2-0.2v-0.2l0.2,0.1 l0.1,0.2h0v-0.3l0,0l0,0v-0.1l0.5,0.2l0,0L66,18.4l0,0l0.2-0.1v-0.1l-0.3,0.1l-0.2-0.1l0.2-0.1h0.3V18L66,18.1l0,0h-0.1l0.5-0.3 v-0.1L66,18h-0.1c0,0,0,0,0-0.1H66v-0.2h-0.1L65.8,18l-0.2,0.1V18l0.2-0.2l0,0l-0.2,0.1l0,0c0,0,0,0,0,0.1v-0.6h-0.1V18 c0,0,0,0,0-0.1l0,0l-0.1-0.1l0,0l0.2,0.2v0.2l-0.2-0.1l-0.1-0.2h-0.1L65.2,18.1L65.2,18.1L65.2,18.1C65.3,18,65.3,18,65.2,18.1 l-0.4-0.3l0,0L65.2,18.1L65.2,18.1z"></path> <path class="st0" d="M64.3,36.9c0,0,0,0.2,0.1,0.4L64,37.5l-0.1,0.1v-0.1H64v-0.4l0,0l0,0l-0.4,0.2v0.1l0,0c0,0.1,0,0.1-0.1,0.1 v-0.1v-0.5c0.1,0,0.2,0,0.3,0s0.1,0,0.1-0.1s-0.1-0.1-0.4-0.1c-0.3,0-0.4,0-0.4,0.1c0,0,0.1,0.1,0.3,0.1v0.6c0,0-0.1,0-0.1-0.1 v-0.1L62.9,37l0,0h-0.1v0.4c0,0,0,0,0.1,0c0,0,0.1,0,0.1,0.1c0,0,0-0.1-0.1-0.1l-0.4-0.2c0.1-0.2,0.2-0.3,0.1-0.4 c0,0-0.1,0-0.1,0.1c-0.1,0.1-0.1,0.1-0.1,0.2c-0.1,0.1-0.1,0.2-0.1,0.3s0,0.1,0,0.1h0.1c0.1-0.1,0.1-0.1,0.1-0.2l0.4,0.2H63h-0.1 c0,0,0,0-0.1,0l-0.3,0.2v0.1l0.6-0.2l0.3,0.2L63.1,38l-0.6-0.2v0.1l0.4,0.2c0,0,0,0,0.1,0c0,0,0,0,0.1,0l-0.4,0.3 c-0.1-0.2-0.2-0.3-0.3-0.3c0,0.1,0,0.2,0.2,0.4c0.1,0.2,0.2,0.3,0.3,0.3s0-0.2-0.1-0.3l0.4-0.3v0.1l0,0v0.5h0.1l0,0l0.4-0.2l0,0 c0,0,0-0.1,0.1-0.1V39c-0.2,0-0.3,0-0.3,0.1s0.1,0.1,0.4,0.1c0.3,0,0.4,0,0.4-0.1c0,0,0-0.1-0.1-0.1s-0.2,0-0.3,0v-0.5 c0,0,0,0,0,0.1l0,0l0.4,0.2l0.1-0.1v-0.5l0,0c0,0,0,0,0-0.1l0.4,0.2c-0.1,0.1-0.1,0.2-0.1,0.2c0,0.1,0,0.1,0,0.1s0.1-0.1,0.3-0.3 c0.1-0.2,0.2-0.4,0.1-0.4c0,0-0.1,0.1-0.2,0.3H64l0,0h0.1l0.4-0.2v-0.1l-0.6,0.2l-0.3-0.2l0.3-0.2l0.5,0.2l0.1-0.1l-0.4-0.2 l0.3-0.2c0.1,0.2,0.2,0.3,0.3,0.2c0.1,0,0-0.1-0.1-0.4C64.4,36.9,64.3,36.8,64.3,36.9z M63,38.7l0.1-0.5l0.3-0.2v0.3L63,38.7z M63.3,37.7L63,37.6L62.9,37l0.4,0.3L63.3,37.7z M63.8,38.2l0.1,0.5l-0.4-0.3v-0.3L63.8,38.2z M63.8,37.5l-0.3,0.2v-0.3l0.4-0.3 L63.8,37.5z M64,37.6L64,37.6L64,37.6L64,37.6L64,37.6z"></path> <path class="st0" d="M73,16.8c0.1-0.1,0.1-0.1,0.1-0.2l0.4,0.2h0.1h-0.1c0,0,0,0-0.1,0L73.2,17v0.1l0.6-0.2l0.3,0.2l-0.3,0.2 l-0.6-0.2v0.1l0.4,0.2c0,0,0,0,0.1,0c0,0,0,0,0.1,0l-0.4,0.3c-0.1-0.2-0.2-0.3-0.3-0.3c0,0.1,0,0.2,0.2,0.4 c0.1,0.2,0.2,0.3,0.3,0.3c0.1,0,0-0.2-0.1-0.3l0.4-0.3v0.1l0,0V18H74l0,0l0.4-0.2l0,0c0,0,0-0.1,0.1-0.1v0.5c-0.2,0-0.3,0-0.3,0.1 s0.1,0.1,0.4,0.1s0.4,0,0.4-0.1c0,0,0-0.1-0.1-0.1s-0.2,0-0.3,0v-0.5c0,0,0,0,0,0.1l0,0L75,18l0.1-0.1v-0.5l0,0c0,0,0,0,0-0.1 l0.4,0.2c-0.1,0.1-0.1,0.2-0.1,0.2v0.1c0,0,0.1,0,0.1-0.1c0.1-0.1,0.1-0.1,0.2-0.2c0.1-0.2,0.2-0.4,0.1-0.4c0,0-0.1,0.1-0.2,0.3 l-0.4-0.2h0.1h0.1l0.4-0.2v-0.1l-0.6,0.2l-0.3-0.2l0.3-0.2l0.5,0.2l0.1-0.1l-0.4-0.2l0.3-0.3c0.1,0.2,0.2,0.3,0.3,0.2 c0.1,0,0-0.1-0.1-0.4c-0.2-0.2-0.3-0.3-0.3-0.3s0,0.2,0.1,0.4l-0.4,0.2l-0.1,0.1v-0.1h0.1V16l0,0l0,0l-0.4,0.2v0.1l0,0 c0,0.1,0,0.1-0.1,0.1v-0.1v-0.5c0.1,0,0.2,0,0.3,0c0.1,0,0.1,0,0.1-0.1s-0.1-0.1-0.4-0.1s-0.4,0-0.4,0.1c0,0,0.1,0.1,0.3,0.1v0.6 c0,0-0.1,0-0.1-0.1v-0.1L74.2,16l0,0h-0.1v0.4c0,0,0,0,0.1,0c0,0,0.1,0,0.1,0.1c0,0,0-0.1-0.1-0.1l-0.4-0.2 c0.1-0.2,0.2-0.3,0.1-0.4c0,0-0.1,0-0.1,0.1s-0.1,0.1-0.1,0.2c-0.1,0.1-0.1,0.2-0.1,0.3c0,0.1,0,0.1,0,0.1 C72.9,16.8,73,16.8,73,16.8z M74.8,16.8L74.8,16.8L74.8,16.8C74.8,16.9,74.8,16.9,74.8,16.8L74.8,16.8z M74.3,16.6l0.4-0.3 l-0.1,0.5L74.3,17V16.6z M74.3,17.3l0.3,0.2l0.1,0.5l-0.4-0.3V17.3z M73.8,17.9l0.1-0.5l0.3-0.2v0.3L73.8,17.9z M74.1,16.6v0.3 l-0.3-0.1l-0.1-0.5L74.1,16.6z"></path> <path class="st0" d="M75.9,36c0.2-0.1,0.2-0.2,0.1-0.4c-0.1-0.1-0.2-0.2-0.4-0.1c-0.1,0.1-0.1,0.2-0.1,0.3l-0.6,0.4l-0.1-0.1h0.1 l0.4-0.6h-0.1L74.8,36c0,0-0.1-0.1-0.2-0.1s-0.1-0.1-0.2-0.1l0.2-0.6l-0.1-0.1l-0.2,0.7l0,0l0,0l0,0v-0.7c0.1,0,0.2-0.1,0.2-0.2 c0-0.2-0.1-0.3-0.2-0.3c-0.2,0-0.2,0.1-0.2,0.3c0,0.1,0.1,0.2,0.2,0.2v0.7c0,0,0,0-0.1,0l0,0l-0.3-0.7l-0.1,0.1l0.2,0.6 c-0.2,0.1-0.3,0.2-0.4,0.3L73,35.6l-0.1,0.1l0.5,0.5v0.1L72.7,36c0-0.1,0-0.2-0.1-0.3s-0.3-0.1-0.3,0.1c-0.1,0.1-0.1,0.3,0.1,0.3 c0.1,0.1,0.2,0.1,0.3,0l0.7,0.4v0.1c0,0,0,0,0-0.1l-0.7-0.1v0.1l0.7,0.1v0.1v0.1c0,0,0,0.1,0.1,0.3l-0.7,0.1v0.1l0.7-0.1 c0,0,0-0.1,0.1-0.1v0.1L73,37.6c-0.1-0.1-0.2-0.1-0.3-0.1c-0.2,0.1-0.2,0.3-0.1,0.4c0.1,0.1,0.2,0.2,0.4,0.1 c0.1-0.1,0.2-0.2,0.1-0.3l0.6-0.3c0,0,0.1,0,0.1,0.1h-0.1L72.9,38h0.2l0.4-0.6c0.2,0.1,0.3,0.2,0.4,0.2l-0.3,0.7l0.1,0.1l0.3-0.6 v-0.1l0,0l0,0v0.7c-0.1,0-0.2,0.1-0.2,0.2c0,0.2,0.1,0.3,0.2,0.3c0.2,0,0.2-0.1,0.2-0.3s-0.1-0.2-0.2-0.2v-0.7h0.1l0,0v0.1l0.3,0.6 l0.1-0.1l-0.3-0.7c0.2,0,0.3-0.1,0.4-0.2L75,38h0.2l-0.4-0.5c0,0-0.1,0-0.1-0.1h0.1l0.6,0.3c0,0,0,0.1,0,0.2c0,0.1,0.1,0.1,0.1,0.1 c0.2,0.1,0.3,0.1,0.4-0.1c0-0.1,0-0.1,0-0.2c0-0.1-0.1-0.1-0.1-0.2c-0.1-0.1-0.3-0.1-0.3,0.1l-0.6-0.4v-0.1c0,0,0,0,0,0.1l0.7,0.1 l-0.1-0.2L75,37v-0.1v-0.1c0-0.1,0-0.2,0-0.2l0.7-0.1v-0.1l-0.7,0l0,0l0,0l0.6-0.4C75.6,36,75.8,36.1,75.9,36z M73.5,36.3 L73.5,36.3L73.5,36.3L73.5,36.3L73.5,36.3z M73.4,36.5L73.4,36.5L73.4,36.5C73.3,36.5,73.3,36.5,73.4,36.5z M73.5,37.3L73.5,37.3 L73.5,37.3L73.5,37.3z M73.3,37.1c0-0.1,0-0.2,0-0.3s0-0.2,0-0.2h0.2l0.3,0.2L73.5,37L73.3,37.1z M73.9,37.6 c-0.1,0-0.1-0.1-0.2-0.1s-0.1-0.1-0.2-0.1l0.1-0.2l0.3-0.2v0.4L73.9,37.6z M74,36.6l-0.3-0.2l-0.1-0.2c0.1-0.1,0.1-0.1,0.2-0.2 c0.1-0.1,0.1-0.1,0.2-0.1l0.1,0.2L74,36.6z M74,36.1C74,36,74,36,74,36.1L74,36.1L74,36.1z M74.9,36.4L74.9,36.4L74.9,36.4 L74.9,36.4z M74.8,36.3L74.8,36.3C74.7,36.3,74.7,36.3,74.8,36.3L74.8,36.3z M74.3,36c0.1,0,0.2,0,0.2,0.1c0.1,0.1,0.1,0.1,0.2,0.1 l-0.1,0.2l-0.3,0.2v-0.4L74.3,36z M74.2,36L74.2,36C74.3,36,74.3,36.1,74.2,36L74.2,36z M74.5,37.5c-0.1,0-0.1,0.1-0.2,0.1 l-0.1-0.2V37l0.4,0.2l0.1,0.1C74.7,37.4,74.6,37.5,74.5,37.5z M74.7,37.3L74.7,37.3L74.7,37.3L74.7,37.3z M74.9,37.1L74.9,37.1 L74.9,37.1L74.9,37.1z M74.9,36.9L74.9,36.9L74.7,37l-0.3-0.2l0.3-0.2h0.2c0,0,0,0.1,0,0.2V36.9z"></path> <path class="st0" d="M90.7,19.5c0.1,0,0.2,0,0.3,0V20c0,0,0,0,0-0.1l0,0l-0.4-0.2l-0.1,0.1v0.5l0,0c0,0,0,0,0,0.1L90,20 c0.1-0.1,0.1-0.2,0.1-0.2v-0.1c0,0-0.1,0-0.1,0.1c-0.1,0.1-0.1,0.1-0.2,0.2c-0.1,0.2-0.2,0.4-0.1,0.4c0,0,0.1-0.1,0.2-0.3l0.4,0.2 h-0.1h-0.1l-0.4,0.2v0.1l0.6-0.2l0.3,0.2l-0.3,0.2L90,20.6l-0.1,0.1l0.4,0.2L90,21.2c-0.1-0.2-0.2-0.3-0.3-0.2 c-0.1,0,0,0.1,0.1,0.4c0.2,0.2,0.3,0.3,0.3,0.3s0-0.2-0.1-0.4l0.4-0.2l0.1-0.1v0.1h-0.1v0.4l0,0l0,0l0.4-0.2v-0.1l0,0 c0-0.1,0-0.1,0.1-0.1v0.1v0.5c-0.1,0-0.2,0-0.3,0c-0.1,0-0.1,0-0.1,0.1s0.1,0.1,0.4,0.1s0.4,0,0.4-0.1c0,0-0.1-0.1-0.3-0.1v-0.6 c0,0,0.1,0,0.1,0.1v0.1l0.4,0.2l0,0h0.1v-0.4c0,0,0,0-0.1,0c0,0-0.1,0-0.1-0.1c0,0,0,0.1,0.1,0.1l0.4,0.2c-0.1,0.2-0.2,0.3-0.1,0.4 c0,0,0.1,0,0.1-0.1c0.1-0.1,0.1-0.1,0.1-0.2c0.1-0.1,0.1-0.2,0.1-0.3c0-0.1,0-0.1,0-0.1H92c0.1,0,0,0,0,0.1l-0.4-0.2h-0.1h0.1 c0,0,0,0,0.1,0l0.3-0.2v-0.1l-0.6,0.2l-0.3-0.2l0.3-0.2l0.6,0.2v-0.1l-0.4-0.2c0,0,0,0-0.1,0c0,0,0,0-0.1,0l0.4-0.3 c0.1,0.2,0.2,0.3,0.3,0.3c0-0.1,0-0.2-0.2-0.4c-0.1-0.2-0.2-0.3-0.3-0.3c-0.1,0,0,0.2,0.1,0.3l-0.4,0.3v-0.1l0,0v-0.5h-0.1l0,0 L91,19.8l0,0c0,0,0,0.1-0.1,0.1v-0.5c0.2,0,0.3,0,0.3-0.1s-0.1-0.1-0.4-0.1s-0.4,0-0.4,0.1C90.5,19.4,90.6,19.4,90.7,19.5z M90.4,20.9L90.4,20.9L90.4,20.9C90.4,20.8,90.4,20.8,90.4,20.9L90.4,20.9z M90.9,21.1l-0.4,0.3l0.1-0.5l0.3-0.2V21.1z M90.9,20.4 l-0.3-0.2l-0.1-0.5l0.4,0.3V20.4z M91.4,19.7l-0.1,0.5L91,20.4v-0.3L91.4,19.7z M91.1,20.8l0.3,0.1l0.1,0.5L91,21.1L91.1,20.8z"></path> <path class="st0" d="M93.2,37.6l-0.7-0.4v-0.1c0,0,0,0,0,0.1l0.7,0.1v-0.1l-0.7-0.1V37v-0.1c0,0,0-0.1-0.1-0.3l0.7-0.1v-0.1 l-0.7,0.1c0,0,0,0.1-0.1,0.1v-0.1l0.6-0.4c0.1,0.1,0.2,0.1,0.3,0.1c0.2-0.1,0.2-0.3,0.1-0.4c-0.1-0.1-0.2-0.2-0.4-0.1 c-0.1,0.1-0.2,0.2-0.1,0.3l-0.6,0.3c0,0-0.1,0-0.1-0.1h0.1l0.4-0.6h-0.2L92,36.2c0.1-0.2,0-0.2-0.1-0.2l0.3-0.7l-0.1-0.1l-0.3,0.6 v0.1l0,0h-0.1v-0.7c0.1,0,0.2-0.1,0.2-0.2c0-0.2-0.1-0.3-0.2-0.3c-0.2,0-0.2,0.1-0.2,0.3s0.1,0.2,0.2,0.2V36h-0.1l0,0v-0.1 l-0.3-0.6l-0.1,0.1l0.3,0.7c-0.2,0-0.3,0.1-0.4,0.2l-0.4-0.6h-0.2l0.4,0.5c0,0,0.1,0,0.1,0.1h-0.1L90.3,36c0,0,0-0.1,0-0.2 c0-0.1-0.1-0.1-0.1-0.1c-0.2-0.1-0.3-0.1-0.4,0.1c0,0.1,0,0.1,0,0.2c0,0.1,0.1,0.1,0.1,0.2c0.1,0.1,0.3,0.1,0.3-0.1l0.6,0.4v0.1 c0,0,0,0,0-0.1l-0.7-0.1l0.1,0.2l0.7,0.1v0.1v0.1c0,0.1,0,0.2,0,0.2l-0.7,0.1v0.1l0.7-0.1l0,0l0,0l-0.6,0.4c-0.1-0.1-0.2-0.1-0.3,0 c-0.2,0.1-0.2,0.2-0.1,0.4c0.1,0.1,0.2,0.2,0.4,0.1c0.1-0.1,0.1-0.2,0.1-0.3l0.6-0.4l0.1,0.1H91L90.5,38h0.1l0.4-0.5 c0,0,0.1,0.1,0.2,0.1s0.1,0.1,0.2,0.1l-0.2,0.6l0.1,0.1l0.2-0.7l0,0l0,0l0,0v0.7c-0.1,0-0.2,0.1-0.2,0.2c0,0.2,0.1,0.3,0.2,0.3 c0.2,0,0.2-0.1,0.2-0.3c0-0.1-0.1-0.2-0.2-0.2v-0.7c0,0,0,0,0.1,0l0,0l0.3,0.7l0.1-0.1l-0.2-0.6c0.2-0.1,0.3-0.2,0.4-0.3l0.4,0.6 l0.1-0.1l-0.5-0.5v-0.1L93.2,37.6c-0.1,0.2-0.1,0.3,0.1,0.4c0.1,0.1,0.3,0.1,0.3-0.1c0.1-0.1,0.1-0.3-0.1-0.3 C93.4,37.5,93.3,37.5,93.2,37.6z M91.3,36.1c0.1,0,0.1-0.1,0.2-0.1l0.1,0.2v0.4l-0.4-0.2l-0.1-0.1C91.1,36.2,91.2,36.2,91.3,36.1z M91,36.3L91,36.3L91,36.3L91,36.3z M90.9,36.5L90.9,36.5L90.9,36.5L90.9,36.5z M90.9,37.1c0,0,0-0.1,0-0.2v-0.1v-0.1h0.2l0.3,0.2 L91.1,37L90.9,37.1z M90.9,37.2L90.9,37.2L90.9,37.2L90.9,37.2z M91,37.3L91,37.3C91.1,37.3,91.1,37.4,91,37.3L91,37.3z M91.5,37.6 c-0.1,0-0.2,0-0.2-0.1s-0.1-0.1-0.2-0.1l0.1-0.2l0.3-0.2v0.4L91.5,37.6z M91.6,37.7L91.6,37.7C91.5,37.7,91.5,37.6,91.6,37.7 L91.6,37.7z M92.3,36.3L92.3,36.3L92.3,36.3L92.3,36.3z M91.9,36c0.1,0,0.1,0.1,0.2,0.1s0.1,0.1,0.2,0.1l-0.1,0.2l-0.3,0.2v-0.4 L91.9,36z M91.8,37.7L91.8,37.7C91.8,37.6,91.8,37.6,91.8,37.7L91.8,37.7z M91.9,37.7l-0.1-0.2v-0.4l0.3,0.2l0.1,0.2 C92.1,37.5,92,37.6,91.9,37.7z M92.3,37.3L92.3,37.3L92.3,37.3L92.3,37.3L92.3,37.3z M92.4,37.2L92.4,37.2 C92.4,37.1,92.4,37.1,92.4,37.2C92.5,37.1,92.5,37.1,92.4,37.2z M92.3,37L92,36.8l0.3-0.2l0.2-0.1c0,0.1,0,0.2,0,0.3s0,0.2,0,0.2 H92.3z"></path> <path class="st0" d="M104.6,37l-0.4,0.2V37h-0.1l-0.1,0.3l-0.2,0.1v-0.2L104,37l0,0l-0.2,0.1l0,0c0,0,0,0,0,0.1v-0.6h-0.1v0.6 c0,0,0,0,0-0.1l0,0l-0.1-0.1l0,0l0.2,0.2v0.2l-0.2-0.1l-0.1-0.2h-0.1v0.2l0,0l0,0c0,0,0,0,0,0.1L103,37l0,0l0.5,0.3h-0.1 c0,0,0,0-0.1,0l-0.2,0.1v0.1h0.3l0.2,0.1l-0.2,0.1h-0.3v0.1h0.2l0,0h0.1L103,38v0.1l0.4-0.2V38h0.1l0.1-0.3l0.2-0.1v0.2l-0.2,0.2 v0.1l0.1-0.1v-0.1v0.6h0.1V38l0.2,0.1V38l-0.2-0.2v-0.2l0.2,0.1l0.1,0.2h0.1l-0.1-0.2l0,0l0,0v-0.1l0.5,0.2l0,0l-0.4-0.2h0.1 l0.2-0.1v-0.1l-0.3,0.1l-0.2-0.1l0.2-0.1h0.3v-0.1l-0.2-0.1l0,0h-0.1L104.6,37L104.6,37z"></path> <path class="st0" d="M103.2,15.5c0.1-0.1,0.1-0.1,0.1-0.2l0.4,0.2h0.1h-0.1c0,0,0,0-0.1,0l-0.3,0.2v0.1l0.6-0.2l0.3,0.2l-0.3,0.2 l-0.6-0.2v0.1l0.4,0.2c0,0,0,0,0.1,0c0,0,0,0,0.1,0l-0.4,0.3c-0.1-0.2-0.2-0.3-0.3-0.3c0,0.1,0,0.2,0.2,0.4 c0.1,0.2,0.2,0.3,0.3,0.3c0.1,0,0-0.2-0.1-0.3l0.4-0.3v0.1l0,0v0.5h0.1l0,0l0.4-0.2l0,0c0,0,0-0.1,0.1-0.1V17c-0.2,0-0.3,0-0.3,0.1 s0.1,0.1,0.4,0.1s0.4,0,0.4-0.1c0,0,0-0.1-0.1-0.1s-0.2,0-0.3,0v-0.5c0,0,0,0,0,0.1l0,0l0.4,0.2l0.1-0.1v-0.5l0,0c0,0,0,0,0-0.1 l0.4,0.2c-0.1,0.1-0.1,0.2-0.1,0.2c0,0.1,0,0.1,0,0.1s0.1,0,0.1-0.1c0.1-0.1,0.1-0.1,0.2-0.2c0.1-0.2,0.2-0.4,0.1-0.4 c0,0-0.1,0.1-0.2,0.3l-0.4-0.2h0.1h0.1l0.4-0.2v-0.1l-0.6,0.2l-0.3-0.2l0.3-0.2l0.5,0.2l0.1-0.1l-0.4-0.2l0.3-0.3 c0.1,0.2,0.2,0.3,0.3,0.2c0.1,0,0-0.1-0.1-0.4c-0.2-0.2-0.3-0.3-0.3-0.3s0,0.2,0.1,0.4l-0.4,0.2l-0.1,0.1v-0.1h0.1v-0.4l0,0l0,0 L105,15v0.1l0,0c0,0.1,0,0.1-0.1,0.1v-0.1v-0.5c0.1,0,0.2,0,0.3,0c0.1,0,0.1,0,0.1-0.1s-0.1-0.1-0.4-0.1s-0.4,0-0.4,0.1 c0,0,0.1,0.1,0.3,0.1v0.6c0,0-0.1,0-0.1-0.1V15l-0.4-0.2l0,0h-0.1v0.4c0,0,0,0,0.1,0c0,0,0.1,0,0.1,0.1l-0.1-0.1l-0.4-0.2 c0.1-0.2,0.2-0.3,0.1-0.4c0,0-0.1,0-0.1,0.1c-0.1,0.1-0.1,0.1-0.1,0.2c-0.1,0.1-0.1,0.2-0.1,0.3c0,0.1,0,0.1,0,0.1 C103.1,15.6,103.2,15.6,103.2,15.5z"></path> <path class="st0" d="M112.6,36.9c0.2-0.1,0.2-0.2,0.1-0.4c-0.1-0.1-0.2-0.2-0.4-0.1c-0.1,0.1-0.1,0.2-0.1,0.3l-0.6,0.4l-0.1-0.1 h0.1l0.4-0.6h-0.1l-0.4,0.5c0,0-0.1-0.1-0.2-0.1s-0.1-0.1-0.2-0.1l0.2-0.6l-0.1-0.1l-0.2,0.7l0,0l0,0l0,0V36c0.1,0,0.2-0.1,0.2-0.2 c0-0.2-0.1-0.3-0.2-0.3c-0.2,0-0.2,0.1-0.2,0.3c0,0.1,0.1,0.2,0.2,0.2v0.7c0,0,0,0-0.1,0l0,0l-0.3-0.7l-0.1,0.1l0.2,0.6 c-0.2,0.1-0.3,0.2-0.4,0.3l-0.4-0.6l-0.1,0.1l0.5,0.5v0.1l-0.7-0.3c0-0.1,0-0.2-0.1-0.3s-0.3-0.1-0.3,0.1c-0.1,0.1-0.1,0.3,0.1,0.3 c0.1,0.1,0.2,0.1,0.3,0l0.7,0.4v0.1c0,0,0,0,0-0.1l-0.7-0.1v0.1l0.7,0.1v0.1v0.1c0,0,0,0.1,0.1,0.3l-0.7,0.1v0.1l0.7-0.1 c0,0,0-0.1,0.1-0.1V38l-0.6,0.4c-0.1-0.1-0.2-0.1-0.3-0.1c-0.2,0.1-0.2,0.3-0.1,0.4c0.1,0.1,0.2,0.2,0.4,0.1 c0.1-0.1,0.2-0.2,0.1-0.3l0.6-0.3c0,0,0.1,0,0.1,0.1H110l-0.4,0.6h0.2l0.4-0.6c0.2,0.1,0.3,0.2,0.4,0.2l-0.3,0.7l0.1,0.1l0.3-0.6 v-0.1l0,0h0.1v0.7c-0.1,0-0.2,0.1-0.2,0.2c0,0.2,0.1,0.3,0.2,0.3c0.2,0,0.2-0.1,0.2-0.3s-0.1-0.2-0.2-0.2v-0.7h0.1l0,0v0.1l0.3,0.6 l0.1-0.1l-0.3-0.7c0.2,0,0.3-0.1,0.4-0.2l0.4,0.6h0.2l-0.4-0.5c0,0-0.1,0-0.1-0.1h0.1l0.6,0.3c0,0,0,0.1,0,0.2 c0,0.1,0.1,0.1,0.1,0.1c0.2,0.1,0.3,0.1,0.4-0.1c0-0.1,0-0.1,0-0.2c0-0.1-0.1-0.1-0.1-0.2c-0.1-0.1-0.3-0.1-0.3,0.1l-0.6-0.4V38 c0,0,0,0,0,0.1l0.7,0.1l-0.1-0.2l-0.7-0.1v-0.1v-0.1c0-0.1,0-0.2,0-0.2l0.7-0.1v-0.1l-0.7,0.1l0,0l0,0l0.6-0.4 C112.3,37,112.4,37,112.6,36.9z M110.2,37.2L110.2,37.2C110.2,37.3,110.2,37.3,110.2,37.2L110.2,37.2L110.2,37.2z M110,37.4 L110,37.4C110.1,37.5,110,37.5,110,37.4L110,37.4z M110.2,38.3L110.2,38.3L110.2,38.3L110.2,38.3z M110,38c0-0.1,0-0.2,0-0.3 s0-0.2,0-0.2h0.2l0.3,0.2l-0.3,0.2L110,38z M110.6,38.5c-0.1,0-0.1-0.1-0.2-0.1s-0.1-0.1-0.2-0.1l0.1-0.2l0.3-0.2v0.4L110.6,38.5z M110.6,37.5l-0.3-0.2l-0.1-0.2c0.1-0.1,0.1-0.1,0.2-0.2c0.1-0.1,0.1-0.1,0.2-0.1l0.1,0.2L110.6,37.5z M110.7,37L110.7,37L110.7,37 L110.7,37z M111.5,37.4L111.5,37.4L111.5,37.4L111.5,37.4z M111.4,37.2L111.4,37.2L111.4,37.2L111.4,37.2z M111,36.9 c0.1,0,0.2,0,0.2,0.1c0.1,0.1,0.1,0.1,0.2,0.1l-0.1,0.2l-0.3,0.2v-0.4L111,36.9z M110.9,36.9L110.9,36.9 C111,36.9,111,37,110.9,36.9L110.9,36.9z M111.2,38.4c-0.1,0-0.1,0.1-0.2,0.1l-0.1-0.2v-0.4l0.4,0.2l0.1,0.1 C111.3,38.4,111.3,38.4,111.2,38.4z M111.4,38.2L111.4,38.2L111.4,38.2L111.4,38.2z M111.5,38.1L111.5,38.1L111.5,38.1L111.5,38.1z M111.6,37.9L111.6,37.9l-0.2,0.1l-0.3-0.2l0.3-0.2h0.2c0,0,0,0.1,0,0.2C111.6,37.8,111.6,37.8,111.6,37.9z"></path> <path class="st0" d="M109.7,15.5c0.1-0.1,0.1-0.1,0.1-0.2l0.4,0.2h0.1h-0.1c0,0,0,0-0.1,0l-0.3,0.2v0.1l0.6-0.2l0.3,0.2l-0.3,0.2 l-0.6-0.2v0.1l0.4,0.2c0,0,0,0,0.1,0c0,0,0,0,0.1,0l-0.4,0.3c-0.1-0.2-0.2-0.3-0.3-0.3c0,0.1,0,0.2,0.2,0.4 c0.1,0.2,0.2,0.3,0.3,0.3c0.1,0,0-0.2-0.1-0.3l0.4-0.3v0.1l0,0v0.5h0.1l0,0l0.4-0.2l0,0c0,0,0-0.1,0.1-0.1V17c-0.2,0-0.3,0-0.3,0.1 s0.1,0.1,0.4,0.1s0.4,0,0.4-0.1c0,0,0-0.1-0.1-0.1s-0.2,0-0.3,0v-0.5c0,0,0,0,0,0.1l0,0l0.4,0.2l0.1-0.1v-0.5l0,0c0,0,0,0,0-0.1 l0.4,0.2c-0.1,0.1-0.1,0.2-0.1,0.2c0,0.1,0,0.1,0,0.1s0.1,0,0.1-0.1c0.1-0.1,0.1-0.1,0.2-0.2c0.1-0.2,0.2-0.4,0.1-0.4 c0,0-0.1,0.1-0.2,0.3l-0.4-0.2h0.1h0.1l0.4-0.2v-0.1l-0.6,0.2l-0.3-0.2l0.3-0.2l0.5,0.2l0.1-0.1l-0.4-0.2l0.3-0.3 c0.1,0.2,0.2,0.3,0.3,0.2c0.1,0,0-0.1-0.1-0.4c-0.2-0.2-0.3-0.3-0.3-0.3s0,0.2,0.1,0.4l-0.4,0.2l-0.1,0.1v-0.1h0.1v-0.4l0,0l0,0 l-0.4,0.2v0.1l0,0c0,0.1,0,0.1-0.1,0.1v-0.1v-0.5c0.1,0,0.2,0,0.3,0c0.1,0,0.1,0,0.1-0.1s-0.1-0.1-0.4-0.1s-0.4,0-0.4,0.1 c0,0,0.1,0.1,0.3,0.1v0.6c0,0-0.1,0-0.1-0.1V15l-0.4-0.2l0,0h-0.1v0.4c0,0,0,0,0.1,0c0,0,0.1,0,0.1,0.1l-0.1-0.1l-0.4-0.2 c0.1-0.2,0.2-0.3,0.1-0.4c0,0-0.1,0-0.1,0.1s-0.1,0.1-0.1,0.2c-0.1,0.1-0.1,0.2-0.1,0.3c0,0.1,0,0.1,0,0.1 C109.6,15.6,109.6,15.6,109.7,15.5z M111.5,15.6L111.5,15.6L111.5,15.6C111.5,15.6,111.4,15.6,111.5,15.6L111.5,15.6z M110.9,15.3 l0.4-0.3l-0.1,0.5l-0.3,0.2V15.3z M110.9,16l0.3,0.2l0.1,0.5l-0.4-0.3V16z M110.4,16.7l0.1-0.5l0.3-0.2v0.3L110.4,16.7z M110.8,15.3v0.3l-0.3-0.1l-0.1-0.5L110.8,15.3z"></path> <path class="st0" d="M121.9,15.6C121.9,15.5,121.9,15.5,121.9,15.6h-0.2v0.1L121.9,15.6l0.2,0.2l-0.2,0.1h-0.3V16h0.2l0,0h0.1 l-0.4,0.3v0.1l0.4-0.2v0.2h0.1l0.1-0.3l0.2-0.1v0l-0.2,0.2v0.1l0.1-0.1v-0.1v0.6h0.1v-0.5l0.2,0.1v-0.1l-0.2-0.2v-0.2l0.2,0.1 l0.1,0.2h0.1l-0.1-0.2l0,0l0,0v-0.1l0.5,0.2l0,0l-0.4-0.2h0.1l0.2-0.1v-0.1l-0.3,0.1l-0.2-0.1l0.2-0.1h0.3v-0.1l-0.2-0.1l0,0h-0.1 l0.5-0.3v-0.1l-0.4,0.2v-0.2h-0.1l-0.1,0.3l-0.2,0.1v-0.2l0.2-0.2l0,0l-0.2,0.1l0,0c0,0,0,0,0,0.1v-0.6h-0.1v0.6c0,0,0,0,0-0.1l0,0 l-0.1-0.1l0,0l0.2,0.2v0.2l-0.2-0.1l-0.1-0.2H122v0.2l0,0l0,0C122,15.4,122,15.5,121.9,15.6l-0.4-0.3l0,0L121.9,15.6L121.9,15.6z"></path> <path class="st0" d="M124.9,17.1l0.7,0.4v0.1c0,0,0,0,0-0.1l-0.7-0.1v0.1l0.7,0.1v0.1v0.1c0,0,0,0.1,0.1,0.3l-0.7,0.1v0.1l0.7-0.1 c0,0,0-0.1,0.1-0.1v0.1l-0.6,0.4c-0.1-0.1-0.2-0.1-0.3-0.1c-0.2,0.1-0.2,0.3-0.1,0.4s0.2,0.2,0.4,0.1c0.1-0.1,0.2-0.2,0.1-0.3 l0.6-0.3c0,0,0.1,0,0.1,0.1h-0.1l-0.4,0.6h0.2l0.4-0.6c0.2,0.1,0.3,0.2,0.4,0.2l-0.3,0.7l0.1,0.1l0.3-0.6v-0.1l0,0h0.1v0.7 c-0.1,0-0.2,0.1-0.2,0.2c0,0.2,0.1,0.3,0.2,0.3c0.2,0,0.2-0.1,0.2-0.3c0-0.2-0.1-0.2-0.2-0.2v-0.7h0.1l0,0v0.1l0.3,0.6l0.1-0.1 l-0.3-0.7c0.2,0,0.3-0.1,0.4-0.2l0.4,0.6h0.2l-0.4-0.5c0,0-0.1,0-0.1-0.1h0.1l0.6,0.3c0,0,0,0.1,0,0.2s0.1,0.1,0.1,0.1 c0.2,0.1,0.3,0.1,0.4-0.1c0-0.1,0-0.1,0-0.2s-0.1-0.1-0.1-0.2c-0.1-0.1-0.3-0.1-0.3,0.1l-0.6-0.4v-0.1c0,0,0,0,0,0.1l0.7,0.1 l-0.1-0.2l-0.7-0.1V18v-0.1c0-0.1,0-0.2,0-0.2l0.7-0.1v-0.1l-0.7,0.1l0,0l0,0l0.6-0.4c0.1,0.1,0.2,0.1,0.3,0 c0.2-0.1,0.2-0.2,0.1-0.4c-0.1-0.1-0.2-0.2-0.4-0.1c-0.1,0.1-0.1,0.2-0.1,0.3l-0.6,0.4l-0.1-0.1h0.1l0.4-0.6h-0.1l-0.4,0.5 c0,0-0.1-0.1-0.2-0.1S127,17,126.9,17l0.2-0.6l-0.1-0.1l-0.2,0.7l0,0l0,0l0,0v-0.7c0.1,0,0.2-0.1,0.2-0.2c0-0.2-0.1-0.3-0.2-0.3 c-0.2,0-0.2,0.1-0.2,0.3c0,0.1,0.1,0.2,0.2,0.2V17c0,0,0,0-0.1,0l0,0l-0.3-0.7l-0.1,0.1l0.2,0.6c-0.2,0.1-0.3,0.2-0.4,0.3l-0.4-0.6 l-0.1,0.1l0.5,0.5v0.1L124.9,17.1c0.1-0.2,0.1-0.3-0.1-0.4c-0.1-0.1-0.3-0.1-0.3,0.1c-0.1,0.1-0.1,0.3,0.1,0.3 C124.7,17.2,124.8,17.2,124.9,17.1z M126.8,18.6c-0.1,0-0.1,0.1-0.2,0.1l-0.1-0.2v-0.4l0.4,0.2l0.1,0.1 C126.9,18.5,126.9,18.5,126.8,18.6z M127,18.4L127,18.4L127,18.4L127,18.4z M127.1,18.2L127.1,18.2L127.1,18.2L127.1,18.2z M127.2,17.6c0,0,0,0.1,0,0.2v0.1V18H127l-0.3-0.2l0.3-0.2H127.2z M127.1,17.5L127.1,17.5L127.1,17.5L127.1,17.5z M127.1,17.4 L127.1,17.4C127,17.4,127,17.3,127.1,17.4L127.1,17.4z M126.6,17.1c0.1,0,0.2,0,0.2,0.1c0.1,0.1,0.1,0.1,0.2,0.1l-0.1,0.2l-0.3,0.2 v-0.4L126.6,17.1z M126.5,17L126.5,17c0.1,0,0.1,0.1,0,0.1V17z M125.8,18.4L125.8,18.4L125.8,18.4L125.8,18.4z M126.2,18.7 c-0.1,0-0.1-0.1-0.2-0.1s-0.1-0.1-0.2-0.1l0.1-0.2l0.3-0.2v0.4L126.2,18.7z M126.3,17v0.1C126.3,17.1,126.2,17.1,126.3,17L126.3,17 z M126.2,17l0.1,0.2v0.4l-0.3-0.2l-0.1-0.2C125.9,17.1,126.1,17,126.2,17z M125.8,17.3L125.8,17.3 C125.8,17.4,125.8,17.4,125.8,17.3L125.8,17.3L125.8,17.3z M125.7,17.5L125.7,17.5C125.7,17.6,125.6,17.6,125.7,17.5 C125.6,17.6,125.6,17.5,125.7,17.5z M125.8,17.6l0.3,0.2l-0.3,0.2l-0.2,0.1c0-0.1,0-0.2,0-0.3c0-0.1,0-0.2,0-0.2 S125.8,17.6,125.8,17.6z"></path> <path class="st0" d="M123.6,36.9c0.2-0.1,0.2-0.2,0.1-0.4c-0.1-0.1-0.2-0.2-0.4-0.1c-0.1,0.1-0.1,0.2-0.1,0.3l-0.6,0.4l-0.1-0.1 h0.1l0.4-0.6h-0.1l-0.4,0.5c0,0-0.1-0.1-0.2-0.1s-0.1-0.1-0.2-0.1l0.2-0.6l-0.1-0.1l-0.2,0.7l0,0l0,0l0,0V36c0.1,0,0.2-0.1,0.2-0.2 c0-0.2-0.1-0.3-0.2-0.3c-0.2,0-0.2,0.1-0.2,0.3c0,0.1,0.1,0.2,0.2,0.2v0.7c0,0,0,0-0.1,0l0,0l-0.3-0.7l-0.1,0.1l0.2,0.6 c-0.2,0.1-0.3,0.2-0.4,0.3l-0.4-0.6l-0.1,0.1l0.5,0.5v0.1l-0.7-0.3c0-0.1,0-0.2-0.1-0.3s-0.3-0.1-0.3,0.1c-0.1,0.1-0.1,0.3,0.1,0.3 c0.1,0.1,0.2,0.1,0.3,0l0.7,0.4v0.1c0,0,0,0,0-0.1l-0.7-0.1v0.1l0.7,0.1v0.1v0.1c0,0,0,0.1,0.1,0.3l-0.7,0.1v0.1l0.7-0.1 c0,0,0-0.1,0.1-0.1V38l-0.6,0.4c-0.1-0.1-0.2-0.1-0.3-0.1c-0.2,0.1-0.2,0.3-0.1,0.4c0.1,0.1,0.2,0.2,0.4,0.1 c0.1-0.1,0.2-0.2,0.1-0.3l0.6-0.3c0,0,0.1,0,0.1,0.1h-0.1l-0.4,0.6h0.2l0.4-0.6c0.2,0.1,0.3,0.2,0.4,0.2l-0.3,0.7l0.1,0.1l0.3-0.6 v-0.1l0,0h0.1v0.7c-0.1,0-0.2,0.1-0.2,0.2c0,0.2,0.1,0.3,0.2,0.3c0.2,0,0.2-0.1,0.2-0.3s-0.1-0.2-0.2-0.2v-0.7h0.1l0,0v0.1l0.3,0.6 l0.1-0.1l-0.3-0.7c0.2,0,0.3-0.1,0.4-0.2l0.4,0.6h0.2l-0.4-0.5c0,0-0.1,0-0.1-0.1h0.1l0.6,0.3c0,0,0,0.1,0,0.2 c0,0.1,0.1,0.1,0.1,0.1c0.2,0.1,0.3,0.1,0.4-0.1c0-0.1,0-0.1,0-0.2c0-0.1-0.1-0.1-0.1-0.2c-0.1-0.1-0.3-0.1-0.3,0.1l-0.6-0.4V38 c0,0,0,0,0,0.1l0.7,0.1l-0.1-0.2l-0.7-0.1v-0.1v-0.1c0-0.1,0-0.2,0-0.2l0.7-0.1v-0.1l-0.7,0.1l0,0l0,0l0.6-0.4 C123.4,37,123.5,37,123.6,36.9z M121.2,37.2L121.2,37.2C121.2,37.3,121.3,37.3,121.2,37.2L121.2,37.2L121.2,37.2z M121.1,37.4 L121.1,37.4C121.1,37.5,121.1,37.5,121.1,37.4L121.1,37.4z M121.2,38.3L121.2,38.3L121.2,38.3L121.2,38.3z M121.1,38 c0-0.1,0-0.2,0-0.3s0-0.2,0-0.2h0.2l0.3,0.2l-0.3,0.2L121.1,38z M121.7,38.5c-0.1,0-0.1-0.1-0.2-0.1s-0.1-0.1-0.2-0.1l0.1-0.2 l0.3-0.2v0.4L121.7,38.5z M121.7,37.5l-0.3-0.2l-0.1-0.2c0.1-0.1,0.1-0.1,0.2-0.2c0.1-0.1,0.1-0.1,0.2-0.1l0.1,0.2L121.7,37.5z M121.8,37L121.8,37L121.8,37L121.8,37z M122.6,37.4L122.6,37.4L122.6,37.4L122.6,37.4z M122.5,37.2L122.5,37.2 C122.4,37.2,122.4,37.2,122.5,37.2L122.5,37.2z M122.1,36.9c0.1,0,0.2,0,0.2,0.1c0.1,0.1,0.1,0.1,0.2,0.1l-0.1,0.2l-0.3,0.2v-0.4 L122.1,36.9z M121.9,36.9L121.9,36.9C122,36.9,122,37,121.9,36.9L121.9,36.9z M122.3,38.4c-0.1,0-0.1,0.1-0.2,0.1l-0.1-0.2v-0.4 l0.4,0.2l0.1,0.1C122.4,38.4,122.3,38.4,122.3,38.4z M122.5,38.2L122.5,38.2L122.5,38.2L122.5,38.2z M122.6,38.1L122.6,38.1 L122.6,38.1L122.6,38.1z M122.7,37.9L122.7,37.9l-0.2,0.1l-0.3-0.2l0.3-0.2h0.2c0,0,0,0.1,0,0.2C122.7,37.8,122.7,37.8,122.7,37.9z "></path> <path class="st0" d="M14.6,38.5l-0.4,0.2v-0.2h-0.1L14,38.8l-0.2,0.1v-0.2l0.2-0.2l0,0l-0.2,0.1l0,0c0,0,0,0,0,0.1v-0.6h-0.1v0.6 c0,0,0,0,0-0.1l0,0l-0.1-0.1l0,0l0.2,0.2v0.2l-0.2-0.1l-0.1-0.2h-0.1v0.2l0,0l0,0c0,0,0,0,0,0.1l-0.5-0.3l0,0l0.5,0.3h-0.1 c0,0,0,0-0.1,0L13,39v0h0.3l0.2,0.1l-0.2,0.1H13v0.1h0.2l0,0h0.1l-0.4,0.3v0.1l0.4-0.2l0.1-0.1c0,0,0,0,0,0.1h-0.1v0.2h0.1l0.1-0.3 l0.2-0.1v0.2l-0.2,0.2v0.1l0.1-0.1v-0.1v0.6h0.1v-0.5l0.2,0.1v-0.1l-0.2-0.2v-0.2l0.2,0.1l0.1,0.2h0.1L14,39.4l0,0l0,0v-0.1 l0.5,0.2l0,0l-0.4-0.2h0.1l0.2-0.1v-0.1l-0.3,0.1L14,39l0.2-0.1h0.3v-0.1l-0.2-0.1l0,0h-0.1L14.6,38.5L14.6,38.5z"></path> <path class="st0" d="M13.5,20.4c0.1-0.1,0.1-0.1,0.1-0.2l0.4,0.2h0.1H14c0,0,0,0-0.1,0l-0.3,0.2v0.1l0.6-0.2l0.3,0.2l-0.3,0.2 l-0.6-0.2v0.1L14,21c0,0,0,0,0.1,0c0,0,0,0,0.1,0l-0.4,0.3c-0.1-0.2-0.2-0.3-0.3-0.3c0,0.1,0,0.2,0.2,0.4c0.1,0.2,0.2,0.3,0.3,0.3 s0-0.2-0.1-0.3l0.4-0.3v0.1l0,0v0.5h0.1l0,0l0.4-0.2l0,0c0,0,0-0.1,0.1-0.1v0.5c-0.2,0-0.3,0-0.3,0.1s0.1,0.1,0.4,0.1 s0.4,0,0.4-0.1c0,0,0-0.1-0.1-0.1s-0.2,0-0.3,0v-0.5c0,0,0,0,0,0.1l0,0l0.4,0.2l0.1-0.1v-0.5l0,0c0,0,0,0,0-0.1l0.4,0.2 c-0.1,0.1-0.1,0.2-0.1,0.2c0,0.1,0,0.1,0,0.1s0.1,0,0.1-0.1c0.1-0.1,0.1-0.1,0.2-0.2c0.1-0.2,0.2-0.4,0.1-0.4c0,0-0.1,0.1-0.2,0.3 L15.3,21h0.1h0.1l0.4-0.2v-0.1l-0.6,0.2L15,20.7l0.3-0.2l0.5,0.2l0.1-0.1l-0.4-0.2l0.3-0.3c0.1,0.2,0.2,0.3,0.3,0.2 c0.1,0,0-0.1-0.1-0.4c-0.2-0.2-0.3-0.3-0.3-0.3s0,0.2,0.1,0.4l-0.4,0.2l-0.1,0.1v-0.1h0.1v-0.4l0,0l0,0L14.8,20l0,0l0,0 c0,0.1,0,0.1-0.1,0.1V20v-0.5c0.1,0,0.2,0,0.3,0s0.1,0,0.1-0.1s-0.1-0.1-0.4-0.1s-0.4,0-0.4,0.1c0,0,0.1,0.1,0.3,0.1v0.6 c0,0-0.1,0-0.1-0.1v-0.1l-0.4-0.2l0,0H14v0.4c0,0,0,0,0.1,0c0,0,0.1,0,0.1,0.1l-0.1-0.1l-0.4-0.2c0.1-0.2,0.2-0.3,0.1-0.4 c0,0-0.1,0-0.1,0.1c-0.1,0.1-0.1,0.1-0.1,0.2c-0.1,0.1-0.1,0.2-0.1,0.3c0,0.1,0,0.1,0,0.1C13.4,20.5,13.5,20.4,13.5,20.4z M15.3,20.4L15.3,20.4L15.3,20.4C15.3,20.5,15.3,20.5,15.3,20.4L15.3,20.4z M14.8,20.2l0.4-0.3l-0.1,0.5l-0.3,0.2 C14.8,20.6,14.8,20.2,14.8,20.2z M14.8,20.9l0.3,0.2l0.1,0.5l-0.4-0.3C14.8,21.3,14.8,20.9,14.8,20.9z M14.3,21.6l0.1-0.5l0.3-0.2 v0.3L14.3,21.6z M14.6,20.2v0.3l-0.3-0.1l-0.1-0.5L14.6,20.2z"></path> <path class="st0" d="M27.8,39c0.2-0.1,0.2-0.2,0.1-0.4c-0.1-0.1-0.2-0.2-0.4-0.1c-0.1,0.1-0.1,0.2-0.1,0.3l-0.6,0.4l-0.1-0.1h0.1 l0.4-0.6h-0.1L26.7,39c0,0-0.1-0.1-0.2-0.1s-0.1-0.1-0.2-0.1l0.2-0.6l-0.1-0.1l-0.2,0.7l0,0l0,0l0,0v-0.7c0.1,0,0.2-0.1,0.2-0.2 c0-0.2-0.1-0.3-0.2-0.3c-0.2,0-0.2,0.1-0.2,0.3c0,0.1,0.1,0.2,0.2,0.2v0.7c0,0,0,0-0.1,0l0,0l-0.3-0.7l-0.1,0.1l0.2,0.6 c-0.2,0.1-0.3,0.2-0.4,0.3l-0.4-0.6L25,38.6l0.5,0.5v0.1l-0.7-0.3c0-0.1,0-0.2-0.1-0.3s-0.3-0.1-0.3,0.1C24,38.8,24,39,24.2,39 c0.1,0.1,0.2,0.1,0.3,0l0.7,0.4v0.1c0,0,0,0,0-0.1l-0.7-0.1v0.1l0.7,0.1v0.1v0.1c0,0,0,0.1,0.1,0.3l-0.7,0.1v0.1l0.7-0.1 c0,0,0-0.1,0.1-0.1v0.1l-0.6,0.4c-0.1-0.1-0.2-0.1-0.3-0.1c-0.2,0.1-0.2,0.3-0.1,0.4c0.1,0.1,0.2,0.2,0.4,0.1 c0.1-0.1,0.2-0.2,0.1-0.3l0.6-0.3c0,0,0.1,0,0.1,0.1h-0.1L24.8,41H25l0.4-0.6c0.2,0.1,0.3,0.2,0.4,0.2l-0.3,0.7l0.1,0.1l0.3-0.6 v-0.1l0,0H26v0.7c-0.1,0-0.2,0.1-0.2,0.2c0,0.2,0.1,0.3,0.2,0.3c0.2,0,0.2-0.1,0.2-0.3s-0.1-0.2-0.2-0.2v-0.7h0.1l0,0v0.1l0.3,0.6 l0.1-0.1l-0.3-0.7c0.2,0,0.3-0.1,0.4-0.2L27,41h0.2l-0.4-0.5c0,0-0.1,0-0.1-0.1h0.1l0.6,0.3c0,0,0,0.1,0,0.2c0,0.1,0.1,0.1,0.1,0.1 c0.2,0.1,0.3,0.1,0.4-0.1c0-0.1,0-0.1,0-0.2c0-0.1-0.1-0.1-0.1-0.2c-0.1-0.1-0.3-0.1-0.3,0.1l-0.6-0.4v-0.1c0,0,0,0,0,0.1l0.7,0.1 l-0.1-0.2L26.8,40v-0.1v-0.1c0-0.1,0-0.2,0-0.2l0.7-0.1v-0.1l-0.7,0.1l0,0l0,0l0.6-0.4C27.5,39,27.6,39,27.8,39z M25.4,39.3 L25.4,39.3L25.4,39.3L25.4,39.3L25.4,39.3z M25.2,39.4L25.2,39.4C25.3,39.5,25.2,39.5,25.2,39.4C25.2,39.5,25.2,39.5,25.2,39.4z M25.4,40.3L25.4,40.3L25.4,40.3L25.4,40.3z M25.2,40.1c0-0.1,0-0.2,0-0.3s0-0.2,0-0.2h0.2l0.3,0.2L25.4,40L25.2,40.1z M25.8,40.6 c-0.1,0-0.1-0.1-0.2-0.1s-0.1-0.1-0.2-0.1l0.1-0.2l0.3-0.2v0.4L25.8,40.6z M25.8,39.5l-0.3-0.2l-0.1-0.2c0.2-0.2,0.3-0.3,0.4-0.3 l0.1,0.2L25.8,39.5z M25.9,39.1L25.8,39L25.9,39.1L25.9,39.1z M26.7,39.4L26.7,39.4L26.7,39.4L26.7,39.4z M26.6,39.3L26.6,39.3 C26.5,39.3,26.6,39.2,26.6,39.3L26.6,39.3z M26.2,39c0.1,0,0.2,0,0.2,0.1c0.1,0.1,0.1,0.1,0.2,0.1l-0.1,0.2l-0.3,0.2v-0.4L26.2,39z M26.1,38.9L26.1,38.9C26.2,38.9,26.2,39,26.1,38.9L26.1,38.9z M26.4,40.5c-0.1,0-0.1,0.1-0.2,0.1l-0.1-0.2V40l0.4,0.2l0.1,0.1 C26.5,40.4,26.5,40.4,26.4,40.5z M26.6,40.3L26.6,40.3L26.6,40.3L26.6,40.3z M26.7,40.1L26.7,40.1L26.7,40.1L26.7,40.1z M26.8,39.9 L26.8,39.9L26.6,40l-0.3-0.2l0.3-0.2h0.2c0,0,0,0.1,0,0.2V39.9z"></path> <path class="st0" d="M37.8,17.6c0.7-1,1.6-1.9,2.4-2.8c0.9-0.8,1.8-1.5,2.9-2L42.8,12l0.1-0.1c0,0,0,0-0.1-0.1v-0.1l0,0 c-0.4-0.3-1.5-0.9-3.8-0.9c-2.2,0-4.1,0.6-5,0.9v-0.1l-0.5,0.3l0,0l0,0l-3.1,1.6c-0.5-0.4-1-0.8-1.6-1.1s-1.2-0.5-1.8-0.7 c-0.9-0.2-1.7-0.2-2.6-0.1c-0.8,0.1-1.6,0.4-2.3,0.9c-0.7,0.4-1.3,1-1.8,1.6c-0.5,0.7-0.9,1.4-1.1,2.3c-0.1,0.5-0.2,1-0.2,1.5 s0,1.1,0.1,1.6s0.3,1,0.6,1.4c0.3,0.4,0.6,0.8,1.1,1.1c0.4,0.2,0.8,0.4,1.2,0.5c0.5,0.1,0.9,0.1,1.3,0c0.3-0.1,0.6-0.2,0.9-0.4 s0.6-0.4,0.9-0.7c0.2-0.3,0.4-0.5,0.6-0.9c0.1-0.3,0.2-0.7,0.2-1c0-0.5-0.2-0.9-0.5-1.1s-0.7-0.3-1.2-0.1c0,0.3,0,0.6,0,0.9 c-0.1,0.3-0.2,0.6-0.4,0.8c-0.3,0.3-0.6,0.6-1,0.7s-0.8,0.1-1.3-0.1c-0.4-0.2-0.8-0.5-1-0.9s-0.3-0.8-0.4-1.3c0-0.5,0-0.9,0.1-1.4 s0.3-0.9,0.5-1.3c0.3-0.5,0.6-1,1.1-1.3c0.4-0.4,0.9-0.6,1.4-0.8c0.5-0.2,1.1-0.3,1.6-0.3c0.6,0,1.1,0.1,1.7,0.4 c0.9,0.4,1.7,1,2.2,1.8l2.1-1.1c-0.6,0.7-1.1,1.4-1.6,2.2c-0.5,0.8-0.9,1.6-1.4,2.5c-0.4,0.9-0.9,1.8-1.3,2.7c-0.3,0.7-0.7,1.3-1,2 l0,0l-0.4,0.7v0.1l0,0L23.8,27l0,0c-0.2,0.3-0.4,0.6-0.5,1l-0.1,0.2l0,0c-0.3,0.6-0.7,1.2-1.1,1.9c-0.7,1.1-1.4,2-2.1,2.8 s-1.5,1.4-2.4,1.8c-0.8,0.4-1.7,0.5-2.6,0.2c-0.5-0.2-0.9-0.5-1.1-1c-0.2-0.5-0.3-1-0.3-1.6s0.1-1.2,0.3-1.7 c0.2-0.6,0.4-1.1,0.7-1.4c0.7-0.8,1.4-1.3,2.2-1.6c0.2-0.1,0.6-0.1,0.9-0.2c0.4-0.1,0.7-0.1,1.1,0c0.4,0,0.7,0.1,1.1,0.2 c0.1,0,0.2,0.1,0.3,0.2l0.3-1.9c-0.1-0.2-0.2-0.3-0.4-0.4c-0.3-0.3-0.7-0.5-1-0.6c-0.8-0.2-1.5-0.1-2.2,0.1s-1.4,0.6-2,1 c-0.6,0.5-1.1,1.1-1.6,1.8c-0.4,0.7-0.8,1.4-1,2.2S12,31.5,12,32.3s0.2,1.5,0.6,2.2c0.4,0.7,0.9,1.2,1.5,1.5s1.4,0.4,2.1,0.4 c0.7,0,1.5-0.1,2.2-0.4c0.7-0.2,1.4-0.5,1.9-0.8c0.7-0.4,1.3-0.8,1.8-1.4c0.5-0.5,1-1.1,1.5-1.7c0.5-0.6,0.9-1.2,1.3-1.8 c0.2-0.3,0.3-0.6,0.5-0.9l3-6l0,0c0.2-0.5,0.5-1,0.7-1.4c0.5-1.1,1-2.3,1.5-3.4c0.4-1,0.8-1.8,1.1-2.5s0.6-1.3,0.9-1.8 s0.6-0.9,0.8-1.1c0.3-0.3,0.6-0.4,0.9-0.5c2.6-0.6,4.9-0.4,6.2-0.1c-0.6,0.3-1.2,0.6-1.7,1c-1.2,0.9-2.4,2-3.4,3.2 s-1.9,2.5-2.8,3.9c-0.3,0.5-0.6,1-0.8,1.5L29,28.7c-0.2,0.7-0.3,1.5-0.4,2.2c-0.1,1.1,0,2.2,0.4,3.2c0.2,0.6,0.6,1.1,1,1.5 c0.4,0.3,0.8,0.5,1.2,0.6c0.4,0.1,0.8,0,1.1-0.1c0.3-0.2,0.5-0.4,0.5-0.7c-0.7-0.1-1.2-0.5-1.4-1c-0.3-0.5-0.4-1.1-0.4-1.8 s0.1-1.4,0.4-2.2c0.2-0.6,0.4-1.2,0.6-1.8v-0.1l0.1-0.2c0-0.1,0.1-0.2,0.1-0.4l0,0l0.6-1.3c0,0,0,0-0.1,0c0.3-0.6,0.6-1.2,0.8-1.7 c0-0.1,0.1-0.1,0.1-0.2l0,0l0,0c0.2-0.4,0.4-0.8,0.5-1c0.5-1,1-2,1.7-3.1C36.4,19.6,37,18.6,37.8,17.6z"></path> <path class="st0" d="M54.8,16.8l0.7,0.4v0.1c0,0,0,0,0-0.1l-0.7-0.1v0.1l0.7,0.1v0.1v0.1c0,0,0,0.1,0.1,0.3L54.8,18v0.1l0.7-0.1 c0,0,0-0.1,0.1-0.1V18L55,18.4c-0.1-0.1-0.2-0.1-0.3-0.1c-0.2,0.1-0.2,0.3-0.1,0.4c0.1,0.1,0.2,0.2,0.4,0.1 c0.1-0.1,0.2-0.2,0.1-0.3l0.6-0.3c0,0,0.1,0,0.1,0.1h-0.1l-0.4,0.6h0.2l0.4-0.6c0.2,0.1,0.3,0.2,0.4,0.2L56,19.2l0.1,0.1l0.3-0.6 v-0.1l0,0h0.1v0.7c-0.1,0-0.2,0.1-0.2,0.2c0,0.2,0.1,0.3,0.2,0.3c0.2,0,0.2-0.1,0.2-0.3c0-0.2-0.1-0.2-0.2-0.2v-0.7h0.1l0,0v0.1 l0.3,0.6l0.1-0.1l-0.3-0.7c0.2,0,0.3-0.1,0.4-0.2l0.4,0.6h0.2l-0.4-0.5c0,0-0.1,0-0.1-0.1h0.1l0.6,0.3c0,0,0,0.1,0,0.2 s0.1,0.1,0.1,0.1c0.2,0.1,0.3,0.1,0.4-0.1c0-0.1,0-0.1,0-0.2s-0.1-0.1-0.1-0.2c-0.1-0.1-0.3-0.1-0.3,0.1l-0.6-0.4V18c0,0,0,0,0,0.1 l0.7,0.1L58,18l-0.7-0.1v-0.1v-0.1c0-0.1,0-0.2,0-0.2l0.7-0.1v-0.1l-0.7,0.1l0,0l0,0l0.6-0.4c0.1,0.1,0.2,0.1,0.3,0 c0.2-0.1,0.2-0.2,0.1-0.4c-0.1-0.1-0.2-0.2-0.4-0.1c-0.1,0.1-0.1,0.2-0.1,0.3L57.1,17L57,16.9h0.1l0.4-0.6h-0.1L57,16.8 c0,0-0.1-0.1-0.2-0.1c-0.1,0-0.1-0.1-0.2-0.1l0.2-0.6l-0.1,0l-0.2,0.7l0,0l0,0l0,0V16c0.1,0,0.2-0.1,0.2-0.2c0-0.2-0.1-0.3-0.2-0.3 c-0.2,0-0.2,0.1-0.2,0.3c0,0.1,0.1,0.2,0.2,0.2v0.7c0,0,0,0-0.1,0l0,0L55.9,16l-0.1,0.1l0.2,0.6c-0.2,0.1-0.3,0.2-0.4,0.3l-0.4-0.6 l-0.1,0.1l0.5,0.5l0,0L54.8,16.8c0.1-0.2,0.1-0.3-0.1-0.4c-0.1-0.1-0.3-0.1-0.3,0.1c-0.1,0.1-0.1,0.3,0.1,0.3 C54.6,16.9,54.7,16.9,54.8,16.8z M56.7,18.3c-0.1,0-0.1,0.1-0.2,0.1l-0.1-0.2v-0.4l0.4,0.2l0.1,0.1C56.8,18.2,56.8,18.2,56.7,18.3z M56.9,18.1L56.9,18.1L56.9,18.1L56.9,18.1z M57.1,17.9L57.1,17.9L57.1,17.9L57.1,17.9z M57.1,17.3c0,0,0,0.1,0,0.2v0.1v0.1h-0.2 l-0.3-0.2l0.3-0.2H57.1z M57.1,17.2L57.1,17.2L57.1,17.2L57.1,17.2z M57,17.1L57,17.1C56.9,17.1,56.9,17,57,17.1L57,17.1z M56.5,16.7c0.1,0,0.2,0,0.2,0.1s0.1,0.1,0.2,0.1l-0.1,0.2l-0.3,0.2v-0.4L56.5,16.7z M56.4,16.7L56.4,16.7c0.1,0,0.1,0.1,0,0.1 V16.7z M55.7,18.1L55.7,18.1L55.7,18.1L55.7,18.1z M56.1,18.4c-0.1,0-0.1-0.1-0.2-0.1c-0.1,0-0.1-0.1-0.2-0.1l0.1-0.2l0.3-0.2v0.4 L56.1,18.4z M56.2,16.7v0.1C56.2,16.8,56.2,16.8,56.2,16.7L56.2,16.7z M56.1,16.7l0.1,0.2v0.4l-0.3-0.2L55.7,17 C55.9,16.8,56,16.7,56.1,16.7z M55.7,17L55.7,17C55.7,17.1,55.7,17.1,55.7,17L55.7,17L55.7,17z M55.6,17.2L55.6,17.2 C55.6,17.3,55.5,17.3,55.6,17.2C55.5,17.3,55.5,17.2,55.6,17.2z M55.7,17.3l0.3,0.2l-0.3,0.2l-0.2,0.1c0-0.1,0-0.2,0-0.3 c0-0.1,0-0.2,0-0.2S55.7,17.3,55.7,17.3z"></path> <path class="st0" d="M84.2,34.1c0,0,0,0.2,0.1,0.4l-0.4,0.2l-0.1,0.1v-0.1h0.1v-0.4l0,0l0,0l-0.4,0.2v0.1l0,0c0,0.1,0,0.1-0.1,0.1 v-0.1v-0.5c0.1,0,0.2,0,0.3,0c0.1,0,0.1,0,0.1-0.1s-0.1-0.1-0.4-0.1S83,33.9,83,34c0,0,0.1,0.1,0.3,0.1v0.6c0,0-0.1,0-0.1-0.1v-0.1 l-0.4-0.2l0,0h-0.1v0.4c0,0,0,0,0.1,0c0,0,0.1,0,0.1,0.1l-0.1-0.1l-0.4-0.2c0.1-0.2,0.2-0.3,0.1-0.4c0,0-0.1,0-0.1,0.1 c-0.1,0.1-0.1,0.1-0.1,0.2c-0.1,0.1-0.1,0.2-0.1,0.3s0,0.1,0,0.1h0.1c0.1-0.1,0.1-0.1,0.1-0.2l0.4,0.2h0.1h-0.1c0,0,0,0-0.1,0 L82.3,35v0.1l0.6-0.2l0.3,0.2l-0.3,0.2l-0.6-0.2v0.1l0.4,0.2c0,0,0,0,0.1,0c0,0,0,0,0.1,0l-0.4,0.3c-0.1-0.2-0.2-0.3-0.3-0.3 c0,0.1,0,0.2,0.2,0.4c0.1,0.2,0.2,0.3,0.3,0.3c0.1,0,0-0.2-0.1-0.3l0.4-0.3v0.1l0,0V36h0.1l0,0l0.4-0.2l0,0c0,0,0-0.1,0.1-0.1v0.5 c-0.2,0-0.3,0-0.3,0.1s0.1,0.1,0.4,0.1s0.4,0,0.4-0.1c0,0,0-0.1-0.1-0.1s-0.2,0-0.3,0v-0.5c0,0,0,0,0,0.1l0,0l0.4,0.2l0.1-0.1v-0.5 l0,0c0,0,0,0,0-0.1l0.4,0.2c-0.1,0.1-0.1,0.2-0.1,0.2v0.1c0,0,0.1,0,0.1-0.1c0.1-0.1,0.1-0.1,0.2-0.2c0.1-0.2,0.2-0.4,0.1-0.4 c0,0-0.1,0.1-0.2,0.3l-0.4-0.2H84h0.1l0.4-0.2v-0.1l-0.6,0.2l-0.3-0.2l0.3-0.2l0.5,0.2l0.1-0.1l-0.5,0l0.3-0.2 c0.1,0.2,0.2,0.3,0.3,0.2c0.1,0,0-0.1-0.1-0.4C84.3,34.1,84.2,34,84.2,34.1z M82.9,35.9l0.1-0.5l0.3-0.2v0.3L82.9,35.9z M83.2,34.9 l-0.3-0.1l-0.1-0.5l0.4,0.3V34.9z M83.8,35.4l0.1,0.5l-0.4-0.3v-0.3L83.8,35.4z M83.7,34.8L83.4,35v-0.3l0.4-0.3L83.7,34.8z M84,34.8L84,34.8L84,34.8L84,34.8L84,34.8z"></path> <path class="st0" d="M81.5,15.6L81.5,15.6h-0.2v0.1L81.5,15.6l0.2,0.2l-0.2,0.1h-0.3V16h0.2l0,0h0.1l-0.4,0.3v0.1l0.4-0.2l0.1-0.1 c0,0,0,0,0,0.1h-0.1v0.2h0.1l0.1-0.3l0.2-0.1v0.2l-0.2,0.2v0.1l0.1-0.1v-0.1v0.6H82v-0.5l0.2,0.1v-0.1L82,16.1v-0.2l0.2,0.1 l0.1,0.2h0.1L82.3,16l0,0l0,0l0,0l0.5,0.2l0,0L82.4,16h0.1l0.2-0.1v-0.1l-0.3,0.1l-0.2-0.1l0.2-0.1h0.3v-0.1l-0.2-0.1l0,0h-0.1 l0.5-0.3v-0.1l-0.4,0.2l-0.1,0.1c0,0,0,0,0-0.1h0.1v-0.2h-0.1l-0.1,0.3L82,15.6v-0.2l0.2-0.2l0,0L82,15.3l0,0c0,0,0,0,0,0.1v-0.6 h-0.1v0.6c0,0,0,0,0-0.1l0,0l-0.1-0.1l0,0l0.2,0.2v0.2l-0.2-0.1l-0.1-0.2h-0.1v0.2l0,0l0,0C81.6,15.5,81.6,15.5,81.5,15.6l-0.4-0.3 l0,0L81.5,15.6L81.5,15.6z"></path> <path class="st0" d="M130.3,27.6c-0.5,1.2-1.1,2.1-1.6,2.8s-1,1.1-1.4,1.1c-0.1,0-0.2-0.1-0.2-0.2c0-0.2,0.1-0.5,0.3-0.9 s0.6-1.1,1-1.9c0.5-0.8,1.1-1.9,1.8-3.2c0.2-0.4,0.4-0.8,0.4-1.1c0.1-0.4,0-0.7,0-0.9s-0.2-0.5-0.4-0.6s-0.4-0.2-0.7-0.2 c-0.8,0-1.8,0.5-2.9,1.5c0-0.5,0-0.8-0.2-1.1c-0.2-0.3-1.4-1.7-4.5,1.1c-0.8,0.8-1.6,1.5-1.6,1.5l0,0c-1,0.9-2.2,2.5-3,4.1 c-0.9,1.3-1.8,2.6-2.3,2.6s-0.9-0.4-1.3-0.9c0.1-0.1,0.1-0.1,0.2-0.2c0.7-0.8,1.4-1.6,2-2.6l-0.7-0.7c-0.4,0.6-0.8,1.2-1.3,1.8 c-0.5,0.5-1.1,1-1.6,1.3c-0.6,0.3-1.1,0.6-1.6,0.7c-0.5,0.1-1,0.1-1.3-0.1c-0.4-0.2-0.6-0.5-0.7-1.1c-0.1-0.5,0-1.1,0.2-1.8 c0.2,0.4,0.5,0.6,0.9,0.7c0.4,0.1,0.9,0.1,1.4,0s1-0.4,1.6-0.8c0.5-0.4,1-0.9,1.5-1.6c0.3-0.5,0.6-1,0.7-1.4 c0.1-0.5,0.2-0.9,0.2-1.4c0-0.4-0.1-0.8-0.3-1.1s-0.4-0.6-0.7-0.7c-0.4-0.2-0.8-0.2-1.4-0.2c-0.6,0.1-1.2,0.3-1.9,0.7 c-0.7,0.4-1.3,1-2,1.8s-1.3,1.8-1.9,3c0,0.1-0.1,0.1-0.1,0.2c-0.5,1.1-1,2-1.5,2.7s-0.9,1-1.3,1c-0.3,0-0.4-0.2-0.3-0.5 c0.1-0.4,0.3-0.9,0.7-1.6l3.2-6.9H105c0,0-3.2-1.3-5.2,0.7c-1,1-1.9,2.9-0.1,3.9c-0.6,0.2-1.3,0.5-1.9,1.1c-2,2-3,7-5,5H93l2.8-6.6 c0-0.1,0.1-0.2,0.1-0.3c0.6-1.3,0.7-2.4,0.4-3.1c-0.3-0.7-0.9-1.1-1.8-1.1c-0.6,0-1.2,0.2-1.9,0.6c-0.7,0.4-1.3,1-2,1.7 s-1.3,1.5-1.8,2.3c-0.6,0.9-1.1,1.7-1.5,2.6c-0.6,0.2-1.3,0.4-2,0.7c-0.4,0.2-0.7,0.3-1.1,0.5c0.4-0.5,0.8-1,1.1-1.6 c0.5-0.9,0.9-1.8,1.1-2.7l0.4-1.4c0-0.3,0.1-0.6,0.1-0.9s0-0.6-0.1-0.8c-0.1-0.3-0.2-0.5-0.3-0.7c-0.1-0.2-0.4-0.3-0.6-0.3 c2.2-2.8,3.6-5.1,4.3-6.9c0.7-1.8,0.6-2.9-0.1-3.3c-0.5-0.3-1.1-0.2-1.7,0.1c-0.7,0.4-1.4,1-2.3,2s-1.7,2.1-2.6,3.6s-1.8,3.1-2.7,5 C80,24.3,79.4,25.7,79,27c-0.1,0.2-0.1,0.4-0.2,0.6l0,0c-0.5,1.2-1,2.1-1.5,2.7c-0.5,0.7-0.9,1-1.3,1c-0.3,0-0.4-0.2-0.3-0.5 c0.1-0.4,0.3-0.9,0.7-1.6l0.1-0.1l3.1-6.7h-2.5L77,22.6c-0.1-0.2-0.3-0.4-0.6-0.6c-0.4-0.2-0.8-0.2-1.3-0.1s-1.1,0.4-1.6,0.8 c-0.6,0.4-1.2,1.1-1.8,1.8c-0.6,0.8-1.2,1.8-1.8,3c0,0.1-0.1,0.1-0.1,0.2c-0.5,0.9-1.1,1.8-2,2.5c-0.9,0.8-2,1.3-3.1,1.6 c0.6-0.4,1.2-1,1.9-1.7c0.6-0.7,1.2-1.5,1.7-2.5c0.3-0.6,0.6-1.2,0.8-1.8c0.2-0.6,0.3-1.2,0.3-1.7s0-0.9-0.1-1.3S69,22.2,68.7,22 c-0.4-0.3-0.9-0.3-1.4-0.2c-0.5,0.1-1,0.4-1.6,0.8l0.2-0.4h-2.5L60.5,28c-0.5,0.9-0.9,1.6-1.5,2.2c-0.6,0.7-1.3,1.3-1.9,1.7 c0-0.2,0-0.4,0-0.5l2.9-5.6l0,0c0.2-0.3,0.3-0.5,0.4-0.8l0,0l0,0c0.1-0.3,0.2-0.7,0.2-1c0-0.6-0.2-1.1-0.7-1.6 c-0.4-0.3-0.8-0.5-1.4-0.5c-0.6,0-1.2,0.2-1.9,0.6s-1.4,1.1-2.2,1.9c-0.7,0.8-1.4,1.9-2,3.3c-0.1,0.2-0.2,0.4-0.3,0.6 c-0.4,0.8-0.9,1.5-1.4,2.1c-0.6,0.7-1.3,1.3-1.9,1.7c0-0.8-0.1-1.5-0.5-2s-0.8-0.9-1.5-1.1l0.9-0.1c0.8-0.3,1.6-0.7,2.3-1.2 s1.2-1.1,1.6-1.8c0.4-0.6,0.6-1.2,0.7-1.9c0-0.6-0.2-1.1-0.7-1.6c-0.4-0.3-0.8-0.5-1.4-0.5c-0.6,0-1.2,0.2-1.9,0.6 s-1.4,1.1-2.2,1.9c-0.2,0.2-0.3,0.4-0.5,0.7c-0.3,0.2-0.6,0.4-1,0.5c-0.5,0.2-1,0.3-1.5,0.3c0.2-0.7,0.2-1.3,0-1.8 s-0.6-0.7-1.1-0.7s-0.8,0.2-1.1,0.5s-0.4,0.6-0.5,1s0,0.8,0.2,1.2c0.2,0.4,0.5,0.7,0.9,0.9l-0.3,0.7c-0.2,0.5-0.5,1.1-0.9,1.6 c-0.3,0.5-0.7,0.9-1,1.3c-0.4,0.4-0.7,0.6-1,0.8s-0.6,0.2-0.8,0.1c-0.4-0.2-0.6-0.7-0.6-1.4s0.2-1.5,0.7-2.5c0.5-1.1,1-2,1.6-2.7 c0.5-0.7,1-1.1,1.5-1.4s0.9-0.4,1.4-0.4c0.4,0,0.8,0.2,1.1,0.4c0-0.3-0.1-0.5-0.3-0.7s-0.4-0.4-0.6-0.5c-0.5-0.2-1-0.2-1.6-0.1 s-1.2,0.4-1.9,0.9s-1.3,1.1-2,2c-0.7,0.8-1.3,1.9-1.9,3.1c-0.6,1.3-0.9,2.4-0.8,3.4c0.1,1,0.5,1.6,1.2,1.9c0.6,0.3,1.3,0.3,2,0.1 s1.3-0.6,2-1.1c0.6-0.5,1.2-1.2,1.8-2c0.5-0.8,1-1.5,1.4-2.3c0.1-0.2,0.1-0.3,0.2-0.5c0.1-0.1,0.1-0.3,0.2-0.5 c0.5,0,1.1-0.2,1.7-0.3c0.1,0,0.1-0.1,0.2-0.1c-0.3,0.5-0.5,0.9-0.8,1.5l0.7,0.7c0.6-1.3,1.2-2.2,1.7-2.9c0.6-0.7,1.1-1.2,1.5-1.4 c0.5-0.3,0.8-0.4,1.2-0.4c0.3,0,0.6,0.1,0.7,0.2c0.2,0.2,0.2,0.6,0.1,1c-0.2,0.4-0.5,0.9-0.9,1.3s-0.9,0.8-1.5,1.2 c-0.6,0.3-1.2,0.5-1.7,0.5l-0.4,0.8c0.3,0.1,0.6,0.3,0.8,0.6s0.3,0.7,0.3,1.1s0,0.9-0.1,1.4s-0.3,1-0.6,1.6 c-0.6,0.2-1.1,0.5-1.6,0.7s-1,0.5-1.4,0.8s-0.8,0.6-1.1,0.9c-0.3,0.3-0.6,0.7-0.8,1.1c-0.2,0.5-0.3,1-0.2,1.4s0.4,0.8,0.8,1.1 c0.5,0.4,1.1,0.5,1.7,0.4c0.6-0.1,1.2-0.3,1.8-0.8c0.6-0.4,1.2-1,1.7-1.8s1-1.6,1.4-2.7c0.1-0.2,0.2-0.5,0.3-0.7s0.2-0.4,0.2-0.7 c0.9-0.5,1.7-1.2,2.6-2c0.5-0.5,0.9-1,1.2-1.5c0.1,0.1,0.2,0.1,0.3,0.2c1.4,0.7,2.8-0.1,3.5-0.6L56,30.2l-0.7,1.3l-1.2,2.1l0,0 c0,0.1-0.1,0.2-0.1,0.3c-0.6,0.2-1.1,0.5-1.6,0.7s-1,0.5-1.4,0.8s-0.8,0.6-1.1,0.9c-0.2,0.2-0.4,0.4-0.5,0.6h-0.1l0,0 c-0.1,0.1-0.2,0.2-0.2,0.4c-0.1,0.1-0.1,0.3-0.2,0.4l-0.3-0.2c0.1-0.2,0.2-0.3,0.1-0.4c0,0-0.1,0-0.1,0.1c-0.1,0.1-0.1,0.1-0.1,0.2 c-0.1,0.1-0.1,0.2-0.1,0.3s0,0.1,0,0.1h0.1c0.1-0.1,0.1-0.1,0.1-0.2l0.3,0.2c0,0.1,0,0.1,0,0.2l-0.2,0.2v0.1l0.2-0.1 c0,0.1,0,0.1,0,0.2l-0.2-0.1v0.1l0.3,0.2c0,0.1,0,0.1,0,0.2l-0.2,0.1c-0.1-0.2-0.2-0.3-0.3-0.3c0,0.1,0,0.2,0.2,0.4 c0.1,0.2,0.2,0.3,0.3,0.3s0-0.2-0.1-0.3l0.2-0.1c0,0.1,0.1,0.3,0.2,0.4l0,0l0,0c0.1,0.1,0.1,0.2,0.2,0.3l0,0l0,0 c0.1,0.1,0.2,0.2,0.4,0.3c0.5,0.4,1.1,0.5,1.7,0.4c0.6-0.1,1.2-0.3,1.8-0.8c0.6-0.4,1.2-1,1.7-1.8s1-1.6,1.4-2.7 c0.1-0.2,0.2-0.5,0.3-0.7s0.2-0.4,0.2-0.7c0.6-0.3,1.1-0.7,1.7-1.2L56.1,38H57l-0.1,0.1v0.1l0.5-0.2h0.1l0.2,0.2l-0.3,0.2l-0.6-0.2 v0.1l0.4,0.2c0,0,0,0,0.1,0c0,0,0,0,0.1,0L57,38.4c-0.1-0.2-0.2-0.3-0.3-0.3c0,0.1,0,0.2,0.2,0.4c0.1,0.2,0.2,0.3,0.3,0.3 s0-0.2-0.1-0.3l0.4-0.3v0.1l0,0v0.5h0.1l0,0l0.4-0.2l0,0c0,0,0-0.1,0.1-0.1V39c-0.2,0-0.3,0-0.3,0.1s0.1,0.1,0.4,0.1 c0.3,0,0.4,0,0.4-0.1c0,0,0-0.1-0.1-0.1s-0.2,0-0.3,0v-0.5c0,0,0,0,0,0.1l0,0l0.4,0.2l0.1-0.1v-0.5l0,0c0,0,0,0,0-0.1l0.4,0.2 C59,38.4,59,38.5,59,38.5v0.1c0,0,0.1-0.1,0.3-0.3c0.1-0.2,0.2-0.4,0.1-0.4c0,0-0.1,0.1-0.2,0.3L58.8,38h0.1H59l0.4-0.2v-0.1 l-0.6,0.2l-0.3-0.2l0.2-0.2h0.1l0,0l0.5,0.2l0.1-0.1L59,37.4l0.3-0.2c0.1,0.2,0.2,0.3,0.3,0.2c0.1,0,0-0.1-0.1-0.4 c-0.5,0-0.6,0-0.6-0.1l4.1-8.8l0.1-0.1c0.2-0.6,0.5-1.1,0.9-1.7s0.7-1.1,1.1-1.6s0.7-0.8,1-1.1c0.3-0.3,0.5-0.4,0.7-0.3 c0.1,0.1,0.2,0.3,0.2,0.6c0,0.3-0.1,0.7-0.2,1.1s-0.3,0.9-0.5,1.4s-0.4,1-0.7,1.5c-0.2,0.5-0.5,1.1-0.8,1.6s-0.6,1-0.9,1.4 c-0.3,0.4-0.6,0.7-0.9,0.9c-0.3,0.2-0.5,0.3-0.7,0.2c-0.1,0-0.2-0.1-0.2-0.2S62,31.7,62,31.7l-0.8,1c0,0.1,0.1,0.1,0.2,0.2 c0.1,0.1,0.2,0.2,0.4,0.3s0.3,0.1,0.5,0.2c0.2,0,0.4,0.1,0.6,0c0.7,0.1,1.4,0,2.2-0.2c0.8-0.2,1.5-0.6,2.2-1 c0.6-0.4,1.2-0.8,1.7-1.4c0,0.1,0,0.2,0,0.3c0,1,0.2,1.7,0.7,2s1.1,0.4,1.8,0.1c0.6-0.3,1.3-0.7,1.9-1.3c0.1,1,0.6,1.4,1.6,1.4 s1.8-0.4,2.6-1.3c0.4-0.4,0.7-0.9,1.1-1.5c0,0.7,0.1,1.3,0.3,1.7c0.2,0.5,0.5,0.8,0.9,0.9c0.6,0.2,1.2,0.1,1.9-0.2 c0.7-0.3,1.4-0.8,2.1-1.5c0,0,0-0.1,0.1-0.1l0.2,0.5c0.3-0.2,0.7-0.5,1.3-0.7c0.6-0.3,1.2-0.5,1.8-0.7c-0.1,0.3-0.1,0.6-0.2,1 c-0.1,0.3-0.1,0.6,0,0.9c0.1,0.3,0.2,0.5,0.3,0.7c0.2,0.2,0.4,0.3,0.8,0.3s0.7-0.1,1-0.4c0.3-0.3,0.5-0.6,0.7-1 c0.1-0.4,0.2-0.8,0.2-1.2s-0.2-0.8-0.4-1c0.2-0.5,0.5-1.1,0.8-1.7c0.4-0.7,0.7-1.3,1.1-1.9s0.8-1.1,1.1-1.5 c0.4-0.4,0.7-0.6,0.9-0.6c0.4,0,0.5,0.2,0.5,0.6s-0.2,1-0.5,1.7l-3,6.7h2.3c0,0,2,3,4,1s3-6,4-6s1.1,0,1.1,0l0,0l-0.4,0.9l-0.1,0.2 c-0.6,1.3-0.9,2.4-0.7,3.1c0.2,0.7,0.7,1.1,1.6,1.1s1.8-0.4,2.6-1.3c0.3-0.3,0.6-0.7,0.9-1.1l0,0c0,0.5,0.2,0.9,0.4,1.3 c0.2,0.4,0.5,0.7,0.8,0.9c0.6,0.4,1.3,0.5,2.1,0.5c0.8-0.1,1.6-0.4,2.4-0.8c0.5-0.3,1-0.7,1.5-1.1l0.9,1.4c2.9,2.9,6.6-4.7,6.8-5.1 c0.2-0.4,0.4-0.7,0.6-1.1c0.5-0.8,0.9-1.4,1.3-1.8c0.4-0.5,0.7-0.7,0.9-0.7c0.4,0,0.3,0.7-0.5,2.2c-0.1,0.2-0.2,0.4-0.4,0.7 c-0.1,0.3-0.3,0.6-0.5,1s-0.4,0.7-0.5,1.1s-0.4,0.8-0.5,1.1c-0.4,0.9-0.9,1.8-1.3,2.8h2.5c0.3-0.8,0.7-1.5,1-2.3 c0.3-0.6,0.6-1.3,0.9-1.9s0.6-1.2,0.9-1.7c0.2-0.5,0.5-0.9,0.8-1.3s0.6-0.7,0.9-1s0.5-0.5,0.8-0.7c0.2-0.2,0.4-0.3,0.5-0.3 c0.2,0,0.2,0.2,0.1,0.7c-0.2,0.4-0.5,1-1,1.7c-0.8,1.3-1.5,2.4-1.8,3.2c-0.4,0.9-0.6,1.6-0.6,2.1s0.1,0.9,0.4,1.1 c0.3,0.2,0.7,0.3,1.1,0.3c0.9,0,1.8-0.4,2.6-1.3c0.8-0.9,1.6-2.1,2.3-3.7L130.3,27.6z M109.2,26.9c0.2-0.5,0.6-1.1,0.9-1.6 c0.4-0.5,0.8-1,1.1-1.3s0.8-0.6,1.1-0.8c0.4-0.2,0.7-0.2,0.9,0c0.2,0.1,0.2,0.4,0,0.9s-0.5,1.1-1.1,1.6c-0.4,0.4-0.8,0.8-1.2,1.1 s-0.8,0.5-1.1,0.6s-0.5,0.1-0.7,0.1C109.1,27.3,109.1,27.2,109.2,26.9z M44.6,36.5c-0.3,0.4-0.6,0.8-0.8,1.1 c-0.3,0.3-0.5,0.5-0.8,0.7c-0.2,0.1-0.5,0.2-0.6,0.1c-0.2-0.1-0.3-0.4-0.1-0.8c0.2-0.4,0.5-0.9,1.1-1.3c0.6-0.4,1.3-0.8,2.1-1.2 C45.1,35.6,44.8,36,44.6,36.5z M50.4,37.6L50.4,37.6L50.4,37.6L50.4,37.6L50.4,37.6z M50.4,37.5c0.1-0.2,0.2-0.3,0.3-0.5 c0,0.1,0.1,0.1,0.1,0.3L50.4,37.5z M50.4,38.2L50.4,38.2l0.2,0.1C50.5,38.3,50.5,38.3,50.4,38.2C50.4,38.3,50.4,38.3,50.4,38.2z M52.7,36.5c-0.3,0.4-0.6,0.8-0.8,1.1c-0.3,0.3-0.5,0.5-0.8,0.7l0,0c0-0.1,0-0.1,0-0.1s-0.1,0.1-0.2,0.2c-0.1,0-0.1,0-0.2,0 l-0.3-0.2h0.1h0.1L51,38v-0.1l-0.6,0.2l0,0c0-0.1,0-0.2,0-0.4l0,0l0.5,0.2l0.1-0.1l-0.4-0.2l0.3-0.2c0.1,0.2,0.2,0.3,0.3,0.2 c0.1,0,0-0.1-0.1-0.4C51,37.1,50.9,37,50.9,37c0.2-0.2,0.4-0.4,0.7-0.6c0.6-0.4,1.3-0.8,2.1-1.2C53.2,35.6,53,36,52.7,36.5z M54.9,29c-1.9,0-0.4-2.6-0.2-3c0.1-0.1,0.1-0.2,0.2-0.3c0.6-0.7,1.1-1.2,1.5-1.4c0.5-0.3,0.8-0.4,1.2-0.4c0.3,0,0.6,0.1,0.7,0.2 c0.2,0.2,0.2,0.4,0.2,0.7l-1.7,3.9C56.2,28.9,55.6,29,54.9,29z M57.5,38.7l0.1-0.5l0.3-0.2v0.3L57.5,38.7z M58.4,38.2l0.1,0.5 L58,38.4v-0.3L58.4,38.2z M58.6,37.6C58.6,37.6,58.5,37.6,58.6,37.6L58.6,37.6L58.6,37.6L58.6,37.6L58.6,37.6z M58.9,37.2l-0.3,0.2 l0.2-0.4C58.8,37.1,58.9,37.1,58.9,37.2z M75,27.2c-0.2,0.5-0.5,1.1-0.9,1.6c-0.3,0.5-0.7,1-1,1.4c-0.3,0.4-0.6,0.7-0.9,0.9 s-0.5,0.3-0.6,0.2c-0.2-0.1-0.3-0.2-0.3-0.5s0-0.6,0.1-1s0.2-0.8,0.4-1.3c0.2-0.5,0.4-0.9,0.6-1.4s0.5-1.1,0.9-1.6 c0.3-0.5,0.7-1,1-1.3c0.3-0.4,0.6-0.7,0.9-0.9c0.3-0.2,0.5-0.2,0.7-0.1s0.3,0.3,0.3,0.5s0,0.5-0.1,0.9s-0.2,0.8-0.4,1.2 C75.5,26.2,75.3,26.7,75,27.2z M83,23.5c0.7-1.5,1.5-2.8,2.2-4s1.4-2.1,2-2.9s1.1-1.4,1.4-1.8c0.4-0.4,0.6-0.6,0.7-0.5 s0,0.5-0.3,1.2S88.2,17,87.5,18s-1.5,2.1-2.4,3.3c-0.9,1.2-1.8,2.4-2.8,3.6L83,23.5z M81.6,31.3c-0.3,0.2-0.5,0.2-0.7,0.2 c-0.2-0.1-0.3-0.3-0.4-0.5c-0.1-0.3-0.1-0.6,0-0.9c0-0.4,0.1-0.8,0.3-1.2c0.1-0.4,0.3-0.9,0.5-1.4c0.9-1,1.8-2,2.6-2.9 c0,0.3,0.1,0.5,0.2,0.7s0.3,0.4,0.5,0.6c-0.3,1-0.6,1.9-1,2.7c-0.4,0.7-0.7,1.3-1.1,1.8C82.2,30.8,81.9,31.1,81.6,31.3z M100.9,24 c0.8-1.5,2.7-1.3,3.6-1.1l-1.9,4C101.8,26.5,100.1,25.6,100.9,24z"></path> </g> <path class="st0" d="M44,57L44,57L44,57C44,56.9,44,56.9,44,57z"></path> <path class="st0" d="M43.4,57.4L43.4,57.4L43.4,57.4C43.4,57.5,43.4,57.4,43.4,57.4z"></path> <path class="st0" d="M43.6,73.8c0,0,0,0.2,0.1,0.4l-0.4,0.2l-0.1,0.1v-0.1h0.1V74l0,0l0,0l-0.4,0.2v0.1l0,0c0,0.1,0,0.1-0.1,0.1 v-0.1v-0.7c0.1,0,0.2,0,0.3,0s0.1,0,0.1-0.1s-0.1-0.1-0.4-0.1c-0.3,0-0.4,0-0.4,0.1c0,0,0.1,0.1,0.3,0.1v0.6c0,0-0.1,0-0.1-0.1V74 l-0.4-0.2l0,0h-0.1v0.4c0,0,0,0,0.1,0c0,0,0.1,0,0.1,0.1c0,0,0-0.1-0.1-0.1L41.8,74c0.1-0.2,0.2-0.3,0.1-0.4c0,0-0.1,0-0.1,0.1 c-0.1,0.1-0.1,0.1-0.1,0.2c-0.1,0.1-0.1,0.2-0.1,0.3c0,0.1,0,0.1,0,0.1h0.1c0.1-0.1,0.1-0.1,0.1-0.2l0.4,0.2h0.1h-0.1c0,0,0,0-0.1,0 l-0.3,0.2v0.1l0.6-0.2l0.3,0.2l-0.3,0.2l-0.6-0.2v0.1l0.4,0.2c0,0,0,0,0.1,0c0,0,0,0,0.1,0L42,75.2c-0.1-0.2-0.2-0.3-0.3-0.3 c0,0.1,0,0.2,0.2,0.4c0.1,0.2,0.2,0.3,0.3,0.3s0-0.2-0.1-0.3l0.4-0.3v0.1l0,0v0.5h0.1l0,0l0.4-0.2l0,0c0,0,0-0.1,0.1-0.1v0.5 c-0.2,0-0.3,0-0.3,0.1s0.1,0.1,0.4,0.1c0.3,0,0.4,0,0.4-0.1c0,0,0-0.1-0.1-0.1s-0.2,0-0.3,0v-0.5c0,0,0,0,0,0.1l0,0l0.4,0.2l0.1-0.1 V75l0,0c0,0,0,0,0-0.1l0.4,0.2C44,75.2,44,75.3,44,75.3c0,0.1,0,0.1,0,0.1s0.1,0,0.1-0.1c0.1-0.1,0.1-0.1,0.2-0.2 c0.1-0.2,0.2-0.4,0.1-0.4c0,0-0.1,0.1-0.2,0.3l-0.4-0.2h0.1H44l0.4-0.2v-0.1l-0.6,0.2l-0.3-0.2l0.3-0.2l0.5,0.2l0.1-0.1L44,74.2 l0.3-0.2c0.1,0.2,0.2,0.3,0.3,0.2c0.1,0,0-0.1-0.1-0.4C43.7,73.8,43.6,73.7,43.6,73.8z M42.3,75.6l0.1-0.5l0.3-0.2v0.3L42.3,75.6z M42.6,74.6l-0.3-0.1L42.2,74l0.4,0.3L42.6,74.6z M43.1,75.1l0.1,0.5l-0.4-0.3V75L43.1,75.1z M43.1,74.4l-0.3,0.2v-0.3l0.4-0.3 L43.1,74.4z M43.4,74.5L43.4,74.5L43.4,74.5L43.4,74.5L43.4,74.5z"></path> <path class="st0" d="M43.3,57L43.3,57h-0.2v0.1L43.3,57l0.2,0.2l-0.2,0.1H43v0.1h0.2l0,0h0.1l-0.4,0.3v0.1l0.4-0.2l0.1-0.1 c0,0,0,0,0,0.1h-0.1v0.2h0.1l0.1-0.3l0.2-0.1v0.2l-0.2,0.2v0.1l0.1-0.1v-0.1v0.6h0.1v-0.5l0.2,0.1v-0.1l-0.2-0.2v-0.2l0.2,0.1 l0.1,0.2h0.1L44,57.5l0,0l0,0v-0.1l0.5,0.2l0,0l-0.4-0.2h0.1l0.2-0.1v-0.1L44,57.3l-0.2-0.1l0.2-0.1h0.3V57h-0.2l0,0H44l0.5-0.3 v-0.1l-0.4,0.2L44,57c0,0,0,0,0-0.1h0.1v-0.2H44L43.9,57h-0.1v-0.2l0.2-0.2l0,0l-0.2,0.1l0,0c0,0,0,0,0,0.1v-0.6h-0.1v0.6 c0,0,0,0,0-0.1l0,0l-0.1-0.1l0,0l0.2,0.2V57h-0.3l-0.1-0.2h-0.1L43.3,57L43.3,57L43.3,57C43.4,56.9,43.4,56.9,43.3,57l-0.4-0.3l0,0 L43.3,57L43.3,57z"></path> <path class="st0" d="M28.5,74.2l-0.4,0.2L28,74.6c0,0,0,0,0-0.1h0.1v-0.2H28l-0.1,0.3h-0.1v-0.2l0.2-0.2l0,0l-0.2,0.1l0,0 c0,0,0,0,0,0.1v-0.6h-0.1v0.6c0,0,0,0,0-0.1l0,0l-0.1-0.1l0,0l0.2,0.2v0.2h-0.3l-0.1-0.2h-0.1v0.2l0,0l0,0c0,0,0,0,0,0.1l-0.5-0.3 l0,0l0.5,0.3h-0.1c0,0,0,0-0.1,0l-0.2,0.1v0.1h0.3l0.2,0.1l-0.2,0.1h-0.3v0.1h0.2l0,0h0.1l-0.4,0.3v0.1l0.4-0.2l0.1-0.1 c0,0,0,0,0,0.1h-0.1v0.2h0.1l0.1-0.3l0.2-0.1v0.2l-0.2,0.2v0.1l0.1-0.1v-0.1v0.6h0.1v-0.5l0.2,0.1v-0.1l-0.2-0.2v-0.2l0.2,0.1 l0.1,0.2H28l-0.1-0.2l0,0l0,0v-0.1l0.5,0.2l0,0L28,75.2h0.1l0.2-0.1V75L28,74.9l-0.2-0.1l0.2-0.1h0.3v-0.1h-0.2l0,0H28L28.5,74.2 L28.5,74.2z"></path> <path class="st0" d="M39.8,74.8c0.2-0.1,0.2-0.2,0.1-0.4c-0.1-0.1-0.2-0.2-0.4-0.1c-0.1,0.1-0.1,0.2-0.1,0.3L38.8,75l-0.1-0.1h0.1 l0.4-0.6h-0.1l-0.4,0.5c0,0-0.1-0.1-0.2-0.1c-0.1,0-0.1-0.1-0.2-0.1l0.2-0.6l-0.1-0.1l-0.3,0.7l0,0l0,0l0,0v-0.7 c0.1,0,0.2-0.1,0.2-0.2c0-0.2-0.1-0.3-0.2-0.3c-0.2,0-0.2,0.1-0.2,0.3c0,0.1,0.1,0.2,0.2,0.2v0.7c0,0,0,0-0.1,0l0,0l-0.3-0.7 L37.6,74l0.2,0.6c-0.2,0.1-0.3,0.2-0.4,0.3L37,74.3l-0.1,0.1l0.5,0.5V75l-0.7-0.3c0-0.1,0-0.2-0.1-0.3c-0.1-0.1-0.3-0.1-0.3,0.1 c-0.3,0.1-0.3,0.2-0.1,0.3c0.1,0.1,0.2,0.1,0.3,0l0.7,0.4v0.1c0,0,0,0,0-0.1l-0.7-0.1v0.1l0.7,0.1v0.1v0.1c0,0,0,0.1,0.1,0.3 l-0.7,0.1V76l0.7-0.1c0,0,0-0.1,0.1-0.1v0.1l-0.6,0.4c-0.1-0.1-0.2-0.1-0.3-0.1c-0.2,0.1-0.2,0.3-0.1,0.4c0.1,0.1,0.2,0.2,0.4,0.1 c0.1-0.1,0.2-0.2,0.1-0.3l0.6-0.3c0,0,0.1,0,0.1,0.1h-0.1l-0.4,0.6H37l0.4-0.6c0.2,0.1,0.3,0.2,0.4,0.2l-0.3,0.7l0.1,0.1l0.3-0.6 v-0.1l0,0H38v0.7c-0.1,0-0.2,0.1-0.2,0.2c0,0.2,0.1,0.3,0.2,0.3c0.2,0,0.2-0.1,0.2-0.3c0-0.2-0.1-0.2-0.2-0.2v-0.7h0.1l0,0v0.1 l0.3,0.6l0.1-0.1l-0.3-0.7c0.2,0,0.3-0.1,0.4-0.2l0.4,0.6h0.2l-0.4-0.5c0,0-0.1,0-0.1-0.1h0.1l0.6,0.3c0,0,0,0.1,0,0.2 s0.1,0.1,0.1,0.1c0.2,0.1,0.3,0.1,0.4-0.1c0-0.1,0-0.1,0-0.2s-0.1-0.1-0.1-0.2c-0.1-0.1-0.3-0.1-0.3,0.1L38.9,76v-0.1c0,0,0,0,0,0.1 l0.7,0.1l-0.1-0.2l-0.7-0.1v-0.1v-0.1c0-0.1,0-0.2,0-0.2l0.7-0.1v-0.1l-0.7,0.1l0,0l0,0l0.6-0.4C39.5,74.8,39.6,74.8,39.8,74.8z M37.4,75L37.4,75C37.4,75.1,37.4,75.1,37.4,75L37.4,75L37.4,75z M37.2,75.2L37.2,75.2C37.3,75.3,37.2,75.3,37.2,75.2 C37.2,75.3,37.2,75.3,37.2,75.2z M37.4,76.1L37.4,76.1L37.4,76.1L37.4,76.1z M37.2,75.9c0-0.1,0-0.2,0-0.3c0-0.1,0-0.2,0-0.2h0.2 l0.3,0.2l-0.3,0.2L37.2,75.9z M37.8,76.4c-0.1,0-0.1-0.1-0.2-0.1c-0.1,0-0.1-0.1-0.2-0.1l0.1-0.2l0.3-0.2v0.4L37.8,76.4z M37.8,75.3 l-0.3-0.2l-0.1-0.2c0.1-0.1,0.1-0.1,0.2-0.2c0.1-0.1,0.1-0.1,0.2-0.1l0.1,0.2L37.8,75.3z M37.9,74.9L37.9,74.9L37.9,74.9L37.9,74.9z M38.7,75.2L38.7,75.2L38.7,75.2L38.7,75.2z M38.6,75.1L38.6,75.1C38.6,75.1,38.6,75,38.6,75.1L38.6,75.1z M38.2,74.8 c0.1,0,0.2,0,0.2,0.1c0.1,0.1,0.1,0.1,0.2,0.1l-0.1,0.2l-0.3,0.2V75L38.2,74.8z M38.1,74.7L38.1,74.7C38.2,74.7,38.2,74.8,38.1,74.7 L38.1,74.7z M38.4,76.3c-0.1,0-0.1,0.1-0.2,0.1l-0.1-0.2v-0.4l0.4,0.2l0.1,0.1C38.5,76.2,38.5,76.2,38.4,76.3z M38.6,76.1L38.6,76.1 L38.6,76.1L38.6,76.1z M38.7,75.9L38.7,75.9L38.7,75.9L38.7,75.9z M38.8,75.7L38.8,75.7l-0.2,0.1l-0.4-0.2l0.3-0.2h0.2 C38.7,75.4,38.7,75.5,38.8,75.7C38.8,75.6,38.8,75.7,38.8,75.7z"></path> <path class="st0" d="M36.6,51.7c0.1-0.1,0.1-0.1,0.1-0.2l0.4,0.2h0.1h-0.1c0,0,0,0-0.1,0l-0.3,0.2V52l0.6-0.2l0.3,0.2l-0.3,0.2 L36.7,52v0.1l0.4,0.2c0,0,0,0,0.1,0c0,0,0,0,0.1,0l-0.4,0.3c-0.1-0.2-0.2-0.3-0.3-0.3c0,0.1,0,0.2,0.2,0.4c0.1,0.2,0.2,0.3,0.3,0.3 s0-0.2-0.1-0.3l0.4-0.3v0.1l0,0v0.4h0.1l0,0l0.4-0.2l0,0c0,0,0-0.1,0.1-0.1v0.5c-0.2,0-0.3,0-0.3,0.1s0.1,0.1,0.4,0.1 c0.3,0,0.4,0,0.4-0.1c0,0,0-0.1-0.1-0.1s-0.2,0-0.3,0v-0.5c0,0,0,0,0,0.1l0,0l0.4,0.2l0.1-0.1v-0.5l0,0c0,0,0,0,0-0.1l0.4,0.2 c-0.1,0.1-0.1,0.2-0.1,0.2c0,0.1,0,0.1,0,0.1s0.1,0,0.1-0.1c0.1-0.1,0.1-0.1,0.2-0.2c0.1-0.2,0.2-0.4,0.1-0.4c0,0-0.1,0.1-0.2,0.3 l-0.4-0.2h0.1h0.1l0.4-0.2v-0.1L38.7,52l-0.3-0.2l0.3-0.2l0.5,0.2l0.1-0.1l-0.4-0.2l0.3-0.3c0.1,0.2,0.2,0.3,0.3,0.2 c0.1,0,0-0.1-0.1-0.4c-0.2-0.2-0.3-0.3-0.3-0.3s0,0.2,0.1,0.4l-0.4,0.2l-0.1,0.1v-0.1h0.1v-0.4l0,0l0,0l-0.4,0.2v0.1l0,0 c0,0.1,0,0.1-0.1,0.1v-0.1v-0.5c0.1,0,0.2,0,0.3,0s0.1,0,0.1-0.1s-0.1-0.1-0.4-0.1c-0.3,0-0.4,0-0.4,0.1c0,0,0.1,0.1,0.3,0.1v0.6 c0,0-0.1,0-0.1-0.1v-0.1l-0.4-0.2l0,0h-0.1v0.4c0,0,0,0,0.1,0c0,0,0.1,0,0.1,0.1l-0.1-0.1l-0.4-0.2c0.1-0.2,0.2-0.3,0.1-0.4 c0,0-0.1,0-0.1,0.1s-0.1,0.1-0.1,0.2c-0.1,0.1-0.1,0.2-0.1,0.3s0,0.1,0,0.1C36.5,51.7,36.5,51.7,36.6,51.7z M38.4,51.7L38.4,51.7 L38.4,51.7C38.4,51.8,38.3,51.8,38.4,51.7L38.4,51.7z M37.8,51.5l0.4-0.3l-0.1,0.5l-0.3,0.2C37.8,51.9,37.8,51.5,37.8,51.5z M37.8,52.2l0.3,0.2l0.1,0.5l-0.4-0.3C37.8,52.6,37.8,52.2,37.8,52.2z M37.3,52.8l0.1-0.5l0.3-0.2v0.3L37.3,52.8z M37.7,51.5v0.3 l-0.3-0.1l-0.1-0.5L37.7,51.5z"></path> <path class="st0" d="M48.1,52.8L48.1,52.8h-0.2v0.1L48.1,52.8l0.2,0.2l-0.2,0.1h-0.3v0.1H48l0,0h0.1l-0.4,0.3v0.1l0.4-0.2v0.2h0.1 l0.1-0.3l0.2-0.1v0.2l-0.2,0.2v0.1l0.1-0.1v-0.1v0.6h0.1v-0.5l0.2,0.1v-0.1l-0.2-0.2v-0.2l0.2,0.1l0.1,0.2h0.1l-0.1-0.2l0,0l0,0 v-0.1l0.5,0.2l0,0l-0.4-0.2H49l0.2-0.1V53l-0.3,0.1L48.6,53l0.2-0.1h0.3v-0.1l-0.2-0.1l0,0h-0.1l0.5-0.3v-0.1l-0.4,0.2v-0.2h-0.1 l-0.1,0.3l-0.2,0.1v-0.2l0.2-0.2l0,0l-0.2,0.1l0,0c0,0,0,0,0,0.1v-0.6h-0.1v0.6c0,0,0,0,0-0.1l0,0l-0.1-0.1l0,0l0.2,0.2v0.2 l-0.2-0.1l-0.1-0.2h-0.1v0.2l0,0l0,0C48.2,52.7,48.2,52.7,48.1,52.8l-0.4-0.3l0,0L48.1,52.8L48.1,52.8z"></path> <path class="st0" d="M49.8,74.8c0.2-0.1,0.2-0.2,0.1-0.4c-0.1-0.1-0.2-0.2-0.4-0.1c-0.1,0.1-0.1,0.2-0.1,0.3L48.8,75l-0.1-0.1h0.1 l0.4-0.6h-0.1l-0.4,0.5c0,0-0.1-0.1-0.2-0.1c-0.1,0-0.1-0.1-0.2-0.1l0.2-0.6l-0.1-0.1l-0.2,0.7l0,0l0,0l0,0v-0.7 c0.1,0,0.2-0.1,0.2-0.2c0-0.2-0.1-0.3-0.2-0.3c-0.2,0-0.2,0.1-0.2,0.3c0,0.1,0.1,0.2,0.2,0.2v0.7c0,0,0,0-0.1,0l0,0l-0.3-0.7 L47.7,74l0.2,0.6c-0.2,0.1-0.3,0.2-0.4,0.3L47,74.4l-0.1,0.1l0.5,0.5v0.1l-0.7-0.3c0-0.1,0-0.2-0.1-0.3c-0.1-0.1-0.3-0.1-0.3,0.1 c-0.1,0.1-0.1,0.3,0.1,0.3c0.1,0.1,0.2,0.1,0.3,0l0.7,0.4v0.1c0,0,0,0,0-0.1l-0.7-0.1v0.1l0.7,0.1v0.1v0.1c0,0,0,0.1,0.1,0.3 L46.8,76v0.1l0.7-0.1c0,0,0-0.1,0.1-0.1V76L47,76.4c-0.1-0.1-0.2-0.1-0.3-0.1c-0.2,0.1-0.2,0.3-0.1,0.4c0.1,0.1,0.2,0.2,0.4,0.1 c0.1-0.1,0.2-0.2,0.1-0.3l0.6-0.3c0,0,0.1,0,0.1,0.1h-0.1l-0.4,0.6H47l0.4-0.6c0.2,0.1,0.3,0.2,0.4,0.2l-0.3,0.7l0.1,0.1l0.3-0.6 v-0.1l0,0H48v0.7c-0.1,0-0.2,0.1-0.2,0.2c0,0.2,0.1,0.3,0.2,0.3c0.2,0,0.2-0.1,0.2-0.3c0-0.2-0.1-0.2-0.2-0.2v-0.7h0.1l0,0v0.1 l0.3,0.6l0.1-0.1l-0.3-0.7c0.2,0,0.3-0.1,0.4-0.2l0.4,0.6h0.2l-0.4-0.5c0,0-0.1,0-0.1-0.1h0.1l0.6,0.3c0,0,0,0.1,0,0.2 s0.1,0.1,0.1,0.1c0.2,0.1,0.3,0.1,0.4-0.1c0-0.1,0-0.1,0-0.2s-0.1-0.1-0.1-0.2c-0.1-0.1-0.3-0.1-0.3,0.1l-0.6-0.4V76c0,0,0,0,0,0.1 l0.7,0.1L49.5,76l-0.7-0.1v-0.1v-0.1c0-0.1,0-0.2,0-0.2l0.7-0.1v-0.1l-0.7,0.1l0,0l0,0l0.6-0.4C49.6,74.8,49.7,74.8,49.8,74.8z M47.4,75L47.4,75C47.4,75.1,47.5,75.1,47.4,75L47.4,75L47.4,75z M47.3,75.2L47.3,75.2C47.3,75.3,47.3,75.3,47.3,75.2 C47.3,75.3,47.3,75.3,47.3,75.2z M47.4,76.1L47.4,76.1L47.4,76.1L47.4,76.1z M47.3,75.9c0-0.1,0-0.2,0-0.3c0-0.1,0-0.2,0-0.2h0.2 l0.3,0.2l-0.3,0.2L47.3,75.9z M47.9,76.4c-0.1,0-0.1-0.1-0.2-0.1c-0.1,0-0.1-0.1-0.2-0.1l0.1-0.2l0.3-0.2v0.4L47.9,76.4z M47.9,75.3 l-0.3-0.2l-0.1-0.2c0.1-0.1,0.1-0.1,0.2-0.2c0.1-0.1,0.1-0.1,0.2-0.1l0.1,0.2L47.9,75.3z M48,74.9L48,74.9L48,74.9L48,74.9z M48.8,75.2L48.8,75.2L48.8,75.2L48.8,75.2z M48.7,75.1L48.7,75.1C48.6,75.1,48.6,75,48.7,75.1L48.7,75.1z M48.3,74.8 c0.1,0,0.2,0,0.2,0.1c0.1,0.1,0.1,0.1,0.2,0.1l-0.1,0.2l-0.3,0.2V75L48.3,74.8z M48.1,74.7L48.1,74.7C48.2,74.7,48.2,74.8,48.1,74.7 L48.1,74.7z M48.5,76.3c-0.1,0-0.1,0.1-0.2,0.1l-0.1-0.2v-0.4l0.4,0.2l0.1,0.1C48.6,76.2,48.5,76.2,48.5,76.3z M48.7,76.1L48.7,76.1 L48.7,76.1L48.7,76.1z M48.8,75.9L48.8,75.9L48.8,75.9L48.8,75.9z M48.9,75.7L48.9,75.7l-0.2,0.1l-0.4-0.2l0.3-0.2h0.2 c0,0,0,0.1,0,0.2C48.9,75.6,48.9,75.7,48.9,75.7z"></path> <path class="st0" d="M52.2,53.4l0.7,0.4v0.1c0,0,0,0,0-0.1h-0.8v0.1l0.7,0.1v0.1v0.1c0,0,0,0.1,0.1,0.3l-0.8,0.1v0.1l0.7-0.1 c0,0,0-0.1,0.1-0.1v0.1L52.3,55c-0.1-0.1-0.2-0.1-0.3-0.1c-0.2,0.1-0.2,0.3-0.1,0.4c0.1,0.1,0.2,0.2,0.4,0.1 c0.1-0.1,0.2-0.2,0.1-0.3l0.6-0.3c0,0,0.1,0,0.1,0.1H53l-0.4,0.6h0.2l0.4-0.6c0.2,0.1,0.3,0.2,0.4,0.2l-0.3,0.7l0.1,0.1l0.3-0.6 v-0.1l0,0h0.1v0.7c-0.1,0-0.2,0.1-0.2,0.2c0,0.2,0.1,0.3,0.2,0.3c0.2,0,0.2-0.1,0.2-0.3s-0.1-0.2-0.2-0.2v-0.8h0.1l0,0v0.1l0.3,0.6 l0.1-0.1l-0.4-0.6c0.2,0,0.3-0.1,0.4-0.2l0.4,0.6h0.2L54.5,55c0,0-0.1,0-0.1-0.1h0.1l0.6,0.3c0,0,0,0.1,0,0.2c0,0.1,0.1,0.1,0.1,0.1 c0.2,0.1,0.3,0.1,0.4-0.1c0-0.1,0-0.1,0-0.2c0-0.1-0.1-0.1-0.1-0.2c-0.1-0.1-0.3-0.1-0.3,0.1l-0.6-0.4v-0.1c0,0,0,0,0,0.1l0.7,0.1 l-0.1-0.2l-0.7-0.1v-0.1v-0.1c0-0.1,0-0.2,0-0.2l0.7-0.1v-0.1L54.5,54l0,0l0,0l0.6-0.4c0.1,0.1,0.2,0.1,0.3,0 c0.2-0.1,0.2-0.2,0.1-0.4c-0.1-0.1-0.2-0.2-0.4-0.1C55,53.2,55,53.3,55,53.4l-0.6,0.4l-0.1-0.1h0.1l0.4-0.6h-0.1l-0.4,0.5 c0,0-0.1-0.1-0.2-0.1c-0.1,0-0.1-0.1-0.2-0.1l0.2-0.6l0-0.2l-0.2,0.7l0,0l0,0l0,0v-0.7c0.1,0,0.2-0.1,0.2-0.2c0-0.2-0.1-0.3-0.2-0.3 c-0.2,0-0.2,0.1-0.2,0.3c0,0.1,0.1,0.2,0.2,0.2v0.7c0,0,0,0-0.1,0l0,0l-0.3-0.7l-0.1,0.1l0.2,0.6c-0.2,0.1-0.3,0.2-0.4,0.3L52.8,53 l-0.3,0.1l0.5,0.5v0.1L52.2,53.4c0.1-0.2,0.1-0.3-0.1-0.4c-0.1-0.1-0.3-0.1-0.3,0.1c-0.1,0.1-0.1,0.3,0.1,0.3 C52,53.5,52.1,53.5,52.2,53.4z M54.1,54.9C54,54.9,54,55,53.9,55l-0.1-0.2v-0.4l0.4,0.2l0.1,0.1C54.2,54.8,54.2,54.9,54.1,54.9z M54.3,54.7L54.3,54.7L54.3,54.7L54.3,54.7z M54.4,54.6L54.4,54.6L54.4,54.6L54.4,54.6z M54.5,54c0,0,0,0.1,0,0.2v0.1v0.1h-0.2 L54,54.2l0.3-0.2L54.5,54z M54.4,53.8L54.4,53.8L54.4,53.8L54.4,53.8z M54.4,53.7L54.4,53.7C54.3,53.7,54.3,53.7,54.4,53.7 L54.4,53.7z M53.9,53.4c0.1,0,0.2,0,0.2,0.1c0.1,0.1,0.1,0.1,0.2,0.1l-0.1,0.2L53.9,54v-0.4L53.9,53.4z M53.8,53.4L53.8,53.4 C53.9,53.4,53.9,53.5,53.8,53.4L53.8,53.4z M53.1,54.7L53.1,54.7L53.1,54.7L53.1,54.7z M53.5,55c-0.1,0-0.1-0.1-0.2-0.1 c-0.1,0-0.1-0.1-0.2-0.1l0.1-0.2l0.3-0.2v0.4L53.5,55z M53.6,53.4L53.6,53.4C53.6,53.5,53.5,53.4,53.6,53.4L53.6,53.4z M53.5,53.4 l0.1,0.2V54l-0.3-0.2l-0.2-0.1C53.2,53.5,53.4,53.4,53.5,53.4z M53.1,53.7L53.1,53.7C53.1,53.7,53.1,53.8,53.1,53.7L53.1,53.7 L53.1,53.7z M53,53.9L53,53.9C53,54,52.9,54,53,53.9C52.9,53.9,52.9,53.9,53,53.9z M53.1,54l0.3,0.2l-0.3,0.3l-0.2,0.1 c0-0.1,0-0.2,0-0.3s0-0.2,0-0.2L53.1,54L53.1,54z"></path> <path class="st0" d="M81.7,53.6c0.1-0.1,0.1-0.1,0.1-0.2l0.4,0.2h0.1h-0.1c0,0,0,0-0.1,0l-0.3,0.2V54l0.6-0.2l0.3,0.2l-0.3,0.2 L81.8,54v0.1l0.4,0.2c0,0,0,0,0.1,0c0,0,0,0,0.1,0L82,54.6c-0.1-0.2-0.2-0.3-0.3-0.3c0,0.1,0,0.2,0.2,0.4c0.1,0.2,0.2,0.3,0.3,0.3 c0.1,0,0-0.2-0.1-0.3l0.4-0.3v0.1l0,0V55h-0.2l0,0l0.4-0.2l0,0c0,0,0-0.1,0.1-0.1v0.5c-0.2,0-0.3,0-0.3,0.1s0.1,0.1,0.4,0.1 s0.4,0,0.4-0.1c0,0,0-0.1-0.1-0.1s-0.2,0-0.3,0v-0.5c0,0,0,0,0,0.1l0,0l0.4,0.2l0.1-0.1v-0.5l0,0c0,0,0,0,0-0.1l0.4,0.2 c-0.1,0.1-0.1,0.2-0.1,0.2c0,0.1,0,0.1,0,0.1s0.1,0,0.1-0.1s0.1-0.1,0.2-0.2c0.1-0.2,0.2-0.4,0.1-0.4c0,0-0.1,0.1-0.2,0.3l-0.4-0.2 h0.1h0.1l0.4-0.2v-0.1l-0.8,0.3L83.1,54l0.3-0.2l0.5,0.2l0.1-0.1l-0.4-0.2l0.3-0.3c0.1,0.2,0.2,0.3,0.3,0.2c0.1,0,0-0.1-0.1-0.4 c-0.2-0.2-0.3-0.3-0.3-0.3s0,0.2,0.1,0.4l-0.4,0.2l-0.2,0.1v-0.1h0.1v-0.4l0,0l0,0L83,53.3v0.1l0,0c0,0.1,0,0.1-0.1,0.1v-0.1v-0.5 c0.1,0,0.2,0,0.3,0c0.1,0,0.1,0,0.1-0.1s-0.1-0.1-0.4-0.1s-0.4,0-0.4,0.1c0,0,0.1,0.1,0.3,0.1v0.6c0,0-0.1,0-0.1-0.1v-0.1L82.4,53 l0,0h-0.1v0.4c0,0,0,0,0.1,0c0,0,0.1,0,0.1,0.1l-0.2,0.1l-0.4-0.2c0.1-0.2,0.2-0.3,0.1-0.4c0,0-0.1,0-0.1,0.1 c-0.1,0.1-0.1,0.1-0.1,0.2C81.7,53.4,81.7,53.5,81.7,53.6C81.7,53.7,81.7,53.7,81.7,53.6C81.6,53.7,81.6,53.7,81.7,53.6z M83.5,53.7 L83.5,53.7L83.5,53.7C83.4,53.7,83.4,53.7,83.5,53.7L83.5,53.7z M82.9,53.4l0.4-0.3l-0.1,0.5l-0.3,0.2V53.4z M82.9,54.1l0.3,0.2 l0.1,0.5l-0.4-0.3V54.1z M82.4,54.8l0.1-0.5l0.3-0.2v0.3L82.4,54.8z M82.8,53.4v0.3l-0.3-0.1l-0.1-0.5L82.8,53.4z"></path> <path class="st0" d="M58,66c0,0-1.5,0.6-2,1.3c-0.5,0.7-1,1.1-1.4,1.1c-0.1,0-0.2-0.1-0.2-0.2c0-0.2,0.1-0.5,0.3-0.9s0.6-1.1,1-1.9 c0.5-0.8,1.1-1.9,1.8-3.2c0.2-0.4,0.4-0.8,0.4-1.1c0.1-0.4,0-0.7,0-0.9s-0.2-0.5-0.4-0.6s-0.4-0.2-0.7-0.2c-0.8,0-1.8,0.5-2.9,1.5 c0-0.5,0-0.8-0.2-1.1s-1.4-1.7-4.5,1.1c-0.8,0.8-1.6,1.5-1.6,1.5l0,0c-1,0.9-2.2,2.5-3,4.1c-0.9,1.3-1.8,2.6-2.3,2.6 c-0.4,0-0.8-0.4-1.2-0.8l0,0c0.7-0.8,1.4-1.6,2-2.6L42.4,65c-0.4,0.6-0.8,1.2-1.3,1.8c-0.5,0.5-1.1,1-1.6,1.3 c-0.6,0.3-1.1,0.6-1.6,0.7s-1,0.1-1.3-0.1c-0.4-0.2-0.6-0.5-0.7-1.1c-0.1-0.5,0-1.1,0.2-1.8c0.2,0.4,0.5,0.6,0.9,0.7s0.9,0.1,1.4,0 s1-0.4,1.6-0.8c0.5-0.4,1-0.9,1.5-1.6c0.3-0.5,0.6-1,0.7-1.4c0.1-0.5,0.2-0.9,0.2-1.4c0-0.4-0.1-0.8-0.3-1.1s-0.4-0.6-0.7-0.7 c-0.4-0.2-0.8-0.2-1.4-0.2c-0.6,0.1-1.2,0.3-1.9,0.7s-1.3,1-2,1.8s-1.3,1.8-1.9,3c0,0.1-0.1,0.1-0.1,0.2c-0.5,1.1-1,2-1.5,2.7 s-0.9,1-1.3,1c-0.3,0-0.4-0.2-0.3-0.5c0.1-0.4,0.3-0.9,0.7-1.6l0.9-2l3-5.4h-3l-2.3,5.1v0.1c0,0.1-0.1,0.1-0.1,0.1s-0.1,0.1-0.1,0.2 c-0.5,0.1-1.2,0.2-1.7-0.3c-0.8-0.8,1.7-3.4,1.7-5.1c0-2.5-4.2,0-4.2,0V60c0,0,0.8-0.8,1.7-0.8c0.8,0-2.5,5.1-1.7,5.9 c0.7,0.7,3,0.3,3.9,0.1v0.1c-0.2,0.3-0.4,0.7-0.6,1.2c-0.6,1.3-0.8,2.4-0.7,3.1c0.2,0.7,0.7,1.1,1.6,1.1s1.8-0.4,2.6-1.3 c0.3-0.3,0.6-0.7,0.9-1.1l0,0c0,0.5,0.2,0.9,0.4,1.3s0.5,0.7,0.8,0.9c0.6,0.4,1.3,0.5,2.1,0.5c0.8-0.1,1.6-0.4,2.4-0.8 c0.6-0.3,1.1-0.8,1.7-1.2l0.8,1.2c2.9,2.9,6.6-4.7,6.8-5.1s0.4-0.7,0.6-1.1c0.5-0.8,0.9-1.4,1.3-1.8c0.4-0.5,0.7-0.7,0.9-0.7 c0.4,0,0.3,0.7-0.5,2.2c-0.1,0.2-0.2,0.4-0.4,0.7c-0.1,0.3-0.3,0.6-0.5,1s-0.4,0.7-0.5,1.1s-0.4,0.8-0.5,1.1 c-0.4,0.9-0.9,1.8-1.3,2.8h2.5c0.3-0.8,0.7-1.5,1-2.3c0.3-0.6,0.6-1.3,0.9-1.9s0.6-1.2,0.9-1.7c0.2-0.5,0.5-0.9,0.8-1.3 s0.6-0.7,0.9-1c0.3-0.3,0.5-0.5,0.8-0.7c0.2-0.2,0.4-0.3,0.5-0.3c0.2,0,0.2,0.2,0.1,0.7c-0.2,0.4-0.5,1-1,1.7 c-0.8,1.3-1.5,2.4-1.8,3.2c-0.4,0.9-0.6,1.6-0.6,2.1s0.1,0.9,0.4,1.1c0.3,0.2,0.7,0.3,1.1,0.3c0.6,0,1.2-0.2,1.7-0.6L56,69L58,66z M36.4,64.1c0.2-0.5,0.6-1.1,0.9-1.6c0.4-0.5,0.8-1,1.1-1.3s0.8-0.6,1.1-0.8c0.4-0.2,0.7-0.2,0.9,0c0.2,0.1,0.2,0.4,0,0.9 c-0.2,0.5-0.5,1.1-1.1,1.6c-0.4,0.4-0.8,0.8-1.2,1.1s-0.8,0.5-1.1,0.6s-0.5,0.1-0.7,0.1C36.3,64.6,36.3,64.4,36.4,64.1z"></path> <path class="st0" d="M74.4,76.5l-0.6-0.4V76c0,0,0,0,0,0.1l0.7,0.1v-0.1L73.8,76v-0.1v-0.1c0,0,0-0.1-0.1-0.3l0.7-0.1v-0.1l-0.7,0.1 c0,0,0,0.1-0.1,0.1v-0.1l0.6-0.4c0.1,0.1,0.2,0.1,0.3,0.1c0.2-0.1,0.2-0.3,0.1-0.4s-0.2-0.2-0.4-0.1c-0.1,0.1-0.2,0.2-0.1,0.3 l-0.4,0.2c0,0-0.1,0-0.1-0.1h0.1l0.4-0.6h-0.2L73.5,75c-0.2-0.1-0.3-0.2-0.4-0.2l0.3-0.7l-0.1,0L73,74.7v0.1l0,0l0,0v-0.7 c0.1,0,0.2-0.1,0.2-0.2c0-0.2-0.1-0.3-0.2-0.3c-0.2,0-0.2,0.1-0.2,0.3c0,0.2,0.1,0.2,0.2,0.2v0.7h-0.1l0,0v-0.1l-0.3-0.6l-0.1,0.1 l0.3,0.7c-0.2,0-0.3,0.1-0.4,0.2L72,74.5h-0.2l0.4,0.5c0,0,0.1,0,0.1,0.1h-0.1l-0.6-0.3c0,0,0-0.1,0-0.2s-0.1-0.1-0.1-0.1 c-0.2-0.1-0.3-0.1-0.4,0.1c0,0.1,0,0.1,0,0.2s0.1,0.1,0.1,0.2c0.1,0.1,0.3,0.1,0.3-0.1l0.6,0.4v0.1c0,0,0,0,0-0.1l-0.7-0.1l0.1,0.2 l0.7,0.1v0.1v0.1c0,0.1,0,0.2,0,0.2l-0.8,0.2v0.1l0.7-0.1l0,0l0,0l-0.6,0.4c-0.1-0.1-0.2-0.1-0.3,0c-0.2,0.1-0.2,0.2-0.1,0.4 c0.1,0.1,0.2,0.2,0.4,0.1c0.1-0.1,0.1-0.2,0.1-0.3l0.6-0.4l0.1,0.1h-0.1L71.8,77h0.1l0.4-0.5c0,0,0.1,0.1,0.2,0.1s0.1,0.1,0.2,0.1 l-0.2,0.6l0.1,0.1l0.2-0.7l0,0l0,0l0,0v0.7c-0.1,0-0.2,0.1-0.2,0.2c0,0.2,0.1,0.3,0.2,0.3c0.2,0,0.2-0.1,0.2-0.3 c0-0.1-0.1-0.2-0.2-0.2v-0.7c0,0,0,0,0.1,0l0,0l0.3,0.7l0.1-0.1l-0.2-0.6c0.2-0.1,0.3-0.2,0.4-0.3l0.4,0.6l0.1-0.1l-0.5-0.5v-0.1 L74.4,76.5c-0.1,0.2-0.1,0.3,0.1,0.4c0.1,0.1,0.3,0.1,0.3-0.1c0.1-0.1,0.1-0.3-0.1-0.3C74.6,76.3,74.5,76.4,74.4,76.5z M72.5,75 c0.1,0,0.1-0.1,0.2-0.1l0.1,0.2v0.4l-0.4-0.2l-0.1-0.2C72.4,75.1,72.5,75,72.5,75z M72.3,75.2L72.3,75.2L72.3,75.2L72.3,75.2z M72.2,75.3L72.2,75.3L72.2,75.3L72.2,75.3z M72.1,75.9c0,0,0-0.1,0-0.2v-0.1v-0.1h0.2l0.3,0.2l-0.3,0.2H72.1z M72.2,76.1L72.2,76.1 L72.2,76.1L72.2,76.1z M72.3,76.2L72.3,76.2C72.4,76.2,72.4,76.2,72.3,76.2L72.3,76.2z M72.7,76.5c-0.1,0-0.2,0-0.2-0.1 c-0.1-0.1-0.1-0.1-0.2-0.1l0.1-0.2l0.3-0.2v0.4L72.7,76.5z M72.9,76.5L72.9,76.5C72.8,76.5,72.8,76.4,72.9,76.5L72.9,76.5z M73.5,75.2L73.5,75.2L73.5,75.2L73.5,75.2z M73.1,74.9c0.1,0,0.1,0.1,0.2,0.1s0.1,0.1,0.2,0.1l-0.1,0.2l-0.3,0.2v-0.4L73.1,74.9z M73,76.5L73,76.5C73.1,76.4,73.1,76.5,73,76.5L73,76.5z M73.1,76.5L73,76.3v-0.4l0.3,0.2l0.1,0.2C73.4,76.4,73.2,76.5,73.1,76.5z M73.5,76.2L73.5,76.2C73.5,76.2,73.5,76.1,73.5,76.2L73.5,76.2L73.5,76.2z M73.7,76L73.7,76C73.6,75.9,73.7,75.9,73.7,76L73.7,76z M73.5,75.9l-0.3-0.2l0.3-0.2l0.2-0.1c0,0.1,0,0.2,0,0.3c0,0.1,0,0.2,0,0.2S73.5,75.9,73.5,75.9z"></path> <path class="st0" d="M71.8,56.3c0,0,0-0.2-0.1-0.4l0.4-0.2l0.1-0.1v0.1h-0.1v0.4l0,0l0,0l0.4-0.2v-0.1l0,0c0-0.1,0-0.1,0.1-0.1v0.1 v0.5c-0.1,0-0.2,0-0.3,0c-0.1,0-0.1,0-0.1,0.1s0.1,0.1,0.4,0.1s0.4,0,0.4-0.1c0,0-0.1-0.1-0.3-0.1v-0.6c0,0,0.1,0,0.1,0.1v0.1 l0.4,0.2l0,0h0.1v-0.4c0,0,0,0-0.1,0c0,0-0.1,0-0.1-0.1c0,0,0,0.1,0.1,0.1l0.4,0.2c-0.1,0.2-0.2,0.3-0.1,0.4c0,0,0.1,0,0.1-0.1 c0.1-0.1,0.1-0.1,0.1-0.2c0.1-0.1,0.1-0.2,0.1-0.3s0-0.1,0-0.1h-0.1c-0.1,0.1-0.1,0.1-0.1,0.2l-0.4-0.2h-0.1h0.1c0,0,0,0,0.1,0 l0.3-0.2v-0.1L73,55.5l-0.2-0.2l0.3-0.2l0.6,0.2v-0.1L73.3,55c0,0,0,0-0.1,0c0,0,0,0-0.1,0l0.4-0.3c0.1,0.2,0.2,0.3,0.3,0.3 c0-0.1,0-0.2-0.2-0.4c-0.1-0.2-0.2-0.3-0.3-0.3c-0.1,0,0,0.2,0.1,0.3L73,54.9v-0.1l0,0v-0.5h-0.1l0,0l-0.4,0.2l0,0 c0,0,0,0.1-0.1,0.1v-0.5c0.2,0,0.3,0,0.3-0.1s-0.1-0.1-0.4-0.1s-0.4,0-0.4,0.1c0,0,0,0.1,0.1,0.1s0.2,0,0.3,0v0.5c0,0,0,0,0-0.1l0,0 l-0.4-0.2l-0.1,0.1v0.5l0,0c0,0,0,0,0,0.1l-0.4-0.2c0.1-0.1,0.1-0.2,0.1-0.2c0-0.1,0-0.1,0-0.1s-0.1,0-0.1,0.1 c-0.1,0.1-0.1,0.1-0.2,0.2c-0.1,0.2-0.2,0.4-0.1,0.4c0,0,0.1-0.1,0.2-0.3l0.4,0.2h-0.1h-0.1l-0.4,0.2v0.1l0.6-0.2l0.3,0.2l-0.3,0.2 l-0.5-0.2l-0.1,0.1l0.4,0.2l-0.3,0.2c-0.1-0.2-0.2-0.3-0.3-0.2c-0.1,0,0,0.1,0.1,0.4C71.6,56.3,71.7,56.4,71.8,56.3z M73.1,54.5 L73,55l-0.3,0.2v-0.3L73.1,54.5z M72.7,55.5l0.3,0.1l0.1,0.5l-0.4-0.3V55.5z M72.2,55l-0.1-0.5l0.4,0.3v0.3L72.2,55z M72.2,55.7 l0.3-0.2v0.3l-0.4,0.3L72.2,55.7z M72,55.6L72,55.6L72,55.6L72,55.6L72,55.6z"></path> <path class="st0" d="M100.6,74.8l-0.4,0.2v-0.2h-0.1l-0.1,0.3l-0.2,0.1V75l0.2-0.2l0,0l-0.2,0.1l0,0c0,0,0,0,0,0.1v-0.6h-0.1V75 c0,0,0,0,0-0.1l0,0l-0.1-0.1l0,0l0.2,0.2v0.2l-0.2-0.1l-0.1-0.2h-0.1v0.2l0,0l0,0c0,0,0,0,0,0.1l-0.5-0.3l0,0l0.5,0.3h-0.1 c0,0,0,0-0.1,0L99,75.3v0.1h0.3l0.2,0.1l-0.2,0.1H99v0.1h0.2l0,0h0.1L98.9,76v0.1l0.4-0.2l0.1-0.1c0,0,0,0,0,0.1h-0.1v0.2h0.1 l0.1-0.3l0.2-0.1v0.2l-0.2,0.2v0.1l0.1-0.1V76v0.6h0.1V76v0.1l0.2,0.1v-0.1l-0.2-0.2v-0.2l0.2,0.1L100,76h0.1l-0.1-0.2l0,0l0,0v-0.1 l0.5,0.2l0,0l-0.4-0.2h0.1l0.2-0.1v-0.1l-0.3,0.1l-0.2-0.1l0.2-0.1h0.3v-0.1l-0.2-0.1l0,0h-0.1L100.6,74.8L100.6,74.8z"></path> <path class="st0" d="M99.3,54.1c0.1-0.1,0.1-0.1,0.1-0.2l0.4,0.2h0.1h-0.1c0,0,0,0-0.1,0l-0.3,0.2v0.2l0.6-0.2l0.3,0.2l-0.3,0.2 l-0.6-0.2v0.1l0.4,0.2c0,0,0,0,0.1,0c0,0,0,0,0.1,0l-0.4,0.3c-0.1-0.2-0.2-0.3-0.3-0.3c0,0.1,0,0.2,0.2,0.4c0.1,0.2,0.2,0.3,0.3,0.3 c0.1,0,0-0.2-0.1-0.3l0.4-0.3V55l0,0v0.5h0.1l0,0l0.4-0.2l0,0c0,0,0-0.1,0.1-0.1v0.5c-0.2,0-0.3,0-0.3,0.1s0.1,0.1,0.4,0.1 s0.4,0,0.4-0.1c0,0,0-0.1-0.1-0.1s-0.2,0-0.3,0v-0.5c0,0,0,0,0,0.1l0,0l0.4,0.2l0.1-0.1v-0.5l0,0c0,0,0,0,0-0.1l0.4,0.2 c-0.1,0.1-0.1,0.2-0.1,0.2c0,0.1,0,0.1,0,0.1s0.1,0,0.1-0.1s0.1-0.1,0.2-0.2c0.1-0.2,0.2-0.4,0.1-0.4c0,0-0.1,0.1-0.2,0.3l-0.4-0.2 h0.1h0.1l0.4-0.2v-0.1l-0.6,0.2l-0.3-0.2l0.3-0.2l0.5,0.2l0.1-0.1l-0.4-0.2l0.3-0.3c0.1,0.2,0.2,0.3,0.3,0.2c0.1,0,0-0.1-0.1-0.4 c-0.2-0.2-0.3-0.3-0.3-0.3s0,0.2,0.1,0.4l-0.4,0.2l-0.1,0.1v-0.1h0.1v-0.4l0,0l0,0l-0.4,0.2v0.1l0,0c0,0.1,0,0.1-0.1,0.1v-0.1v-0.5 c0.1,0,0.2,0,0.3,0c0.1,0,0.1,0,0.1-0.1s-0.1-0.1-0.4-0.1s-0.4,0-0.4,0.1c0,0,0.1,0.1,0.3,0.1v0.6c0,0-0.1,0-0.1-0.1v-0.1l-0.8-0.2 l0,0h-0.1v0.4c0,0,0,0,0.1,0c0,0,0.1,0,0.1,0.1l-0.1-0.1l-0.4-0.2c0.1-0.2,0.2-0.3,0.1-0.4c0,0-0.1,0-0.1,0.1 c-0.1,0.1-0.1,0.1-0.1,0.2c-0.1,0.1-0.1,0.2-0.1,0.3s0,0.1,0,0.1C99.2,54.2,99.2,54.2,99.3,54.1z M101.1,54.2L101.1,54.2L101.1,54.2 C101.1,54.2,101,54.2,101.1,54.2L101.1,54.2z M100.6,53.9l0.4-0.3l-0.1,0.5l-0.3,0.2V53.9z M100.6,54.6l0.3,0.2l0.1,0.5l-0.4-0.3 V54.6z M100,55.3l0.1-0.5l0.3-0.2v0.3L100,55.3z M100.4,53.9v0.3l-0.3-0.1l-0.1-0.5L100.4,53.9z"></path> <path class="st0" d="M109.9,72.4c0,0,0,0.2,0.1,0.4l-0.4,0.2l-0.1,0.1V73h0.1v-0.4l0,0l0,0l-0.4,0.2v0.1l0,0c0,0.1,0,0.1-0.1,0.1 v-0.1v-0.5c0.1,0,0.2,0,0.3,0c0.1,0,0.1,0,0.1-0.1s-0.1-0.1-0.4-0.1s-0.4,0-0.4,0.1c0,0,0.1,0.1,0.3,0.1V73c0,0-0.1,0-0.1-0.1v-0.1 l-0.4-0.2l0,0h-0.1V73c0,0,0,0,0.1,0c0,0,0.1,0,0.1,0.1l-0.1-0.1l-0.4-0.2c0.1-0.2,0.2-0.3,0.1-0.4c0,0-0.1,0-0.1,0.1 c-0.1,0.1-0.1,0.1-0.1,0.2c-0.1,0.1-0.1,0.2-0.1,0.3c0,0.1,0,0.1,0,0.1h0.1c0.1-0.1,0.1-0.1,0.1-0.2l0.4,0.2h0.1h-0.1c0,0,0,0-0.1,0 l-0.3,0.2v0.1l0.6-0.2l0.3,0.2l-0.3,0.2l-0.6-0.2v0.1l0.4,0.2c0,0,0,0,0.1,0c0,0,0,0,0.1,0l-0.4,0.3c-0.1-0.2-0.2-0.3-0.3-0.3 c0,0.1,0,0.2,0.2,0.4c0.1,0.2,0.2,0.3,0.3,0.3c0.1,0,0-0.2-0.1-0.3l0.4-0.3v0.1l0,0v0.5h0.1l0,0l0.4-0.2l0,0c0,0,0-0.1,0.1-0.1v0.5 c-0.2,0-0.3,0-0.3,0.1s0.1,0.1,0.4,0.1s0.4,0,0.4-0.1c0,0,0-0.1-0.1-0.1s-0.2,0-0.3,0v-0.5c0,0,0,0,0,0.1l0,0l0.4,0.2l0.1-0.1v-0.5 l0,0c0,0,0,0,0-0.1l0.4,0.2c-0.1,0.1-0.1,0.2-0.1,0.2v0.1c0,0,0.1,0,0.1-0.1c0.1-0.1,0.1-0.1,0.2-0.2c0.1-0.2,0.2-0.4,0.1-0.4 c0,0-0.1,0.1-0.2,0.3l-0.4-0.2h0.1h0.1l0.4-0.2v-0.1l-0.6,0.2l-0.3-0.2l0.3-0.2l0.5,0.2l0.1-0.1l-0.4-0.2l0.3-0.2 c0.1,0.2,0.2,0.3,0.3,0.2c0.1,0,0-0.1-0.1-0.4C110,72.5,109.9,72.4,109.9,72.4z M108.6,74.3l0.1-0.5l0.3-0.2v0.3L108.6,74.3z M108.9,73.3l-0.3-0.1l-0.1-0.5l0.4,0.3V73.3z M109.4,73.8l0.1,0.5l-0.4-0.3v-0.3L109.4,73.8z M109.4,73.1l-0.3,0.2V73l0.4-0.3 L109.4,73.1z M109.7,73.2L109.7,73.2L109.7,73.2L109.7,73.2L109.7,73.2z"></path> <path class="st0" d="M116.3,60.7c-0.2,0.1-0.4,0.2-0.7,0.3c-0.3,0.1-0.6,0.2-0.9,0.4c-0.3,0.1-0.7,0.2-1,0.4 c-0.4,0.1-0.7,0.2-1.1,0.3c0-0.3,0.1-0.6,0.1-0.9c0-0.3,0-0.6-0.1-0.8c-0.1-0.3-0.2-0.5-0.3-0.7c-0.1-0.2-0.4-0.3-0.6-0.3 c2.2-2.8,3.6-5.1,4.3-6.9c0.7-1.8,0.6-2.9-0.1-3.3c-0.5-0.3-1.1-0.2-1.7,0.1c-0.7,0.4-1.4,1-2.3,2s-1.7,2.1-2.6,3.6s-1.8,3.1-2.7,5 c-0.5,1-0.9,1.9-1.2,2.8c-0.1,0-0.1,0.1-0.2,0.1c-0.5,0.2-1,0.3-1.5,0.3c0.2-0.7,0.2-1.3,0-1.8s-0.6-0.7-1.1-0.7s-0.8,0.2-1.1,0.5 c-0.3,0.3-0.4,0.6-0.5,1s0,0.8,0.2,1.2c0.2,0.4,0.5,0.7,0.9,0.9l-0.3,0.7c-0.2,0.5-0.5,1.1-0.9,1.6c-0.3,0.5-0.7,0.9-1,1.3 c-0.4,0.4-0.7,0.6-1,0.8c-0.3,0.2-0.6,0.2-0.8,0.1c-0.4-0.2-0.6-0.7-0.6-1.4c0-0.7,0.2-1.5,0.7-2.5c0.5-1.1,1-2,1.6-2.7 c0.5-0.7,1-1.1,1.5-1.4c0.5-0.3,0.9-0.4,1.4-0.4c0.4,0,0.8,0.2,1.1,0.4c0-0.3-0.1-0.5-0.3-0.7c-0.2-0.2-0.4-0.4-0.6-0.5 c-0.5-0.2-1-0.2-1.6-0.1c-0.6,0.1-1.2,0.4-1.9,0.9c-0.7,0.5-1.3,1.1-2,2c-0.7,0.8-1.3,1.9-1.9,3.1c-0.1,0.1-0.1,0.2-0.2,0.3 c-0.4,0.9-0.9,1.6-1.3,2.2c-0.6,0.7-1,1.1-1.5,1.1c-0.1,0-0.2-0.1-0.2-0.2c0-0.2,0.1-0.5,0.3-0.9s0.6-1.1,1-1.9c0.5-0.8,3.5-6,3.5-6 h-3c0,0-1.4,2.6-2.3,4.4h-2l0.8-1.6l0,0l0.5-1.1l0,0l0,0l0.8-1.7h-2.5L88,62.9c-0.2,0.1-0.4,0.2-0.6,0.3c-0.5,0.2-1,0.3-1.5,0.3 c0.2-0.7,0.2-1.3,0-1.8S85.3,61,84.8,61s-0.8,0.2-1.1,0.5c-0.3,0.3-0.4,0.6-0.5,1s0,0.8,0.2,1.2c0.2,0.4,0.5,0.7,0.9,0.9L84,65.3 c-0.2,0.5-0.5,1.1-0.9,1.6c-0.3,0.5-0.7,0.9-1,1.3c-0.4,0.4-0.7,0.6-1,0.8c-0.3,0.2-0.6,0.2-0.8,0.1c-0.4-0.2-0.6-0.7-0.6-1.4 c0-0.7,0.2-1.5,0.7-2.5c0.5-1.1,1-2,1.6-2.7c0.5-0.7,1-1.1,1.5-1.4c0.5-0.3,0.9-0.4,1.4-0.4c0.4,0,0.8,0.2,1.1,0.4 c0-0.3-0.1-0.5-0.3-0.7c-0.2-0.2-0.4-0.4-0.6-0.5c-0.5-0.2-1-0.2-1.6-0.1c-0.6,0.1-1.2,0.4-1.9,0.9c-0.7,0.5-1.3,1.1-2,2 c-0.7,0.8-1.3,1.9-1.9,3.1c-0.6,1.3-0.9,2.4-0.8,3.4s0.5,1.6,1.2,1.9c0.6,0.3,1.3,0.3,2,0.1c0.7-0.2,1.3-0.6,2-1.1 c0.6-0.5,1.2-1.2,1.8-2c0.5-0.8,1-1.5,1.4-2.3c0.1-0.2,0.1-0.3,0.2-0.5c0.1-0.1,0.1-0.3,0.2-0.5c0.5,0,1.1-0.2,1.7-0.3 c0.1,0,0.1,0,0.2-0.1l-3.2,6.8H87l0.3-0.6l0,0l2.3-4.9h2c-0.2,0.5-0.4,0.8-0.3,0.8c-0.2,0.4-0.4,0.8-0.6,1.2 c-0.4,0.9-0.6,1.6-0.6,2.1s0.1,0.9,0.4,1.1s0.7,0.3,1.1,0.3c1,0,1.8-0.4,2.6-1.3c0.2-0.3,0.4-0.5,0.7-0.8l0,0c0.1,1,0.5,1.6,1.2,1.9 c0.6,0.3,1.3,0.3,2,0.1c0.7-0.2,1.3-0.6,2-1.1c0.6-0.5,1.2-1.2,1.8-2c0.5-0.8,1-1.5,1.4-2.3c0.1-0.2,0.1-0.3,0.2-0.5 c0.1-0.1,0.1-0.3,0.2-0.5c0.5,0,1.1-0.2,1.6-0.3c-0.1,0.2-0.1,0.3-0.2,0.5c-0.4,1.3-0.6,2.3-0.6,3.2c-0.1,0.9,0,1.5,0.2,2 s0.5,0.8,0.9,0.9c0.6,0.2,1.2,0.1,1.9-0.2c0.7-0.3,1.4-0.8,2.1-1.5s1.3-1.5,1.8-2.5c0.5-0.9,1-1.9,1.2-3c0.3-0.1,0.7-0.2,1.1-0.3 c0.4-0.1,0.8-0.2,1.2-0.4c0.4-0.1,0.8-0.3,1.1-0.5c0.4-0.2,0.7-0.3,0.9-0.5L116.3,60.7z M109.3,65.8c-0.4,0.7-0.7,1.3-1.1,1.8 c-0.3,0.5-0.7,0.8-0.9,1c-0.3,0.2-0.5,0.2-0.7,0.2c-0.2-0.1-0.3-0.3-0.4-0.5c-0.1-0.3-0.1-0.6,0-0.9c0-0.4,0.1-0.8,0.3-1.2 c0.1-0.4,0.3-0.9,0.5-1.4c0.9-1,1.8-2,2.6-2.9c0,0.3,0.1,0.5,0.2,0.7s0.3,0.4,0.5,0.6C110,64.2,109.7,65.1,109.3,65.8z M110.9,58.6 c-0.9,1.2-1.8,2.4-2.8,3.6l0.7-1.4c0.7-1.5,1.5-2.8,2.2-4s1.4-2.1,2-2.9c0.6-0.8,1.1-1.4,1.4-1.8c0.4-0.4,0.6-0.6,0.7-0.5 s0,0.5-0.3,1.2s-0.8,1.5-1.5,2.5C112.5,56.3,111.8,57.4,110.9,58.6z"></path> <path class="st0" d="M91.6,73.6c0,0,0,0.2,0.1,0.4l-0.4,0.2l-0.1,0.1v-0.1h0.1v-0.4l0,0l0,0L90.9,74v0.1l0,0c0,0.1,0,0.1-0.1,0.1 v-0.1v-0.5c0.1,0,0.2,0,0.3,0c0.1,0,0.1,0,0.1-0.1s-0.1-0.1-0.4-0.1s-0.4,0-0.4,0.1c0,0,0.1,0.1,0.3,0.1v0.6c0,0-0.1,0-0.1-0.1V74 l-0.4-0.2l0,0h-0.1v0.4c0,0,0,0,0.1,0c0,0,0.1,0,0.1,0.1c0,0,0-0.1-0.1-0.1L89.8,74c0.1-0.2,0.2-0.3,0.1-0.4c0,0-0.1,0-0.1,0.1 c-0.1,0.1-0.1,0.1-0.1,0.2c-0.1,0.1-0.1,0.2-0.1,0.3c0,0.1,0,0.1,0,0.1h0.1c0.1-0.1,0.1-0.1,0.1-0.2l0.4,0.2h0.1h-0.1c0,0,0,0-0.1,0 l-0.3,0.2v0.1l0.6-0.2l0.3,0.2l-0.3,0.2l-0.6-0.2v0.1l0.4,0.2c0,0,0,0,0.1,0c0,0,0,0,0.1,0l-0.7,0.2c-0.1-0.2-0.2-0.3-0.3-0.3 c0,0.1,0,0.2,0.2,0.4c0.1,0.2,0.2,0.3,0.3,0.3c0.1,0,0-0.2-0.1-0.3l0.4-0.3V75l0,0v0.5h0.1l0,0l0.4-0.2l0,0c0,0,0-0.1,0.1-0.1v0.5 c-0.2,0-0.3,0-0.3,0.1s0.1,0.1,0.4,0.1s0.4,0,0.4-0.1c0,0,0-0.1-0.1-0.1s-0.2,0-0.3,0v-0.5c0,0,0,0,0,0.1l0,0l0.4,0.2l0.1-0.1v-0.5 l0,0c0,0,0,0,0-0.1l0.4,0.2c-0.1,0.1-0.1,0.2-0.1,0.2c0,0.1,0,0.1,0,0.1s0.1,0,0.1-0.1c0.1-0.1,0.1-0.1,0.2-0.2 c0.1-0.2,0.2-0.4,0.1-0.4c0,0-0.1,0.1-0.2,0.3l-0.4-0.2h0.1h0.1l0.4-0.2v-0.1l-0.6,0.2l-0.3-0.2l0.3-0.2l0.5,0.2l0.1-0.1l-0.4-0.2 l0.3-0.2c0.1,0.2,0.2,0.3,0.3,0.2c0.1,0,0-0.1-0.1-0.4C91.7,73.6,91.6,73.5,91.6,73.6z M90.3,75.4l0.1-0.5l0.3-0.2V75L90.3,75.4z M90.6,74.4l-0.3-0.1l-0.1-0.5l0.4,0.3V74.4z M91.1,74.9l0.1,0.5l-0.4-0.3v-0.3L91.1,74.9z M91.1,74.2l-0.3,0.2v-0.3l0.4-0.3 L91.1,74.2z M91.4,74.3L91.4,74.3L91.4,74.3L91.4,74.3L91.4,74.3z"></path> <path class="st0" d="M91.2,51.6l0.7,0.4v0.1c0,0,0,0,0-0.1h-0.8v0.1l0.7,0.1v0.1v0.1c0,0,0,0.1,0.1,0.3l-0.7,0.1v0.1l0.7-0.1 c0,0,0-0.1,0.1-0.1v0.1l-0.6,0.4c-0.1-0.1-0.2-0.1-0.3-0.1c-0.2,0.1-0.2,0.3-0.1,0.4c0.1,0.1,0.2,0.2,0.4,0.1 c0.1-0.1,0.2-0.2,0.1-0.3l0.6-0.3c0,0,0.1,0,0.1,0.1h-0.1l-0.4,0.6h0.2l0.4-0.6c0.2,0.1,0.3,0.2,0.4,0.2L92.4,54l0.1,0.1l0.3-0.6 v-0.1l0,0h0.1v0.7c-0.1,0-0.2,0.1-0.2,0.2c0,0.2,0.1,0.3,0.2,0.3c0.2,0,0.2-0.1,0.2-0.3s-0.1-0.2-0.2-0.2v-0.7H93l0,0v0.1l0.1,0.5 l0.1-0.1l-0.3-0.7c0.2,0,0.3-0.1,0.4-0.2l0.4,0.6h0.2L93.5,53c0,0-0.1,0-0.1-0.1h0.1l0.6,0.3c0,0,0,0.1,0,0.2c0,0.1,0.1,0.1,0.1,0.1 c0.2,0.1,0.3,0.1,0.4-0.1c0-0.1,0-0.1,0-0.2c0-0.1-0.1-0.1-0.1-0.2c-0.2,0-0.3,0-0.4,0.2l-0.6-0.4v-0.1c0,0,0,0,0,0.1l0.7,0.1 l-0.1-0.2l-0.7-0.1v-0.1v-0.1c0-0.1,0-0.2,0-0.2l0.7-0.1V52l-0.5,0l0,0l0,0l0.6-0.4c0.1,0.1,0.2,0.1,0.3,0c0.2-0.1,0.2-0.2,0.1-0.4 c-0.1-0.1-0.2-0.2-0.4-0.1c-0.1,0.1-0.1,0.2-0.1,0.3l-0.6,0.4l-0.1-0.1h0.1l0.4-0.6h-0.1l-0.4,0.5c0,0-0.1-0.1-0.2-0.1 s-0.1-0.1-0.2-0.1l0.2-0.6l-0.1,0l-0.2,0.7l0,0l0,0l0,0v-0.7c0.1,0,0.2-0.1,0.2-0.2c0-0.2-0.1-0.3-0.2-0.3c-0.2,0-0.2,0.1-0.2,0.3 c0,0.1,0.1,0.2,0.2,0.2v0.7c0,0,0,0-0.1,0l0,0l-0.3-0.7l-0.1,0.1l0.2,0.6c-0.2,0.1-0.3,0.2-0.4,0.3l-0.4-0.6l-0.1,0.1l0.5,0.5v0.1 L91.2,51.6c0.1-0.2,0.1-0.3-0.1-0.4c-0.1-0.1-0.3-0.1-0.3,0.1c-0.1,0.1-0.1,0.3,0.1,0.3C91,51.8,91.1,51.8,91.2,51.6z M93.1,53.1 c-0.1,0-0.1,0.1-0.2,0.1L92.8,53v-0.4l0.4,0.2l0.1,0.1C93.2,53,93.2,53.1,93.1,53.1z M93.3,52.9L93.3,52.9L93.3,52.9L93.3,52.9z M93.5,52.8L93.5,52.8L93.5,52.8L93.5,52.8z M93.5,52.2c0,0,0,0.1,0,0.2v0.1v0.1h-0.2L93,52.4l0.3-0.2L93.5,52.2z M93.5,52L93.5,52 L93.5,52L93.5,52z M93.4,51.9L93.4,51.9C93.3,51.9,93.3,51.9,93.4,51.9L93.4,51.9z M92.9,51.6c0.1,0,0.2,0,0.2,0.1 c0.1,0.1,0.1,0.1,0.2,0.1L93.2,52l-0.3,0.2v-0.4L92.9,51.6z M92.8,51.6L92.8,51.6C92.9,51.6,92.9,51.7,92.8,51.6L92.8,51.6z M92.1,52.9L92.1,52.9L92.1,52.9L92.1,52.9z M92.5,53.2c-0.1,0-0.1-0.1-0.2-0.1s-0.1,0-0.2-0.1l0.1-0.2l0.3-0.2V53V53.2z M92.6,51.6 L92.6,51.6C92.6,51.7,92.6,51.6,92.6,51.6L92.6,51.6z M92.5,51.6l0.1,0.2v0.4L92.2,52l-0.1-0.1C92.3,51.7,92.4,51.6,92.5,51.6z M92.1,51.9L92.1,51.9C92.1,51.9,92.1,52,92.1,51.9L92.1,51.9L92.1,51.9z M92,52.1L92,52.1C92,52.2,91.9,52.2,92,52.1 C91.9,52.1,91.9,52.1,92,52.1z M92.1,52.2l0.3,0.2l-0.3,0.3l-0.2,0.1c0-0.1,0-0.2,0-0.3s0-0.2,0-0.2L92.1,52.2L92.1,52.2z"></path> <g> <path class="st0" d="M60.7,54.1l0.7,0.4v0.1c0,0,0,0,0-0.1l-0.7-0.1v0.1l0.7,0.1v0.1v0.1c0,0,0,0.1,0.1,0.3l-0.7,0.1v0.1l0.7-0.1 c0,0,0-0.1,0.1-0.1v0.1L61,55.6c-0.1-0.1-0.3-0.1-0.3-0.1c-0.2,0.1-0.2,0.3-0.1,0.4c0.1,0.1,0.2,0.2,0.4,0.1 c0.1-0.1,0.2-0.2,0.1-0.3l0.6-0.4c0,0,0.1,0,0.1,0.1h-0.1L61,56.1h0.2l0.4-0.6c0.2,0.1,0.3,0.2,0.4,0.2l-0.3,0.7l0.1,0.1l0.3-0.6 v-0.1l0,0h0.1v0.8c-0.1,0-0.2,0.1-0.2,0.3s0.1,0.3,0.3,0.3s0.3-0.1,0.3-0.3s-0.1-0.3-0.2-0.3v-0.8h0.1l0,0v0.1l0.3,0.6l0.1-0.1 l-0.3-0.7c0.2,0,0.3-0.1,0.4-0.3l0.4,0.6h0.2L63,55.5c0,0-0.1,0-0.1-0.1H63l0.6,0.4c0,0,0,0.1,0,0.2c0,0.1,0.1,0.1,0.1,0.1 c0.2,0.1,0.3,0.1,0.4-0.1c0-0.1,0-0.1,0-0.2c0-0.1-0.1-0.1-0.1-0.2c-0.1-0.1-0.3-0.1-0.4,0.1L63,55.3v-0.1c0,0,0,0,0,0.1l0.7,0.1 l-0.1-0.2l-0.7-0.1V55v-0.1c0-0.1,0-0.2,0-0.3l0.7-0.1v-0.1l-0.7,0.1l0,0l0,0l0.6-0.4c0.1,0.1,0.2,0.1,0.4,0 c0.2-0.1,0.2-0.2,0.1-0.4c-0.1-0.1-0.2-0.2-0.4-0.1c-0.1,0.1-0.1,0.2-0.1,0.4L63,54.3l-0.1-0.1H63l0.4-0.6h-0.1l-0.4,0.5 c0,0-0.1-0.1-0.2-0.1c-0.1,0-0.1-0.1-0.2-0.1l0.2-0.6l-0.1-0.1l-0.3,0.7l0,0l0,0l0,0v-0.8c0.1,0,0.2-0.1,0.2-0.3s-0.1-0.3-0.3-0.3 s-0.3,0.1-0.3,0.3s0.1,0.2,0.2,0.3v0.8c0,0,0,0-0.1,0l0,0l-0.3-0.7l-0.1,0.1l0.3,0.6c-0.2,0.1-0.3,0.2-0.4,0.3l-0.4-0.6L61,53.7 l0.5,0.5v0.1L60.7,54.1c0.1-0.2,0.1-0.4-0.1-0.4c-0.2-0.1-0.3-0.1-0.4,0.1c-0.1,0.2-0.1,0.3,0.1,0.4C60.5,54.2,60.6,54.2,60.7,54.1 z M62.6,55.6c-0.1,0-0.1,0.1-0.2,0.1l-0.1-0.2v-0.4l0.4,0.2l0.1,0.1C62.8,55.5,62.7,55.6,62.6,55.6z M62.8,55.4L62.8,55.4 L62.8,55.4L62.8,55.4z M63,55.2L63,55.2L63,55.2L63,55.2z M63,54.6c0,0,0,0.1,0,0.3V55v0.1h-0.2l-0.4-0.3l0.3-0.2L63,54.6z M63,54.5L63,54.5L63,54.5L63,54.5z M62.9,54.4L62.9,54.4C62.8,54.4,62.8,54.3,62.9,54.4L62.9,54.4z M62.4,54.1 c0.1,0,0.2,0,0.2,0.1c0.1,0.1,0.1,0.1,0.2,0.1l-0.1,0.2l-0.4,0.2v-0.4L62.4,54.1z M62.3,54L62.3,54C62.4,54,62.4,54.1,62.3,54 L62.3,54z M61.6,55.4L61.6,55.4L61.6,55.4L61.6,55.4z M62,55.7c-0.1,0-0.1-0.1-0.2-0.1c-0.1,0-0.2-0.1-0.2-0.1l0.1-0.2l0.4-0.2v0.4 L62,55.7z M62.1,54L62.1,54C62.1,54.1,62,54.1,62.1,54L62.1,54z M62,54l0.1,0.2v0.4l-0.4-0.2l-0.1-0.2C61.7,54.1,61.9,54,62,54z M61.6,54.3L61.6,54.3C61.6,54.4,61.6,54.4,61.6,54.3L61.6,54.3L61.6,54.3z M61.4,54.5L61.4,54.5C61.5,54.6,61.4,54.6,61.4,54.5 C61.4,54.6,61.4,54.6,61.4,54.5z M61.6,54.7l0.3,0.3l-0.3,0.2l-0.2,0.1c0-0.1,0-0.2,0-0.3s0-0.2,0-0.2L61.6,54.7L61.6,54.7z"></path> <path class="st0" d="M63.2,72.5c0,0,0,0.2,0.1,0.4l-0.4,0.3l-0.1,0.1v-0.1h0.1v-0.4l0,0l0,0L62.5,73v0.1l0,0c0,0.1,0,0.1-0.1,0.1 v-0.1v-0.5c0.1,0,0.2,0,0.3,0s0.1,0,0.1-0.1s-0.1-0.1-0.4-0.1s-0.4,0-0.4,0.1c0,0,0.1,0.1,0.4,0.1V73c0,0-0.1,0-0.1-0.1v-0.1 l-0.4-0.2l0,0h-0.1V73c0,0,0,0,0.1,0c0,0,0.1,0,0.1,0.1c0,0,0-0.1-0.1-0.1l-0.4-0.3c0.1-0.2,0.2-0.3,0.1-0.4c0,0-0.1,0-0.1,0.1 c-0.1,0.1-0.1,0.1-0.1,0.3C61.1,73,61,73.1,61,73.2s0,0.1,0,0.1h0.1c0.1-0.1,0.1-0.1,0.1-0.2l0.4,0.3h0.1h-0.1c0,0,0,0-0.1,0 l-0.4,0.2v0.1l0.6-0.2l0.3,0.2l-0.3,0.2l-0.6-0.2v0.1l0.4,0.2c0,0,0,0,0.1,0c0,0,0,0,0.1,0l-0.4,0.3C61.2,74.1,61.1,74,61,74 c0,0.1,0,0.2,0.2,0.4c0.1,0.2,0.3,0.3,0.3,0.3c0.1,0,0-0.2-0.1-0.4l0.4-0.3v0.1l0,0v0.5h0.1l0,0l0.4-0.2l0,0c0,0,0-0.1,0.1-0.1v0.5 c-0.2,0-0.4,0-0.4,0.1s0.1,0.1,0.4,0.1s0.4,0,0.4-0.1c0,0,0-0.1-0.1-0.1s-0.2,0-0.3,0v-0.5c0,0,0,0,0,0.1l0,0l0.4,0.2l0.1-0.1V74 l0,0c0,0,0,0,0-0.1l0.4,0.3c-0.1,0.1-0.1,0.2-0.1,0.3s0,0.1,0,0.1s0.1,0,0.1-0.1c0.1-0.1,0.1-0.2,0.2-0.3c0.1-0.2,0.2-0.4,0.1-0.5 c0,0-0.1,0.1-0.3,0.3l-0.4-0.3H63h0.1l0.4-0.3v-0.1l-0.6,0.2l-0.3-0.2l0.3-0.2l0.5,0.2l0.1-0.1l-0.5,0l0.4-0.3 c0.1,0.2,0.2,0.3,0.3,0.3s0-0.1-0.1-0.4C63.3,72.6,63.2,72.5,63.2,72.5z M61.9,74.5L62,74l0.3-0.2v0.4L61.9,74.5z M62.2,73.4 l-0.3-0.1l-0.1-0.5l0.4,0.3L62.2,73.4z M62.8,73.9l0.1,0.5L62.5,74v-0.4L62.8,73.9z M62.7,73.2l-0.3,0.2V73l0.4-0.3L62.7,73.2z M63,73.3L63,73.3L63,73.3L63,73.3L63,73.3z"></path> <path class="st0" d="M76.7,59.5l-0.8,1.8c-0.5,1-1,1.9-1.6,2.8s-1.1,1.7-1.7,2.3c-0.5,0.7-1,1.2-1.4,1.6s-0.7,0.6-0.9,0.6 c-0.2,0-0.2-0.2,0-0.7s0.5-1,1-1.7c0.8-1.3,1.5-2.4,1.8-3.2c0.4-0.9,0.6-1.6,0.6-2.1s-0.1-0.9-0.4-1.1c-0.3-0.2-0.7-0.3-1.1-0.3 c-1,0-1.8,0.4-2.6,1.3c-0.7,0.8-1.4,1.9-2,3.2l0,0l-0.1,0.1c-0.1,0.1-0.1,0.2-0.2,0.4l0,0l-0.4,0.8l0,0c-0.5,1-0.7,1.6-1.2,2.2 c-0.6,0.7-1.1,1.1-1.5,1.1c-0.1,0-0.2-0.1-0.2-0.2c0-0.2,0.1-0.5,0.4-0.9c0.2-0.5,0.6-1.1,1-2c0.5-0.8,1.1-1.9,1.9-3.3 c0.2-0.4,0.4-0.8,0.4-1.2c0.1-0.4,0-0.7,0-0.9c-0.1-0.3-0.2-0.5-0.4-0.6c-0.2-0.1-0.4-0.2-0.7-0.2c-0.6,0-1.2,0.2-2,0.7 c-0.7,0.5-1.5,1.2-2.3,2.2l1.4-2.9H61l-5.4,11.3h2.7l0.9-1.8c0.5-1,1.1-1.9,1.7-2.9s1.2-1.7,1.7-2.4c0.5-0.7,1-1.3,1.5-1.7 c0.4-0.4,0.8-0.6,0.9-0.6c0.2,0,0.3,0.2,0,0.7c-0.2,0.5-0.5,1-1,1.7c-0.9,1.3-1.5,2.4-1.9,3.4c-0.4,0.9-0.6,1.6-0.6,2.2 s0.1,1,0.4,1.2s0.7,0.4,1.2,0.4c1,0,1.9-0.5,2.7-1.4s2.6-4.8,2.6-4.8c0.4-0.8,0.8-1.5,1.3-2c0.6-0.7,1-1.1,1.5-1.1 c0.1,0,0.2,0.1,0.2,0.2c0,0.2-0.1,0.5-0.3,0.9s-0.6,1.1-1,1.9c-0.5,0.8-1.1,1.9-1.8,3.2c-0.2,0.4-0.4,0.8-0.4,1.1 c-0.1,0.4,0,0.7,0,0.9c0.1,0.3,0.2,0.5,0.4,0.6s0.4,0.2,0.7,0.2c0.6,0,1.2-0.2,1.9-0.7c0.7-0.5,1.4-1.2,2.2-2.1l-1.3,2.8h2.5 l5.2-10.9L76.7,59.5L76.7,59.5z"></path> </g> </svg> 